SplineFontDB: 3.0
FontName: Commodore64Pixelized
FullName: Commodore 64 Pixelized
FamilyName: Commodore 64 Pixelized
Weight: Book
Copyright: By Devin Cook (DevinCook.com)
Version: 1.2
ItalicAngle: 0
UnderlinePosition: -156
UnderlineWidth: 22
Ascent: 1638
Descent: 410
InvalidEm: 0
sfntRevision: 0x00010000
LayerCount: 2
Layer: 0 1 "Back" 1
Layer: 1 1 "Fore" 0
XUID: [1021 129 714607489 6744710]
StyleMap: 0x0040
FSType: 12
OS2Version: 0
OS2_WeightWidthSlopeOnly: 0
OS2_UseTypoMetrics: 0
CreationTime: 920980531
ModificationTime: 1531649011
PfmFamily: 81
TTFWeight: 400
TTFWidth: 5
LineGap: 0
VLineGap: 0
Panose: 0 0 0 0 0 0 0 0 0 0
OS2TypoAscent: 1800
OS2TypoAOffset: 0
OS2TypoDescent: -200
OS2TypoDOffset: 0
OS2TypoLinegap: 0
OS2WinAscent: 1800
OS2WinAOffset: 0
OS2WinDescent: 200
OS2WinDOffset: 0
HheadAscent: 1800
HheadAOffset: 0
HheadDescent: -200
HheadDOffset: 0
OS2SubXSize: 0
OS2SubYSize: 0
OS2SubXOff: 0
OS2SubYOff: 0
OS2SupXSize: 0
OS2SupYSize: 0
OS2SupXOff: 0
OS2SupYOff: 0
OS2StrikeYSize: 1
OS2StrikeYPos: 0
OS2Vendor: '    '
OS2UnicodeRanges: 00000000.00000000.00000000.00000000
DEI: 91125
TtTable: prep
NPUSHB
 19
 12
 12
 11
 11
 10
 10
 9
 9
 8
 8
 3
 3
 2
 2
 1
 1
 0
 0
 1
SCANTYPE
PUSHW_1
 511
SCANCTRL
RCVT
ROUND[Grey]
WCVTP
RCVT
ROUND[Grey]
WCVTP
RCVT
ROUND[Grey]
WCVTP
RCVT
ROUND[Grey]
WCVTP
RCVT
ROUND[Grey]
WCVTP
RCVT
ROUND[Grey]
WCVTP
RCVT
ROUND[Grey]
WCVTP
RCVT
ROUND[Grey]
WCVTP
RCVT
ROUND[Grey]
WCVTP
PUSHB_4
 5
 4
 70
 0
CALL
PUSHB_4
 7
 6
 70
 0
CALL
PUSHB_2
 4
 4
RCVT
ROUND[Grey]
WCVTP
PUSHB_2
 6
 6
RCVT
ROUND[Grey]
WCVTP
EndTTInstrs
TtTable: fpgm
NPUSHB
 1
 0
FDEF
SROUND
RCVT
DUP
PUSHB_1
 3
CINDEX
RCVT
SWAP
SUB
ROUND[Grey]
RTG
SWAP
ROUND[Grey]
ADD
WCVTP
ENDF
EndTTInstrs
ShortTable: cvt  16
  -194
  -15
  594
  792
  259
  285
  145
  111
  129
  62
  178
  222
  419
  23133
  1
  3
EndShort
ShortTable: maxp 16
  1
  0
  204
  1400
  82
  0
  0
  2
  8
  64
  10
  0
  169
  86
  0
  0
EndShort
LangName: 1033 "" "" "Regular" "Commodore 64 Pixelized" "" "1.2"

StartChar: .notdef
Encoding: 65536 -1 0
Width: 500
Flags: W
LayerCount: 2
Fore
SplineSet
63 0 m 1,0,-1
 63 1051 l 1,1,-1
 438 1051 l 1,2,-1
 438 0 l 1,3,-1
 63 0 l 1,0,-1
125 63 m 1,4,-1
 375 63 l 1,5,-1
 375 989 l 1,6,-1
 125 989 l 1,7,-1
 125 63 l 1,4,-1
EndSplineSet
EndChar

StartChar: exclam
Encoding: 33 33 4
Width: 1600
Flags: W
LayerCount: 2
Fore
SplineSet
600 1400 m 1,0,-1
 1000 1400 l 1,1,-1
 1000 400 l 1,2,-1
 600 400 l 1,3,-1
 600 1400 l 1,0,-1
600 200 m 1,4,-1
 1000 200 l 1,5,-1
 1000 0 l 1,6,-1
 600 0 l 1,7,-1
 600 200 l 1,4,-1
EndSplineSet
EndChar

StartChar: quotedbl
Encoding: 34 34 5
Width: 1600
Flags: W
LayerCount: 2
Fore
SplineSet
1000 1400 m 1,0,-1
 1400 1400 l 1,1,-1
 1400 1000 l 1,2,-1
 1000 1000 l 1,3,-1
 1000 1400 l 1,0,-1
200 1400 m 1,4,-1
 600 1400 l 1,5,-1
 600 1000 l 1,6,-1
 200 1000 l 1,7,-1
 200 1400 l 1,4,-1
EndSplineSet
EndChar

StartChar: numbersign
Encoding: 35 35 6
Width: 1600
Flags: W
LayerCount: 2
Fore
SplineSet
0 600 m 1,0,-1
 200 600 l 1,1,-1
 200 800 l 1,2,-1
 0 800 l 1,3,-1
 0 1000 l 1,4,-1
 200 1000 l 1,5,-1
 200 1400 l 1,6,-1
 600 1400 l 1,7,-1
 600 1000 l 1,8,-1
 1000 1000 l 1,9,-1
 1000 1400 l 1,10,-1
 1400 1400 l 1,11,-1
 1400 1000 l 1,12,-1
 1600 1000 l 1,13,-1
 1600 800 l 1,14,-1
 1400 800 l 1,15,-1
 1400 600 l 1,16,-1
 1600 600 l 1,17,-1
 1600 400 l 1,18,-1
 1400 400 l 1,19,-1
 1400 0 l 1,20,-1
 1000 0 l 1,21,-1
 1000 400 l 1,22,-1
 600 400 l 1,23,-1
 600 0 l 1,24,-1
 200 0 l 1,25,-1
 200 400 l 1,26,-1
 0 400 l 1,27,-1
 0 600 l 1,0,-1
600 800 m 1,28,-1
 600 600 l 1,29,-1
 1000 600 l 1,30,-1
 1000 800 l 1,31,-1
 600 800 l 1,28,-1
EndSplineSet
EndChar

StartChar: dollar
Encoding: 36 36 7
Width: 1600
Flags: W
LayerCount: 2
Fore
SplineSet
200 400 m 1,0,-1
 1000 400 l 1,1,-1
 1000 600 l 1,2,-1
 400 600 l 1,3,-1
 400 800 l 1,4,-1
 200 800 l 1,5,-1
 200 1000 l 1,6,-1
 400 1000 l 1,7,-1
 400 1200 l 1,8,-1
 600 1200 l 1,9,-1
 600 1400 l 1,10,-1
 1000 1400 l 1,11,-1
 1000 1200 l 1,12,-1
 1400 1200 l 1,13,-1
 1400 1000 l 1,14,-1
 600 1000 l 1,15,-1
 600 800 l 1,16,-1
 1200 800 l 1,17,-1
 1200 600 l 1,18,-1
 1400 600 l 1,19,-1
 1400 400 l 1,20,-1
 1200 400 l 1,21,-1
 1200 200 l 1,22,-1
 1000 200 l 1,23,-1
 1000 0 l 1,24,-1
 600 0 l 1,25,-1
 600 196 l 1,26,-1
 200 196 l 1,27,-1
 200 400 l 1,0,-1
EndSplineSet
EndChar

StartChar: percent
Encoding: 37 37 8
Width: 1600
Flags: W
LayerCount: 2
Fore
SplineSet
200 400 m 1,0,-1
 400 400 l 1,1,-1
 400 600 l 1,2,-1
 600 600 l 1,3,-1
 600 800 l 1,4,-1
 800 800 l 1,5,-1
 800 1000 l 1,6,-1
 1000 1000 l 1,7,-1
 1000 1200 l 1,8,-1
 1200 1200 l 1,9,-1
 1200 1400 l 1,10,-1
 1400 1400 l 1,11,-1
 1400 1000 l 1,12,-1
 1200 1000 l 1,13,-1
 1200 800 l 1,14,-1
 1000 800 l 1,15,-1
 1000 600 l 1,16,-1
 800 600 l 1,17,-1
 800 400 l 1,18,-1
 600 400 l 1,19,-1
 600 200 l 1,20,-1
 400 200 l 1,21,-1
 400 0 l 1,22,-1
 200 0 l 1,23,-1
 200 400 l 1,0,-1
200 1400 m 1,24,-1
 600 1400 l 1,25,-1
 600 1000 l 1,26,-1
 200 1000 l 1,27,-1
 200 1400 l 1,24,-1
1000 400 m 1,28,-1
 1400 400 l 1,29,-1
 1400 0 l 1,30,-1
 1000 0 l 1,31,-1
 1000 400 l 1,28,-1
EndSplineSet
EndChar

StartChar: ampersand
Encoding: 38 38 9
Width: 1600
Flags: W
LayerCount: 2
Fore
SplineSet
200 600 m 1,0,-1
 400 600 l 1,1,-1
 400 1000 l 1,2,-1
 200 1000 l 1,3,-1
 200 1200 l 1,4,-1
 400 1200 l 1,5,-1
 400 1400 l 1,6,-1
 1200 1400 l 1,7,-1
 1200 1200 l 1,8,-1
 1400 1200 l 1,9,-1
 1400 1000 l 1,10,-1
 1200 1000 l 1,11,-1
 1200 800 l 1,12,-1
 1000 800 l 1,13,-1
 1000 600 l 1,14,-1
 1600 600 l 1,15,-1
 1600 400 l 1,16,-1
 1400 400 l 1,17,-1
 1400 200 l 1,18,-1
 1600 200 l 1,19,-1
 1600 0 l 1,20,-1
 400 0 l 1,21,-1
 400 200 l 1,22,-1
 200 200 l 1,23,-1
 200 600 l 1,0,-1
1000 1200 m 1,24,-1
 600 1200 l 1,25,-1
 600 1000 l 1,26,-1
 1000 1000 l 1,27,-1
 1000 1200 l 1,24,-1
600 600 m 1,28,-1
 600 200 l 1,29,-1
 1000 200 l 1,30,-1
 1000 600 l 1,31,-1
 600 600 l 1,28,-1
EndSplineSet
EndChar

StartChar: quotesingle
Encoding: 39 39 10
Width: 1600
Flags: W
LayerCount: 2
Fore
SplineSet
1400 1400 m 1,0,-1
 1400 1200 l 1,1,-1
 1200 1200 l 1,2,-1
 1200 1000 l 1,3,-1
 1000 1000 l 1,4,-1
 1000 800 l 1,5,-1
 600 800 l 1,6,-1
 600 1000 l 1,7,-1
 800 1000 l 1,8,-1
 800 1200 l 1,9,-1
 1000 1200 l 1,10,-1
 1000 1400 l 1,11,-1
 1400 1400 l 1,0,-1
EndSplineSet
EndChar

StartChar: parenleft
Encoding: 40 40 11
Width: 1600
Flags: W
LayerCount: 2
Fore
SplineSet
800 400 m 1,0,-1
 1000 400 l 1,1,-1
 1000 200 l 1,2,-1
 1200 200 l 1,3,-1
 1200 0 l 1,4,-1
 800 0 l 1,5,-1
 800 200 l 1,6,-1
 600 200 l 1,7,-1
 600 400 l 1,8,-1
 400 400 l 1,9,-1
 400 1000 l 1,10,-1
 600 1000 l 1,11,-1
 600 1200 l 1,12,-1
 800 1200 l 1,13,-1
 800 1400 l 1,14,-1
 1200 1400 l 1,15,-1
 1200 1200 l 1,16,-1
 1000 1200 l 1,17,-1
 1000 1000 l 1,18,-1
 800 1000 l 1,19,-1
 800 400 l 1,0,-1
EndSplineSet
EndChar

StartChar: parenright
Encoding: 41 41 12
Width: 1600
Flags: W
LayerCount: 2
Fore
SplineSet
800 1000 m 1,0,-1
 600 1000 l 1,1,-1
 600 1200 l 1,2,-1
 400 1200 l 1,3,-1
 400 1400 l 1,4,-1
 800 1400 l 1,5,-1
 800 1200 l 1,6,-1
 1000 1200 l 1,7,-1
 1000 1000 l 1,8,-1
 1200 1000 l 1,9,-1
 1200 400 l 1,10,-1
 1000 400 l 1,11,-1
 1000 200 l 1,12,-1
 800 200 l 1,13,-1
 800 0 l 1,14,-1
 400 0 l 1,15,-1
 400 200 l 1,16,-1
 600 200 l 1,17,-1
 600 400 l 1,18,-1
 800 400 l 1,19,-1
 800 1000 l 1,0,-1
EndSplineSet
EndChar

StartChar: asterisk
Encoding: 42 42 13
Width: 1600
Flags: W
LayerCount: 2
Fore
SplineSet
0 800 m 1,0,-1
 400 800 l 1,1,-1
 400 1000 l 1,2,-1
 200 1000 l 1,3,-1
 200 1200 l 1,4,-1
 600 1200 l 1,5,-1
 600 1000 l 1,6,-1
 1000 1000 l 1,7,-1
 1000 1200 l 1,8,-1
 1400 1200 l 1,9,-1
 1400 1000 l 1,10,-1
 1200 1000 l 1,11,-1
 1200 800 l 1,12,-1
 1600 800 l 1,13,-1
 1600 600 l 1,14,-1
 1200 600 l 1,15,-1
 1200 400 l 1,16,-1
 1400 400 l 1,17,-1
 1400 200 l 1,18,-1
 1000 200 l 1,19,-1
 1000 400 l 1,20,-1
 600 400 l 1,21,-1
 600 200 l 1,22,-1
 202 200 l 1,23,-1
 202 400 l 1,24,-1
 400 400 l 1,25,-1
 400 600 l 1,26,-1
 0 600 l 1,27,-1
 0 800 l 1,0,-1
EndSplineSet
EndChar

StartChar: plus
Encoding: 43 43 14
Width: 1600
Flags: W
LayerCount: 2
Fore
SplineSet
200 800 m 1,0,-1
 600 800 l 1,1,-1
 600 1200 l 1,2,-1
 1000 1200 l 1,3,-1
 1000 800 l 1,4,-1
 1400 800 l 1,5,-1
 1400 600 l 1,6,-1
 1000 600 l 1,7,-1
 1000 200 l 1,8,-1
 600 200 l 1,9,-1
 600 600 l 1,10,-1
 200 600 l 1,11,-1
 200 800 l 1,0,-1
EndSplineSet
EndChar

StartChar: comma
Encoding: 44 44 15
Width: 1600
Flags: W
LayerCount: 2
Fore
SplineSet
600 400 m 1,0,-1
 1000 400 l 1,1,-1
 1000 0 l 1,2,-1
 800 0 l 1,3,-1
 800 -200 l 1,4,-1
 400 -200 l 1,5,-1
 400 0 l 1,6,-1
 600 0 l 1,7,-1
 600 400 l 1,0,-1
EndSplineSet
EndChar

StartChar: hyphen
Encoding: 45 45 16
AltUni2: 002010.ffffffff.0
Width: 1600
Flags: W
LayerCount: 2
Fore
SplineSet
200 800 m 1,0,-1
 1400 800 l 1,1,-1
 1400 600 l 1,2,-1
 200 600 l 1,3,-1
 200 800 l 1,0,-1
EndSplineSet
EndChar

StartChar: period
Encoding: 46 46 17
Width: 1600
Flags: W
LayerCount: 2
Fore
SplineSet
600 400 m 1,0,-1
 1000 400 l 1,1,-1
 1000 0 l 1,2,-1
 600 0 l 1,3,-1
 600 400 l 1,0,-1
EndSplineSet
EndChar

StartChar: slash
Encoding: 47 47 18
Width: 1600
Flags: W
LayerCount: 2
Fore
SplineSet
200 200 m 1,0,-1
 400 200 l 1,1,-1
 400 400 l 1,2,-1
 600 400 l 1,3,-1
 600 600 l 1,4,-1
 800 600 l 1,5,-1
 800 800 l 1,6,-1
 1000 800 l 1,7,-1
 1000 1000 l 1,8,-1
 1200 1000 l 1,9,-1
 1200 1200 l 1,10,-1
 1600 1200 l 1,11,-1
 1600 1000 l 1,12,-1
 1400 1000 l 1,13,-1
 1400 800 l 1,14,-1
 1200 800 l 1,15,-1
 1200 600 l 1,16,-1
 1000 600 l 1,17,-1
 1000 400 l 1,18,-1
 800 400 l 1,19,-1
 800 200 l 1,20,-1
 600 200 l 1,21,-1
 600 0 l 1,22,-1
 200 0 l 1,23,-1
 200 200 l 1,0,-1
EndSplineSet
EndChar

StartChar: zero
Encoding: 48 48 19
Width: 1600
Flags: W
LayerCount: 2
Fore
SplineSet
200 1200 m 1,0,-1
 400 1200 l 1,1,-1
 400 1400 l 1,2,-1
 1200 1400 l 1,3,-1
 1200 1200 l 1,4,-1
 1400 1200 l 1,5,-1
 1400 200 l 1,6,-1
 1200 200 l 1,7,-1
 1200 0 l 1,8,-1
 400 0 l 1,9,-1
 400 200 l 1,10,-1
 200 200 l 1,11,-1
 200 1200 l 1,0,-1
600 600 m 1,12,-1
 600 200 l 1,13,-1
 1000 200 l 1,14,-1
 1000 800 l 1,15,-1
 800 800 l 1,16,-1
 800 1000 l 1,17,-1
 1000 1000 l 1,18,-1
 1000 1200 l 1,19,-1
 600 1200 l 1,20,-1
 600 800 l 1,21,-1
 800 800 l 1,22,-1
 800 600 l 1,23,-1
 600 600 l 1,12,-1
EndSplineSet
EndChar

StartChar: one
Encoding: 49 49 20
Width: 1600
Flags: W
LayerCount: 2
Fore
SplineSet
600 800 m 1,0,-1
 400 800 l 1,1,-1
 400 1000 l 1,2,-1
 600 1000 l 1,3,-1
 600 1400 l 1,4,-1
 1000 1400 l 1,5,-1
 1000 200 l 1,6,-1
 1400 200 l 1,7,-1
 1400 0 l 1,8,-1
 200 0 l 1,9,-1
 200 200 l 1,10,-1
 600 200 l 1,11,-1
 600 800 l 1,0,-1
EndSplineSet
EndChar

StartChar: two
Encoding: 50 50 21
Width: 1600
Flags: W
LayerCount: 2
Fore
SplineSet
1200 1400 m 1,0,-1
 1200 1200 l 1,1,-1
 1400 1200 l 1,2,-1
 1400 800 l 1,3,-1
 1200 800 l 1,4,-1
 1200 600 l 1,5,-1
 800 600 l 1,6,-1
 800 800 l 1,7,-1
 1000 800 l 1,8,-1
 1000 1200 l 1,9,-1
 600 1200 l 1,10,-1
 600 1000 l 1,11,-1
 200 1000 l 1,12,-1
 200 1200 l 1,13,-1
 400 1200 l 1,14,-1
 400 1400 l 1,15,-1
 1200 1400 l 1,0,-1
800 600 m 1,16,-1
 800 400 l 1,17,-1
 600 400 l 1,18,-1
 600 200 l 1,19,-1
 1400 200 l 1,20,-1
 1400 0 l 1,21,-1
 200 0 l 1,22,-1
 200 400 l 1,23,-1
 400 400 l 1,24,-1
 400 600 l 1,25,-1
 800 600 l 1,16,-1
EndSplineSet
EndChar

StartChar: three
Encoding: 51 51 22
Width: 1600
Flags: W
LayerCount: 2
Fore
SplineSet
200 400 m 1,0,-1
 600 400 l 1,1,-1
 600 200 l 1,2,-1
 1000 200 l 1,3,-1
 1000 600 l 1,4,-1
 600 600 l 1,5,-1
 600 800 l 1,6,-1
 1000 800 l 1,7,-1
 1000 1200 l 1,8,-1
 600 1200 l 1,9,-1
 600 1000 l 1,10,-1
 200 1000 l 1,11,-1
 200 1200 l 1,12,-1
 400 1200 l 1,13,-1
 400 1400 l 1,14,-1
 1200 1400 l 1,15,-1
 1200 1200 l 1,16,-1
 1400 1200 l 1,17,-1
 1400 800 l 1,18,-1
 1200 800 l 1,19,-1
 1200 600 l 1,20,-1
 1400 600 l 1,21,-1
 1400 200 l 1,22,-1
 1200 200 l 1,23,-1
 1200 0 l 1,24,-1
 400 0 l 1,25,-1
 400 200 l 1,26,-1
 200 200 l 1,27,-1
 200 400 l 1,0,-1
EndSplineSet
EndChar

StartChar: four
Encoding: 52 52 23
Width: 1600
Flags: W
LayerCount: 2
Fore
SplineSet
200 800 m 1,0,-1
 600 800 l 1,1,-1
 600 1000 l 1,2,-1
 800 1000 l 1,3,-1
 800 1200 l 1,4,-1
 1000 1200 l 1,5,-1
 1000 1400 l 1,6,-1
 1400 1400 l 1,7,-1
 1400 600 l 1,8,-1
 1600 600 l 1,9,-1
 1600 400 l 1,10,-1
 1400 400 l 1,11,-1
 1400 0 l 1,12,-1
 1000 0 l 1,13,-1
 1000 400 l 1,14,-1
 200 400 l 1,15,-1
 200 800 l 1,0,-1
600 600 m 1,16,-1
 1000 600 l 1,17,-1
 1000 800 l 1,18,-1
 600 800 l 1,19,-1
 600 600 l 1,16,-1
EndSplineSet
EndChar

StartChar: five
Encoding: 53 53 24
Width: 1600
Flags: W
LayerCount: 2
Fore
SplineSet
200 400 m 1,0,-1
 600 400 l 1,1,-1
 600 200 l 1,2,-1
 1000 200 l 1,3,-1
 1000 800 l 1,4,-1
 200 800 l 1,5,-1
 200 1400 l 1,6,-1
 1400 1400 l 1,7,-1
 1400 1200 l 1,8,-1
 600 1200 l 1,9,-1
 600 1000 l 1,10,-1
 1200 1000 l 1,11,-1
 1200 800 l 1,12,-1
 1400 800 l 1,13,-1
 1400 200 l 1,14,-1
 1200 200 l 1,15,-1
 1200 0 l 1,16,-1
 400 0 l 1,17,-1
 400 200 l 1,18,-1
 200 200 l 1,19,-1
 200 400 l 1,0,-1
EndSplineSet
EndChar

StartChar: six
Encoding: 54 54 25
Width: 1600
Flags: W
LayerCount: 2
Fore
SplineSet
200 1200 m 1,0,-1
 400 1200 l 1,1,-1
 400 1400 l 1,2,-1
 1200 1400 l 1,3,-1
 1200 1200 l 1,4,-1
 1400 1200 l 1,5,-1
 1400 1000 l 1,6,-1
 1000 1000 l 1,7,-1
 1000 1200 l 1,8,-1
 600 1200 l 1,9,-1
 600 800 l 1,10,-1
 1200 800 l 1,11,-1
 1200 600 l 1,12,-1
 1400 600 l 1,13,-1
 1400 200 l 1,14,-1
 1200 200 l 1,15,-1
 1200 0 l 1,16,-1
 400 0 l 1,17,-1
 400 200 l 1,18,-1
 200 200 l 1,19,-1
 200 1200 l 1,0,-1
600 600 m 1,20,-1
 600 200 l 1,21,-1
 1000 200 l 1,22,-1
 1000 600 l 1,23,-1
 600 600 l 1,20,-1
EndSplineSet
EndChar

StartChar: seven
Encoding: 55 55 26
Width: 1600
Flags: W
LayerCount: 2
Fore
SplineSet
200 1400 m 1,0,-1
 1400 1400 l 1,1,-1
 1400 1000 l 1,2,-1
 1200 1000 l 1,3,-1
 1200 800 l 1,4,-1
 1000 800 l 1,5,-1
 1000 0 l 1,6,-1
 600 0 l 1,7,-1
 600 800 l 1,8,-1
 800 800 l 1,9,-1
 800 1000 l 1,10,-1
 1000 1000 l 1,11,-1
 1000 1200 l 1,12,-1
 600 1200 l 1,13,-1
 600 1000 l 1,14,-1
 200 1000 l 1,15,-1
 200 1400 l 1,0,-1
EndSplineSet
EndChar

StartChar: eight
Encoding: 56 56 27
Width: 1600
Flags: W
LayerCount: 2
Fore
SplineSet
200 600 m 1,0,-1
 400 600 l 1,1,-1
 400 800 l 1,2,-1
 200 800 l 1,3,-1
 200 1200 l 1,4,-1
 400 1200 l 1,5,-1
 400 1400 l 1,6,-1
 1200 1400 l 1,7,-1
 1200 1200 l 1,8,-1
 1400 1200 l 1,9,-1
 1400 800 l 1,10,-1
 1200 800 l 1,11,-1
 1200 600 l 1,12,-1
 1400 600 l 1,13,-1
 1400 200 l 1,14,-1
 1200 200 l 1,15,-1
 1200 0 l 1,16,-1
 400 0 l 1,17,-1
 400 200 l 1,18,-1
 200 200 l 1,19,-1
 200 600 l 1,0,-1
600 600 m 1,20,-1
 600 200 l 1,21,-1
 1000 200 l 1,22,-1
 1000 600 l 1,23,-1
 600 600 l 1,20,-1
600 1200 m 1,24,-1
 600 800 l 1,25,-1
 1000 800 l 1,26,-1
 1000 1200 l 1,27,-1
 600 1200 l 1,24,-1
EndSplineSet
EndChar

StartChar: nine
Encoding: 57 57 28
Width: 1600
Flags: W
LayerCount: 2
Fore
SplineSet
200 400 m 1,0,-1
 600 400 l 1,1,-1
 600 200 l 1,2,-1
 1000 200 l 1,3,-1
 1000 600 l 1,4,-1
 400 600 l 1,5,-1
 400 800 l 1,6,-1
 200 800 l 1,7,-1
 200 1200 l 1,8,-1
 400 1200 l 1,9,-1
 400 1400 l 1,10,-1
 1200 1400 l 1,11,-1
 1200 1200 l 1,12,-1
 1400 1200 l 1,13,-1
 1400 200 l 1,14,-1
 1200 200 l 1,15,-1
 1200 0 l 1,16,-1
 400 0 l 1,17,-1
 400 200 l 1,18,-1
 200 200 l 1,19,-1
 200 400 l 1,0,-1
600 1200 m 1,20,-1
 600 800 l 1,21,-1
 1000 800 l 1,22,-1
 1000 1200 l 1,23,-1
 600 1200 l 1,20,-1
EndSplineSet
EndChar

StartChar: colon
Encoding: 58 58 29
Width: 1600
Flags: W
LayerCount: 2
Fore
SplineSet
600 1400 m 1,0,-1
 1000 1400 l 1,1,-1
 1000 1000 l 1,2,-1
 600 1000 l 1,3,-1
 600 1400 l 1,0,-1
600 400 m 1,4,-1
 1000 400 l 1,5,-1
 1000 0 l 1,6,-1
 600 0 l 1,7,-1
 600 400 l 1,4,-1
EndSplineSet
EndChar

StartChar: semicolon
Encoding: 59 59 30
Width: 1600
Flags: W
LayerCount: 2
Fore
SplineSet
400 -200 m 1,0,-1
 400 0 l 1,1,-1
 600 0 l 1,2,-1
 600 400 l 1,3,-1
 1000 400 l 1,4,-1
 1000 0 l 1,5,-1
 800 0 l 1,6,-1
 800 -200 l 1,7,-1
 400 -200 l 1,0,-1
600 1400 m 1,8,-1
 1000 1400 l 1,9,-1
 1000 1000 l 1,10,-1
 600 1000 l 1,11,-1
 600 1400 l 1,8,-1
EndSplineSet
EndChar

StartChar: less
Encoding: 60 60 31
Width: 1600
Flags: W
LayerCount: 2
Fore
SplineSet
1400 1400 m 1,0,-1
 1400 1200 l 1,1,-1
 1000 1200 l 1,2,-1
 1000 1000 l 1,3,-1
 800 1000 l 1,4,-1
 800 800 l 1,5,-1
 600 800 l 1,6,-1
 600 600 l 1,7,-1
 800 600 l 1,8,-1
 800 400 l 1,9,-1
 1000 400 l 1,10,-1
 1000 200 l 1,11,-1
 1400 200 l 1,12,-1
 1400 0 l 1,13,-1
 800 0 l 1,14,-1
 800 200 l 1,15,-1
 600 200 l 1,16,-1
 600 400 l 1,17,-1
 400 400 l 1,18,-1
 400 600 l 1,19,-1
 200 600 l 1,20,-1
 200 800 l 1,21,-1
 400 800 l 1,22,-1
 400 1000 l 1,23,-1
 600 1000 l 1,24,-1
 600 1200 l 1,25,-1
 800 1200 l 1,26,-1
 800 1400 l 1,27,-1
 1400 1400 l 1,0,-1
EndSplineSet
EndChar

StartChar: equal
Encoding: 61 61 32
Width: 1600
Flags: W
LayerCount: 2
Fore
SplineSet
200 1000 m 1,0,-1
 1400 1000 l 1,1,-1
 1400 800 l 1,2,-1
 200 800 l 1,3,-1
 200 1000 l 1,0,-1
200 600 m 1,4,-1
 1400 600 l 1,5,-1
 1400 400 l 1,6,-1
 200 400 l 1,7,-1
 200 600 l 1,4,-1
EndSplineSet
EndChar

StartChar: greater
Encoding: 62 62 33
Width: 1600
Flags: W
LayerCount: 2
Fore
SplineSet
800 1400 m 1,0,-1
 800 1200 l 1,1,-1
 1000 1200 l 1,2,-1
 1000 1000 l 1,3,-1
 1200 1000 l 1,4,-1
 1200 800 l 1,5,-1
 1400 800 l 1,6,-1
 1400 600 l 1,7,-1
 1200 600 l 1,8,-1
 1200 400 l 1,9,-1
 1000 400 l 1,10,-1
 1000 200 l 1,11,-1
 800 200 l 1,12,-1
 800 0 l 1,13,-1
 200 0 l 1,14,-1
 200 200 l 1,15,-1
 600 200 l 1,16,-1
 600 400 l 1,17,-1
 800 400 l 1,18,-1
 800 600 l 1,19,-1
 1000 600 l 1,20,-1
 1000 800 l 1,21,-1
 800 800 l 1,22,-1
 800 1000 l 1,23,-1
 600 1000 l 1,24,-1
 600 1200 l 1,25,-1
 200 1200 l 1,26,-1
 200 1400 l 1,27,-1
 800 1400 l 1,0,-1
EndSplineSet
EndChar

StartChar: question
Encoding: 63 63 34
Width: 1600
Flags: W
LayerCount: 2
Fore
SplineSet
200 1200 m 1,0,-1
 400 1200 l 1,1,-1
 400 1400 l 1,2,-1
 1200 1400 l 1,3,-1
 1200 1200 l 1,4,-1
 1400 1200 l 1,5,-1
 1400 800 l 1,6,-1
 1200 800 l 1,7,-1
 1200 600 l 1,8,-1
 1000 600 l 1,9,-1
 1000 400 l 1,10,-1
 600 400 l 1,11,-1
 600 600 l 1,12,-1
 800 600 l 1,13,-1
 800 800 l 1,14,-1
 1000 800 l 1,15,-1
 1000 1200 l 1,16,-1
 600 1200 l 1,17,-1
 600 1000 l 1,18,-1
 200 1000 l 1,19,-1
 200 1200 l 1,0,-1
600 200 m 1,20,-1
 1000 200 l 1,21,-1
 1000 0 l 1,22,-1
 600 0 l 1,23,-1
 600 200 l 1,20,-1
EndSplineSet
EndChar

StartChar: at
Encoding: 64 64 35
Width: 1600
Flags: W
LayerCount: 2
Fore
SplineSet
200 1200 m 1,0,-1
 400 1200 l 1,1,-1
 400 1400 l 1,2,-1
 1200 1400 l 1,3,-1
 1200 1200 l 1,4,-1
 1400 1200 l 1,5,-1
 1400 600 l 1,6,-1
 800 600 l 1,7,-1
 800 1000 l 1,8,-1
 1000 1000 l 1,9,-1
 1000 1200 l 1,10,-1
 600 1200 l 1,11,-1
 600 200 l 1,12,-1
 1200 200 l 1,13,-1
 1200 0 l 1,14,-1
 400 0 l 1,15,-1
 400 200 l 1,16,-1
 200 200 l 1,17,-1
 200 1200 l 1,0,-1
1200 200 m 1,18,-1
 1200 400 l 1,19,-1
 1400 400 l 1,20,-1
 1400 200 l 1,21,-1
 1200 200 l 1,18,-1
EndSplineSet
EndChar

StartChar: A
Encoding: 65 65 36
Width: 1600
Flags: W
LayerCount: 2
Fore
SplineSet
200 1000 m 1,0,-1
 400 1000 l 1,1,-1
 400 1200 l 1,2,-1
 600 1200 l 1,3,-1
 600 1400 l 1,4,-1
 1000 1400 l 1,5,-1
 1000 1200 l 1,6,-1
 1200 1200 l 1,7,-1
 1200 1000 l 1,8,-1
 1400 1000 l 1,9,-1
 1400 0 l 1,10,-1
 1000 0 l 1,11,-1
 1000 600 l 1,12,-1
 600 600 l 1,13,-1
 600 0 l 1,14,-1
 200 0 l 1,15,-1
 200 1000 l 1,0,-1
600 1000 m 1,16,-1
 600 800 l 1,17,-1
 1000 800 l 1,18,-1
 1000 1000 l 1,19,-1
 600 1000 l 1,16,-1
EndSplineSet
EndChar

StartChar: B
Encoding: 66 66 37
Width: 1600
Flags: W
LayerCount: 2
Fore
SplineSet
200 1400 m 1,0,-1
 1200 1400 l 1,1,-1
 1200 1200 l 1,2,-1
 1400 1200 l 1,3,-1
 1400 800 l 1,4,-1
 1200 800 l 1,5,-1
 1200 600 l 1,6,-1
 1400 600 l 1,7,-1
 1400 200 l 1,8,-1
 1200 200 l 1,9,-1
 1200 0 l 1,10,-1
 200 0 l 1,11,-1
 200 1400 l 1,0,-1
600 600 m 1,12,-1
 600 200 l 1,13,-1
 1000 200 l 1,14,-1
 1000 600 l 1,15,-1
 600 600 l 1,12,-1
600 1200 m 1,16,-1
 600 800 l 1,17,-1
 1000 800 l 1,18,-1
 1000 1200 l 1,19,-1
 600 1200 l 1,16,-1
EndSplineSet
EndChar

StartChar: C
Encoding: 67 67 38
Width: 1600
Flags: W
LayerCount: 2
Fore
SplineSet
200 1200 m 1,0,-1
 400 1200 l 1,1,-1
 400 1400 l 1,2,-1
 1200 1400 l 1,3,-1
 1200 1200 l 1,4,-1
 1400 1200 l 1,5,-1
 1400 1000 l 1,6,-1
 1000 1000 l 1,7,-1
 1000 1200 l 1,8,-1
 600 1200 l 1,9,-1
 600 200 l 1,10,-1
 1000 200 l 1,11,-1
 1000 400 l 1,12,-1
 1400 400 l 1,13,-1
 1400 200 l 1,14,-1
 1200 200 l 1,15,-1
 1200 0 l 1,16,-1
 400 0 l 1,17,-1
 400 200 l 1,18,-1
 200 200 l 1,19,-1
 200 1200 l 1,0,-1
EndSplineSet
EndChar

StartChar: D
Encoding: 68 68 39
Width: 1600
Flags: W
LayerCount: 2
Fore
SplineSet
200 1400 m 1,0,-1
 1000 1400 l 1,1,-1
 1000 1200 l 1,2,-1
 1200 1200 l 1,3,-1
 1200 1000 l 1,4,-1
 1400 1000 l 1,5,-1
 1400 400 l 1,6,-1
 1200 400 l 1,7,-1
 1200 200 l 1,8,-1
 1000 200 l 1,9,-1
 1000 0 l 1,10,-1
 200 0 l 1,11,-1
 200 1400 l 1,0,-1
600 1200 m 1,12,-1
 600 200 l 1,13,-1
 800 200 l 1,14,-1
 800 400 l 1,15,-1
 1000 400 l 1,16,-1
 1000 1000 l 1,17,-1
 800 1000 l 1,18,-1
 800 1200 l 1,19,-1
 600 1200 l 1,12,-1
EndSplineSet
EndChar

StartChar: E
Encoding: 69 69 40
Width: 1600
Flags: W
LayerCount: 2
Fore
SplineSet
200 1400 m 1,0,-1
 1400 1400 l 1,1,-1
 1400 1200 l 1,2,-1
 600 1200 l 1,3,-1
 600 800 l 1,4,-1
 1000 800 l 1,5,-1
 1000 600 l 1,6,-1
 600 600 l 1,7,-1
 600 200 l 1,8,-1
 1400 200 l 1,9,-1
 1400 0 l 1,10,-1
 200 0 l 1,11,-1
 200 1400 l 1,0,-1
EndSplineSet
EndChar

StartChar: F
Encoding: 70 70 41
Width: 1600
Flags: W
LayerCount: 2
Fore
SplineSet
200 1400 m 1,0,-1
 1400 1400 l 1,1,-1
 1400 1200 l 1,2,-1
 600 1200 l 1,3,-1
 600 800 l 1,4,-1
 1000 800 l 1,5,-1
 1000 600 l 1,6,-1
 600 600 l 1,7,-1
 600 0 l 1,8,-1
 200 0 l 1,9,-1
 200 1400 l 1,0,-1
EndSplineSet
EndChar

StartChar: G
Encoding: 71 71 42
Width: 1600
Flags: W
LayerCount: 2
Fore
SplineSet
200 1200 m 1,0,-1
 400 1200 l 1,1,-1
 400 1400 l 1,2,-1
 1200 1400 l 1,3,-1
 1200 1200 l 1,4,-1
 1400 1200 l 1,5,-1
 1400 1000 l 1,6,-1
 1000 1000 l 1,7,-1
 1000 1200 l 1,8,-1
 600 1200 l 1,9,-1
 600 200 l 1,10,-1
 1000 200 l 1,11,-1
 1000 600 l 1,12,-1
 800 600 l 1,13,-1
 800 800 l 1,14,-1
 1400 800 l 1,15,-1
 1400 200 l 1,16,-1
 1200 200 l 1,17,-1
 1200 0 l 1,18,-1
 400 0 l 1,19,-1
 400 200 l 1,20,-1
 200 200 l 1,21,-1
 200 1200 l 1,0,-1
EndSplineSet
EndChar

StartChar: H
Encoding: 72 72 43
Width: 1600
Flags: W
LayerCount: 2
Fore
SplineSet
200 1400 m 1,0,-1
 600 1400 l 1,1,-1
 600 800 l 1,2,-1
 1000 800 l 1,3,-1
 1000 1400 l 1,4,-1
 1400 1400 l 1,5,-1
 1400 0 l 1,6,-1
 1000 0 l 1,7,-1
 1000 600 l 1,8,-1
 600 600 l 1,9,-1
 600 0 l 1,10,-1
 200 0 l 1,11,-1
 200 1400 l 1,0,-1
EndSplineSet
EndChar

StartChar: I
Encoding: 73 73 44
Width: 1600
Flags: W
LayerCount: 2
Fore
SplineSet
600 1200 m 1,0,-1
 400 1200 l 1,1,-1
 400 1400 l 1,2,-1
 1200 1400 l 1,3,-1
 1200 1200 l 1,4,-1
 1000 1200 l 1,5,-1
 1000 200 l 1,6,-1
 1200 200 l 1,7,-1
 1200 0 l 1,8,-1
 400 0 l 1,9,-1
 400 200 l 1,10,-1
 600 200 l 1,11,-1
 600 1200 l 1,0,-1
EndSplineSet
EndChar

StartChar: J
Encoding: 74 74 45
Width: 1600
Flags: W
LayerCount: 2
Fore
SplineSet
200 400 m 1,0,-1
 600 400 l 1,1,-1
 600 200 l 1,2,-1
 800 200 l 1,3,-1
 800 1200 l 1,4,-1
 600 1200 l 1,5,-1
 600 1400 l 1,6,-1
 1400 1400 l 1,7,-1
 1400 1200 l 1,8,-1
 1200 1200 l 1,9,-1
 1200 200 l 1,10,-1
 1000 200 l 1,11,-1
 1000 0 l 1,12,-1
 400 0 l 1,13,-1
 403 208 l 1,14,-1
 200 208 l 1,15,-1
 200 400 l 1,0,-1
EndSplineSet
EndChar

StartChar: K
Encoding: 75 75 46
Width: 1600
Flags: W
LayerCount: 2
Fore
SplineSet
200 1400 m 1,0,-1
 600 1400 l 1,1,-1
 600 1000 l 1,2,-1
 800 1000 l 1,3,-1
 800 1200 l 1,4,-1
 1000 1200 l 1,5,-1
 1000 1400 l 1,6,-1
 1400 1400 l 1,7,-1
 1400 1200 l 1,8,-1
 1200 1200 l 1,9,-1
 1200 1000 l 1,10,-1
 1000 1000 l 1,11,-1
 1000 800 l 1,12,-1
 800 800 l 1,13,-1
 800 600 l 1,14,-1
 1000 600 l 1,15,-1
 1000 400 l 1,16,-1
 1200 400 l 1,17,-1
 1200 200 l 1,18,-1
 1400 200 l 1,19,-1
 1400 0 l 1,20,-1
 1000 0 l 1,21,-1
 1000 200 l 1,22,-1
 800 200 l 1,23,-1
 800 400 l 1,24,-1
 600 400 l 1,25,-1
 600 0 l 1,26,-1
 200 0 l 1,27,-1
 200 1400 l 1,0,-1
EndSplineSet
EndChar

StartChar: L
Encoding: 76 76 47
Width: 1600
Flags: W
LayerCount: 2
Fore
SplineSet
200 1400 m 1,0,-1
 600 1400 l 1,1,-1
 600 200 l 1,2,-1
 1400 200 l 1,3,-1
 1400 0 l 1,4,-1
 200 0 l 1,5,-1
 200 1400 l 1,0,-1
EndSplineSet
EndChar

StartChar: M
Encoding: 77 77 48
Width: 1600
Flags: W
LayerCount: 2
Fore
SplineSet
200 1400 m 1,0,-1
 600 1400 l 1,1,-1
 600 1200 l 1,2,-1
 800 1200 l 1,3,-1
 800 1000 l 1,4,-1
 1000 1000 l 1,5,-1
 1000 1200 l 1,6,-1
 1200 1200 l 1,7,-1
 1200 1400 l 1,8,-1
 1600 1400 l 1,9,-1
 1600 0 l 1,10,-1
 1200 0 l 1,11,-1
 1200 800 l 1,12,-1
 1000 800 l 1,13,-1
 1000 600 l 1,14,-1
 800 600 l 1,15,-1
 800 800 l 1,16,-1
 600 800 l 1,17,-1
 600 0 l 1,18,-1
 200 0 l 1,19,-1
 200 1400 l 1,0,-1
EndSplineSet
EndChar

StartChar: N
Encoding: 78 78 49
Width: 1600
Flags: W
LayerCount: 2
Fore
SplineSet
200 1400 m 1,0,-1
 600 1400 l 1,1,-1
 600 1200 l 1,2,-1
 800 1200 l 1,3,-1
 800 1000 l 1,4,-1
 1000 1000 l 1,5,-1
 1000 1400 l 1,6,-1
 1400 1400 l 1,7,-1
 1400 0 l 1,8,-1
 1000 0 l 1,9,-1
 1000 400 l 1,10,-1
 800 400 l 1,11,-1
 800 600 l 1,12,-1
 600 600 l 1,13,-1
 600 0 l 1,14,-1
 200 0 l 1,15,-1
 200 1400 l 1,0,-1
EndSplineSet
EndChar

StartChar: O
Encoding: 79 79 50
Width: 1600
Flags: W
LayerCount: 2
Fore
SplineSet
200 1200 m 1,0,-1
 400 1200 l 1,1,-1
 400 1400 l 1,2,-1
 1200 1400 l 1,3,-1
 1200 1200 l 1,4,-1
 1400 1200 l 1,5,-1
 1400 200 l 1,6,-1
 1200 200 l 1,7,-1
 1200 0 l 1,8,-1
 400 0 l 1,9,-1
 400 200 l 1,10,-1
 200 200 l 1,11,-1
 200 1200 l 1,0,-1
600 1200 m 1,12,-1
 600 200 l 1,13,-1
 1000 200 l 1,14,-1
 1000 1200 l 1,15,-1
 600 1200 l 1,12,-1
EndSplineSet
EndChar

StartChar: P
Encoding: 80 80 51
Width: 1600
Flags: W
LayerCount: 2
Fore
SplineSet
200 1400 m 1,0,-1
 1200 1400 l 1,1,-1
 1200 1200 l 1,2,-1
 1400 1200 l 1,3,-1
 1400 800 l 1,4,-1
 1200 800 l 1,5,-1
 1200 600 l 1,6,-1
 600 600 l 1,7,-1
 600 0 l 1,8,-1
 200 0 l 1,9,-1
 200 1400 l 1,0,-1
600 1200 m 1,10,-1
 600 800 l 1,11,-1
 1000 800 l 1,12,-1
 1000 1200 l 1,13,-1
 600 1200 l 1,10,-1
EndSplineSet
EndChar

StartChar: Q
Encoding: 81 81 52
Width: 1600
Flags: W
LayerCount: 2
Fore
SplineSet
400 1200 m 1,0,-1
 400 1400 l 1,1,-1
 1200 1400 l 1,2,-1
 1200 1200 l 1,3,-1
 1400 1200 l 1,4,-1
 1400 400 l 1,5,-1
 1200 400 l 1,6,-1
 1200 200 l 1,7,-1
 1400 200 l 1,8,-1
 1400 0 l 1,9,-1
 800 0 l 1,10,-1
 800 200 l 1,11,-1
 400 200 l 1,12,-1
 400 400 l 1,13,-1
 200 400 l 1,14,-1
 200 1200 l 1,15,-1
 400 1200 l 1,0,-1
1000 400 m 1,16,-1
 1000 1200 l 1,17,-1
 600 1200 l 1,18,-1
 600 400 l 1,19,-1
 1000 400 l 1,16,-1
EndSplineSet
EndChar

StartChar: R
Encoding: 82 82 53
Width: 1600
Flags: W
LayerCount: 2
Fore
SplineSet
200 1400 m 1,0,-1
 1200 1400 l 1,1,-1
 1200 1200 l 1,2,-1
 1400 1200 l 1,3,-1
 1400 800 l 1,4,-1
 1200 800 l 1,5,-1
 1200 600 l 1,6,-1
 1000 600 l 1,7,-1
 1000 400 l 1,8,-1
 1200 400 l 1,9,-1
 1200 200 l 1,10,-1
 1400 200 l 1,11,-1
 1400 0 l 1,12,-1
 1000 0 l 1,13,-1
 1000 200 l 1,14,-1
 800 200 l 1,15,-1
 800 400 l 1,16,-1
 600 400 l 1,17,-1
 600 0 l 1,18,-1
 200 0 l 1,19,-1
 200 1400 l 1,0,-1
600 1200 m 1,20,-1
 600 800 l 1,21,-1
 1000 800 l 1,22,-1
 1000 1200 l 1,23,-1
 600 1200 l 1,20,-1
EndSplineSet
EndChar

StartChar: S
Encoding: 83 83 54
Width: 1600
Flags: W
LayerCount: 2
Fore
SplineSet
200 400 m 1,0,-1
 600 400 l 1,1,-1
 600 200 l 1,2,-1
 1000 200 l 1,3,-1
 1000 600 l 1,4,-1
 400 600 l 1,5,-1
 400 800 l 1,6,-1
 200 800 l 1,7,-1
 200 1200 l 1,8,-1
 400 1200 l 1,9,-1
 400 1400 l 1,10,-1
 1200 1400 l 1,11,-1
 1200 1200 l 1,12,-1
 1400 1200 l 1,13,-1
 1400 1000 l 1,14,-1
 1000 1000 l 1,15,-1
 1000 1200 l 1,16,-1
 600 1200 l 1,17,-1
 600 800 l 1,18,-1
 1200 800 l 1,19,-1
 1200 600 l 1,20,-1
 1400 600 l 1,21,-1
 1400 200 l 1,22,-1
 1200 200 l 1,23,-1
 1200 0 l 1,24,-1
 400 0 l 1,25,-1
 400 200 l 1,26,-1
 200 200 l 1,27,-1
 200 400 l 1,0,-1
EndSplineSet
EndChar

StartChar: T
Encoding: 84 84 55
Width: 1600
Flags: W
LayerCount: 2
Fore
SplineSet
200 1400 m 1,0,-1
 1400 1400 l 1,1,-1
 1400 1200 l 1,2,-1
 1000 1200 l 1,3,-1
 1000 0 l 1,4,-1
 600 0 l 1,5,-1
 600 1200 l 1,6,-1
 200 1200 l 1,7,-1
 200 1400 l 1,0,-1
EndSplineSet
EndChar

StartChar: U
Encoding: 85 85 56
Width: 1600
Flags: W
LayerCount: 2
Fore
SplineSet
200 1400 m 1,0,-1
 600 1400 l 1,1,-1
 600 200 l 1,2,-1
 1000 200 l 1,3,-1
 1000 1400 l 1,4,-1
 1400 1400 l 1,5,-1
 1400 200 l 1,6,-1
 1200 200 l 1,7,-1
 1200 0 l 1,8,-1
 400 0 l 1,9,-1
 400 200 l 1,10,-1
 200 200 l 1,11,-1
 200 1400 l 1,0,-1
EndSplineSet
EndChar

StartChar: V
Encoding: 86 86 57
Width: 1600
Flags: W
LayerCount: 2
Fore
SplineSet
200 1400 m 1,0,-1
 600 1400 l 1,1,-1
 600 400 l 1,2,-1
 1000 400 l 1,3,-1
 1000 1400 l 1,4,-1
 1400 1400 l 1,5,-1
 1400 400 l 1,6,-1
 1200 400 l 1,7,-1
 1200 200 l 1,8,-1
 1000 200 l 1,9,-1
 1000 0 l 1,10,-1
 600 0 l 1,11,-1
 600 200 l 1,12,-1
 400 200 l 1,13,-1
 400 400 l 1,14,-1
 200 400 l 1,15,-1
 200 1400 l 1,0,-1
EndSplineSet
EndChar

StartChar: W
Encoding: 87 87 58
Width: 1600
Flags: W
LayerCount: 2
Fore
SplineSet
200 1400 m 1,0,-1
 600 1400 l 1,1,-1
 600 600 l 1,2,-1
 800 600 l 1,3,-1
 800 800 l 1,4,-1
 1000 800 l 1,5,-1
 1000 600 l 1,6,-1
 1200 600 l 1,7,-1
 1200 1400 l 1,8,-1
 1600 1400 l 1,9,-1
 1600 0 l 1,10,-1
 1200 0 l 1,11,-1
 1200 200 l 1,12,-1
 1000 200 l 1,13,-1
 1000 400 l 1,14,-1
 800 400 l 1,15,-1
 800 200 l 1,16,-1
 600 200 l 1,17,-1
 600 0 l 1,18,-1
 200 0 l 1,19,-1
 200 1400 l 1,0,-1
EndSplineSet
EndChar

StartChar: X
Encoding: 88 88 59
Width: 1600
Flags: W
LayerCount: 2
Fore
SplineSet
200 400 m 1,0,-1
 400 400 l 1,1,-1
 400 600 l 1,2,-1
 600 600 l 1,3,-1
 600 800 l 1,4,-1
 400 800 l 1,5,-1
 400 1000 l 1,6,-1
 200 1000 l 1,7,-1
 200 1400 l 1,8,-1
 600 1400 l 1,9,-1
 600 1000 l 1,10,-1
 1000 1000 l 1,11,-1
 1000 1400 l 1,12,-1
 1400 1400 l 1,13,-1
 1400 1000 l 1,14,-1
 1200 1000 l 1,15,-1
 1200 800 l 1,16,-1
 1000 800 l 1,17,-1
 1000 600 l 1,18,-1
 1200 600 l 1,19,-1
 1200 400 l 1,20,-1
 1400 400 l 1,21,-1
 1400 0 l 1,22,-1
 1000 0 l 1,23,-1
 1000 400 l 1,24,-1
 600 400 l 1,25,-1
 600 0 l 1,26,-1
 200 0 l 1,27,-1
 200 400 l 1,0,-1
EndSplineSet
EndChar

StartChar: Y
Encoding: 89 89 60
Width: 1600
Flags: W
LayerCount: 2
Fore
SplineSet
200 1400 m 1,0,-1
 600 1400 l 1,1,-1
 600 800 l 1,2,-1
 1000 800 l 1,3,-1
 1000 1400 l 1,4,-1
 1400 1400 l 1,5,-1
 1400 800 l 1,6,-1
 1200 800 l 1,7,-1
 1200 600 l 1,8,-1
 1000 600 l 1,9,-1
 1000 0 l 1,10,-1
 600 0 l 1,11,-1
 600 600 l 1,12,-1
 400 600 l 1,13,-1
 400 800 l 1,14,-1
 200 800 l 1,15,-1
 200 1400 l 1,0,-1
EndSplineSet
EndChar

StartChar: Z
Encoding: 90 90 61
Width: 1600
Flags: W
LayerCount: 2
Fore
SplineSet
200 400 m 1,0,-1
 400 400 l 1,1,-1
 400 600 l 1,2,-1
 600 600 l 1,3,-1
 600 800 l 1,4,-1
 800 800 l 1,5,-1
 800 1000 l 1,6,-1
 1000 1000 l 1,7,-1
 1000 1200 l 1,8,-1
 200 1200 l 1,9,-1
 200 1400 l 1,10,-1
 1400 1400 l 1,11,-1
 1400 1000 l 1,12,-1
 1200 1000 l 1,13,-1
 1200 800 l 1,14,-1
 1000 800 l 1,15,-1
 1000 600 l 1,16,-1
 800 600 l 1,17,-1
 800 400 l 1,18,-1
 600 400 l 1,19,-1
 600 200 l 1,20,-1
 1400 200 l 1,21,-1
 1400 0 l 1,22,-1
 200 0 l 1,23,-1
 200 400 l 1,0,-1
EndSplineSet
EndChar

StartChar: bracketleft
Encoding: 91 91 62
Width: 1600
Flags: W
LayerCount: 2
Fore
SplineSet
400 1400 m 1,0,-1
 1200 1400 l 1,1,-1
 1200 1200 l 1,2,-1
 800 1200 l 1,3,-1
 800 200 l 1,4,-1
 1200 200 l 1,5,-1
 1200 0 l 1,6,-1
 400 0 l 1,7,-1
 400 1400 l 1,0,-1
EndSplineSet
EndChar

StartChar: backslash
Encoding: 92 92 63
Width: 1600
Flags: W
LayerCount: 2
Fore
SplineSet
1600 0 m 1,0,-1
 1200 0 l 1,1,-1
 1200 200 l 1,2,-1
 1000 200 l 1,3,-1
 1000 400 l 1,4,-1
 800 400 l 1,5,-1
 800 600 l 1,6,-1
 600 600 l 1,7,-1
 600 800 l 1,8,-1
 400 800 l 1,9,-1
 400 1000 l 1,10,-1
 200 1000 l 1,11,-1
 200 1200 l 1,12,-1
 600 1200 l 1,13,-1
 600 1000 l 1,14,-1
 800 1000 l 1,15,-1
 800 800 l 1,16,-1
 1000 800 l 1,17,-1
 1000 600 l 1,18,-1
 1200 600 l 1,19,-1
 1200 400 l 1,20,-1
 1400 400 l 1,21,-1
 1400 200 l 1,22,-1
 1600 200 l 1,23,-1
 1600 0 l 1,0,-1
EndSplineSet
EndChar

StartChar: bracketright
Encoding: 93 93 64
Width: 1600
Flags: W
LayerCount: 2
Fore
SplineSet
1200 0 m 1,0,-1
 400 0 l 1,1,-1
 400 200 l 1,2,-1
 800 200 l 1,3,-1
 800 1200 l 1,4,-1
 400 1200 l 1,5,-1
 400 1400 l 1,6,-1
 1200 1400 l 1,7,-1
 1200 0 l 1,0,-1
EndSplineSet
EndChar

StartChar: asciicircum
Encoding: 94 94 65
Width: 1600
Flags: W
LayerCount: 2
Fore
SplineSet
200 1000 m 1,0,-1
 400 1000 l 1,1,-1
 400 1200 l 1,2,-1
 600 1200 l 1,3,-1
 600 1400 l 1,4,-1
 1000 1400 l 1,5,-1
 1000 1200 l 1,6,-1
 1200 1200 l 1,7,-1
 1200 1000 l 1,8,-1
 1400 1000 l 1,9,-1
 1400 800 l 1,10,-1
 1000 800 l 1,11,-1
 1000 0 l 1,12,-1
 600 0 l 1,13,-1
 600 800 l 1,14,-1
 200 800 l 1,15,-1
 200 1000 l 1,0,-1
EndSplineSet
EndChar

StartChar: underscore
Encoding: 95 95 66
Width: 1600
Flags: W
LayerCount: 2
Fore
SplineSet
0 200 m 1,0,-1
 1600 200 l 1,1,-1
 1600 0 l 1,2,-1
 0 0 l 1,3,-1
 0 200 l 1,0,-1
EndSplineSet
EndChar

StartChar: grave
Encoding: 96 96 67
Width: 1600
Flags: W
LayerCount: 2
Fore
SplineSet
1000 1400 m 1,0,-1
 1000 1200 l 1,1,-1
 1200 1200 l 1,2,-1
 1200 1000 l 1,3,-1
 1400 1000 l 1,4,-1
 1400 800 l 1,5,-1
 1000 800 l 1,6,-1
 1000 1000 l 1,7,-1
 800 1000 l 1,8,-1
 800 1200 l 1,9,-1
 600 1200 l 1,10,-1
 600 1400 l 1,11,-1
 1000 1400 l 1,0,-1
EndSplineSet
EndChar

StartChar: a
Encoding: 97 97 68
Width: 1600
Flags: W
LayerCount: 2
Fore
SplineSet
200 400 m 1,0,-1
 400 400 l 1,1,-1
 400 600 l 1,2,-1
 1000 600 l 1,3,-1
 1000 800 l 1,4,-1
 400 800 l 1,5,-1
 400 1000 l 1,6,-1
 1200 1000 l 1,7,-1
 1200 800 l 1,8,-1
 1400 800 l 1,9,-1
 1400 0 l 1,10,-1
 400 0 l 1,11,-1
 400 200 l 1,12,-1
 200 200 l 1,13,-1
 200 400 l 1,0,-1
600 400 m 1,14,-1
 600 200 l 1,15,-1
 1000 200 l 1,16,-1
 1000 400 l 1,17,-1
 600 400 l 1,14,-1
EndSplineSet
EndChar

StartChar: b
Encoding: 98 98 69
Width: 1600
Flags: W
LayerCount: 2
Fore
SplineSet
200 1200 m 1,0,-1
 600 1200 l 1,1,-1
 600 800 l 1,2,-1
 1200 800 l 1,3,-1
 1200 600 l 1,4,-1
 1400 600 l 1,5,-1
 1400 200 l 1,6,-1
 1200 200 l 1,7,-1
 1200 0 l 1,8,-1
 200 0 l 1,9,-1
 200 1200 l 1,0,-1
600 600 m 1,10,-1
 600 200 l 1,11,-1
 1000 200 l 1,12,-1
 1000 600 l 1,13,-1
 600 600 l 1,10,-1
EndSplineSet
EndChar

StartChar: c
Encoding: 99 99 70
Width: 1600
Flags: W
LayerCount: 2
Fore
SplineSet
200 800 m 1,0,-1
 400 800 l 1,1,-1
 400 1000 l 1,2,-1
 1200 1000 l 1,3,-1
 1200 800 l 1,4,-1
 600 800 l 1,5,-1
 600 200 l 1,6,-1
 1200 200 l 1,7,-1
 1200 0 l 1,8,-1
 400 0 l 1,9,-1
 400 200 l 1,10,-1
 200 200 l 1,11,-1
 200 800 l 1,0,-1
EndSplineSet
EndChar

StartChar: d
Encoding: 100 100 71
Width: 1600
Flags: W
LayerCount: 2
Fore
SplineSet
1400 0 m 1,0,-1
 400 0 l 1,1,-1
 400 200 l 1,2,-1
 200 200 l 1,3,-1
 200 600 l 1,4,-1
 400 600 l 1,5,-1
 400 800 l 1,6,-1
 1000 800 l 1,7,-1
 1000 1200 l 1,8,-1
 1400 1200 l 1,9,-1
 1400 0 l 1,0,-1
600 600 m 1,10,-1
 600 200 l 1,11,-1
 1000 200 l 1,12,-1
 1000 600 l 1,13,-1
 600 600 l 1,10,-1
EndSplineSet
EndChar

StartChar: e
Encoding: 101 101 72
Width: 1600
Flags: W
LayerCount: 2
Fore
SplineSet
200 800 m 1,0,-1
 400 800 l 1,1,-1
 400 1000 l 1,2,-1
 1200 1000 l 1,3,-1
 1200 800 l 1,4,-1
 1400 800 l 1,5,-1
 1400 400 l 1,6,-1
 600 400 l 1,7,-1
 600 200 l 1,8,-1
 1200 200 l 1,9,-1
 1200 0 l 1,10,-1
 400 0 l 1,11,-1
 400 200 l 1,12,-1
 200 200 l 1,13,-1
 200 800 l 1,0,-1
600 800 m 1,14,-1
 600 600 l 1,15,-1
 1000 600 l 1,16,-1
 1000 800 l 1,17,-1
 600 800 l 1,14,-1
EndSplineSet
EndChar

StartChar: f
Encoding: 102 102 73
Width: 1600
Flags: W
LayerCount: 2
Fore
SplineSet
800 1200 m 1,0,-1
 1400 1200 l 1,1,-1
 1400 1000 l 1,2,-1
 1000 1000 l 1,3,-1
 1000 800 l 1,4,-1
 1400 800 l 1,5,-1
 1400 600 l 1,6,-1
 1000 600 l 1,7,-1
 1000 0 l 1,8,-1
 600 0 l 1,9,-1
 600 600 l 1,10,-1
 400 600 l 1,11,-1
 400 800 l 1,12,-1
 600 800 l 1,13,-1
 600 1000 l 1,14,-1
 800 1000 l 1,15,-1
 800 1200 l 1,0,-1
EndSplineSet
EndChar

StartChar: g
Encoding: 103 103 74
Width: 1600
Flags: W
LayerCount: 2
Fore
SplineSet
200 0 m 1,0,-1
 1000 0 l 1,1,-1
 1000 200 l 1,2,-1
 400 200 l 1,3,-1
 400 400 l 1,4,-1
 200 400 l 1,5,-1
 200 800 l 1,6,-1
 400 800 l 1,7,-1
 400 1000 l 1,8,-1
 1400 1000 l 1,9,-1
 1400 0 l 1,10,-1
 1200 0 l 1,11,-1
 1200 -200 l 1,12,-1
 200 -200 l 1,13,-1
 200 0 l 1,0,-1
600 800 m 1,14,-1
 600 400 l 1,15,-1
 1000 400 l 1,16,-1
 1000 800 l 1,17,-1
 600 800 l 1,14,-1
EndSplineSet
EndChar

StartChar: h
Encoding: 104 104 75
Width: 1600
Flags: W
LayerCount: 2
Fore
SplineSet
200 1400 m 1,0,-1
 600 1400 l 1,1,-1
 600 1000 l 1,2,-1
 1200 1000 l 1,3,-1
 1200 800 l 1,4,-1
 1400 800 l 1,5,-1
 1400 0 l 1,6,-1
 1000 0 l 1,7,-1
 1000 800 l 1,8,-1
 600 800 l 1,9,-1
 600 0 l 1,10,-1
 200 0 l 1,11,-1
 200 1400 l 1,0,-1
EndSplineSet
EndChar

StartChar: i
Encoding: 105 105 76
Width: 1600
Flags: W
LayerCount: 2
Fore
SplineSet
600 800 m 1,0,-1
 400 800 l 1,1,-1
 400 1000 l 1,2,-1
 1000 1000 l 1,3,-1
 1000 200 l 1,4,-1
 1200 200 l 1,5,-1
 1200 0 l 1,6,-1
 400 0 l 1,7,-1
 400 200 l 1,8,-1
 600 200 l 1,9,-1
 600 800 l 1,0,-1
600 1400 m 1,10,-1
 1000 1400 l 1,11,-1
 1000 1200 l 1,12,-1
 600 1200 l 1,13,-1
 600 1400 l 1,10,-1
EndSplineSet
EndChar

StartChar: j
Encoding: 106 106 77
Width: 1600
Flags: W
LayerCount: 2
Fore
SplineSet
800 1200 m 1,0,-1
 1200 1200 l 1,1,-1
 1200 1000 l 1,2,-1
 800 1000 l 1,3,-1
 800 1200 l 1,0,-1
800 800 m 1,4,-1
 1200 800 l 1,5,-1
 1200 0 l 1,6,-1
 1000 0 l 1,7,-1
 1000 -200 l 1,8,-1
 400 -200 l 1,9,-1
 400 0 l 1,10,-1
 800 0 l 1,11,-1
 800 800 l 1,4,-1
EndSplineSet
EndChar

StartChar: k
Encoding: 107 107 78
Width: 1600
Flags: W
LayerCount: 2
Fore
SplineSet
200 1400 m 1,0,-1
 600 1400 l 1,1,-1
 600 600 l 1,2,-1
 800 600 l 1,3,-1
 800 800 l 1,4,-1
 1200 800 l 1,5,-1
 1200 600 l 1,6,-1
 1000 600 l 1,7,-1
 1000 400 l 1,8,-1
 1200 400 l 1,9,-1
 1200 200 l 1,10,-1
 1400 200 l 1,11,-1
 1400 0 l 1,12,-1
 1000 0 l 1,13,-1
 1000 200 l 1,14,-1
 800 200 l 1,15,-1
 800 400 l 1,16,-1
 600 400 l 1,17,-1
 600 0 l 1,18,-1
 200 0 l 1,19,-1
 200 1400 l 1,0,-1
EndSplineSet
EndChar

StartChar: l
Encoding: 108 108 79
Width: 1600
Flags: W
LayerCount: 2
Fore
SplineSet
600 1200 m 1,0,-1
 400 1200 l 1,1,-1
 400 1400 l 1,2,-1
 1000 1400 l 1,3,-1
 1000 200 l 1,4,-1
 1200 200 l 1,5,-1
 1200 0 l 1,6,-1
 400 0 l 1,7,-1
 400 200 l 1,8,-1
 600 200 l 1,9,-1
 600 1200 l 1,0,-1
EndSplineSet
EndChar

StartChar: m
Encoding: 109 109 80
Width: 1600
Flags: W
LayerCount: 2
Fore
SplineSet
200 1000 m 1,0,-1
 600 1000 l 1,1,-1
 600 800 l 1,2,-1
 1000 800 l 1,3,-1
 1000 1000 l 1,4,-1
 1400 1000 l 1,5,-1
 1400 800 l 1,6,-1
 1600 800 l 1,7,-1
 1600 0 l 1,8,-1
 1200 0 l 1,9,-1
 1200 400 l 1,10,-1
 1000 400 l 1,11,-1
 1000 200 l 1,12,-1
 800 200 l 1,13,-1
 800 400 l 1,14,-1
 600 400 l 1,15,-1
 600 0 l 1,16,-1
 200 0 l 1,17,-1
 200 1000 l 1,0,-1
EndSplineSet
EndChar

StartChar: n
Encoding: 110 110 81
Width: 1600
Flags: W
LayerCount: 2
Fore
SplineSet
200 1000 m 1,0,-1
 1200 1000 l 1,1,-1
 1200 800 l 1,2,-1
 1400 800 l 1,3,-1
 1400 0 l 1,4,-1
 1000 0 l 1,5,-1
 1000 800 l 1,6,-1
 600 800 l 1,7,-1
 600 0 l 1,8,-1
 200 0 l 1,9,-1
 200 1000 l 1,0,-1
EndSplineSet
EndChar

StartChar: o
Encoding: 111 111 82
Width: 1600
Flags: W
LayerCount: 2
Fore
SplineSet
200 800 m 1,0,-1
 400 800 l 1,1,-1
 400 1000 l 1,2,-1
 1200 1000 l 1,3,-1
 1200 800 l 1,4,-1
 1400 800 l 1,5,-1
 1400 200 l 1,6,-1
 1200 200 l 1,7,-1
 1200 0 l 1,8,-1
 400 0 l 1,9,-1
 400 200 l 1,10,-1
 200 200 l 1,11,-1
 200 800 l 1,0,-1
600 800 m 1,12,-1
 600 200 l 1,13,-1
 1000 200 l 1,14,-1
 1000 800 l 1,15,-1
 600 800 l 1,12,-1
EndSplineSet
EndChar

StartChar: p
Encoding: 112 112 83
Width: 1600
Flags: W
LayerCount: 2
Fore
SplineSet
200 1000 m 1,0,-1
 1200 1000 l 1,1,-1
 1200 800 l 1,2,-1
 1400 800 l 1,3,-1
 1400 400 l 1,4,-1
 1200 400 l 1,5,-1
 1200 200 l 1,6,-1
 600 200 l 1,7,-1
 600 -200 l 1,8,-1
 200 -200 l 1,9,-1
 200 1000 l 1,0,-1
600 800 m 1,10,-1
 600 400 l 1,11,-1
 1000 400 l 1,12,-1
 1000 800 l 1,13,-1
 600 800 l 1,10,-1
EndSplineSet
EndChar

StartChar: q
Encoding: 113 113 84
Width: 1600
Flags: W
LayerCount: 2
Fore
SplineSet
1400 -200 m 1,0,-1
 1000 -200 l 1,1,-1
 1000 200 l 1,2,-1
 400 200 l 1,3,-1
 400 400 l 1,4,-1
 200 400 l 1,5,-1
 200 800 l 1,6,-1
 400 800 l 1,7,-1
 400 1000 l 1,8,-1
 1400 1000 l 1,9,-1
 1400 -200 l 1,0,-1
600 800 m 1,10,-1
 600 400 l 1,11,-1
 1000 400 l 1,12,-1
 1000 800 l 1,13,-1
 600 800 l 1,10,-1
EndSplineSet
EndChar

StartChar: r
Encoding: 114 114 85
Width: 1600
Flags: W
LayerCount: 2
Fore
SplineSet
200 1000 m 1,0,-1
 1200 1000 l 1,1,-1
 1200 800 l 1,2,-1
 1400 800 l 1,3,-1
 1400 600 l 1,4,-1
 1000 600 l 1,5,-1
 1000 800 l 1,6,-1
 600 800 l 1,7,-1
 600 0 l 1,8,-1
 200 0 l 1,9,-1
 200 1000 l 1,0,-1
EndSplineSet
EndChar

StartChar: s
Encoding: 115 115 86
Width: 1600
Flags: W
LayerCount: 2
Fore
SplineSet
200 200 m 1,0,-1
 1000 200 l 1,1,-1
 1000 400 l 1,2,-1
 400 400 l 1,3,-1
 400 600 l 1,4,-1
 200 600 l 1,5,-1
 200 800 l 1,6,-1
 400 800 l 1,7,-1
 400 1000 l 1,8,-1
 1400 1000 l 1,9,-1
 1400 800 l 1,10,-1
 600 800 l 1,11,-1
 600 600 l 1,12,-1
 1200 600 l 1,13,-1
 1200 400 l 1,14,-1
 1400 400 l 1,15,-1
 1400 200 l 1,16,-1
 1200 200 l 1,17,-1
 1200 0 l 1,18,-1
 200 0 l 1,19,-1
 200 200 l 1,0,-1
EndSplineSet
EndChar

StartChar: t
Encoding: 116 116 87
Width: 1600
Flags: W
LayerCount: 2
Fore
SplineSet
200 1000 m 1,0,-1
 600 1000 l 1,1,-1
 600 1200 l 1,2,-1
 1000 1200 l 1,3,-1
 1000 1000 l 1,4,-1
 1400 1000 l 1,5,-1
 1400 800 l 1,6,-1
 1000 800 l 1,7,-1
 1000 200 l 1,8,-1
 1400 200 l 1,9,-1
 1400 0 l 1,10,-1
 800 0 l 1,11,-1
 800 200 l 1,12,-1
 600 200 l 1,13,-1
 600 800 l 1,14,-1
 200 800 l 1,15,-1
 200 1000 l 1,0,-1
EndSplineSet
EndChar

StartChar: u
Encoding: 117 117 88
Width: 1600
Flags: W
LayerCount: 2
Fore
SplineSet
200 1000 m 1,0,-1
 600 1000 l 1,1,-1
 600 200 l 1,2,-1
 1000 200 l 1,3,-1
 1000 1000 l 1,4,-1
 1400 1000 l 1,5,-1
 1400 0 l 1,6,-1
 400 0 l 1,7,-1
 400 200 l 1,8,-1
 200 200 l 1,9,-1
 200 1000 l 1,0,-1
EndSplineSet
EndChar

StartChar: v
Encoding: 118 118 89
Width: 1600
Flags: W
LayerCount: 2
Fore
SplineSet
200 1000 m 1,0,-1
 600 1000 l 1,1,-1
 600 400 l 1,2,-1
 1000 400 l 1,3,-1
 1000 1000 l 1,4,-1
 1400 1000 l 1,5,-1
 1400 400 l 1,6,-1
 1200 400 l 1,7,-1
 1200 200 l 1,8,-1
 1000 200 l 1,9,-1
 1000 0 l 1,10,-1
 600 0 l 1,11,-1
 600 200 l 1,12,-1
 400 200 l 1,13,-1
 400 400 l 1,14,-1
 200 400 l 1,15,-1
 200 1000 l 1,0,-1
EndSplineSet
EndChar

StartChar: w
Encoding: 119 119 90
Width: 1600
Flags: W
LayerCount: 2
Fore
SplineSet
200 1000 m 1,0,-1
 600 1000 l 1,1,-1
 600 600 l 1,2,-1
 800 600 l 1,3,-1
 800 800 l 1,4,-1
 1000 800 l 1,5,-1
 1000 600 l 1,6,-1
 1200 600 l 1,7,-1
 1200 1000 l 1,8,-1
 1600 1000 l 1,9,-1
 1600 400 l 1,10,-1
 1400 400 l 1,11,-1
 1400 0 l 1,12,-1
 1000 0 l 1,13,-1
 1000 200 l 1,14,-1
 800 200 l 1,15,-1
 800 0 l 1,16,-1
 400 0 l 1,17,-1
 400 400 l 1,18,-1
 200 400 l 1,19,-1
 200 1000 l 1,0,-1
EndSplineSet
EndChar

StartChar: x
Encoding: 120 120 91
Width: 1600
Flags: W
LayerCount: 2
Fore
SplineSet
200 200 m 1,0,-1
 400 200 l 1,1,-1
 400 400 l 1,2,-1
 600 400 l 1,3,-1
 600 600 l 1,4,-1
 400 600 l 1,5,-1
 400 800 l 1,6,-1
 200 800 l 1,7,-1
 200 1000 l 1,8,-1
 600 1000 l 1,9,-1
 600 800 l 1,10,-1
 1000 800 l 1,11,-1
 1000 1000 l 1,12,-1
 1400 1000 l 1,13,-1
 1400 800 l 1,14,-1
 1200 800 l 1,15,-1
 1200 600 l 1,16,-1
 1000 600 l 1,17,-1
 1000 400 l 1,18,-1
 1200 400 l 1,19,-1
 1200 200 l 1,20,-1
 1400 200 l 1,21,-1
 1400 0 l 1,22,-1
 1000 0 l 1,23,-1
 1000 200 l 1,24,-1
 600 200 l 1,25,-1
 600 0 l 1,26,-1
 200 0 l 1,27,-1
 200 200 l 1,0,-1
EndSplineSet
EndChar

StartChar: y
Encoding: 121 121 92
Width: 1600
Flags: W
LayerCount: 2
Fore
SplineSet
200 0 m 1,0,-1
 800 0 l 1,1,-1
 800 200 l 1,2,-1
 400 200 l 1,3,-1
 400 400 l 1,4,-1
 200 400 l 1,5,-1
 200 1000 l 1,6,-1
 600 1000 l 1,7,-1
 600 400 l 1,8,-1
 1000 400 l 1,9,-1
 1000 1000 l 1,10,-1
 1400 1000 l 1,11,-1
 1400 200 l 1,12,-1
 1200 200 l 1,13,-1
 1200 0 l 1,14,-1
 1000 0 l 1,15,-1
 1000 -200 l 1,16,-1
 200 -200 l 1,17,-1
 200 0 l 1,0,-1
EndSplineSet
EndChar

StartChar: z
Encoding: 122 122 93
Width: 1600
Flags: W
LayerCount: 2
Fore
SplineSet
200 200 m 1,0,-1
 400 200 l 1,1,-1
 400 400 l 1,2,-1
 600 400 l 1,3,-1
 600 600 l 1,4,-1
 800 600 l 1,5,-1
 800 800 l 1,6,-1
 200 800 l 1,7,-1
 200 1000 l 1,8,-1
 1400 1000 l 1,9,-1
 1400 800 l 1,10,-1
 1200 800 l 1,11,-1
 1200 600 l 1,12,-1
 1000 600 l 1,13,-1
 1000 400 l 1,14,-1
 800 400 l 1,15,-1
 800 200 l 1,16,-1
 1400 200 l 1,17,-1
 1400 0 l 1,18,-1
 200 0 l 1,19,-1
 200 200 l 1,0,-1
EndSplineSet
EndChar

StartChar: braceleft
Encoding: 123 123 94
Width: 1600
Flags: W
LayerCount: 2
Fore
SplineSet
1400 1400 m 1,0,-1
 1400 1200 l 1,1,-1
 1000 1200 l 1,2,-1
 1000 800 l 1,3,-1
 800 800 l 1,4,-1
 800 600 l 1,5,-1
 1000 600 l 1,6,-1
 1000 200 l 1,7,-1
 1400 200 l 1,8,-1
 1400 0 l 1,9,-1
 800 0 l 1,10,-1
 800 200 l 1,11,-1
 600 200 l 1,12,-1
 600 600 l 1,13,-1
 200 600 l 1,14,-1
 200 800 l 1,15,-1
 600 800 l 1,16,-1
 600 1200 l 1,17,-1
 800 1200 l 1,18,-1
 800 1400 l 1,19,-1
 1400 1400 l 1,0,-1
EndSplineSet
EndChar

StartChar: bar
Encoding: 124 124 95
Width: 1600
Flags: W
LayerCount: 2
Fore
SplineSet
600 1400 m 1,0,-1
 1000 1400 l 1,1,-1
 1000 0 l 1,2,-1
 600 0 l 1,3,-1
 600 1400 l 1,0,-1
EndSplineSet
EndChar

StartChar: braceright
Encoding: 125 125 96
Width: 1600
Flags: W
LayerCount: 2
Fore
SplineSet
800 1400 m 1,0,-1
 800 1200 l 1,1,-1
 1000 1200 l 1,2,-1
 1000 800 l 1,3,-1
 1400 800 l 1,4,-1
 1400 600 l 1,5,-1
 1000 600 l 1,6,-1
 1000 200 l 1,7,-1
 800 200 l 1,8,-1
 800 0 l 1,9,-1
 200 0 l 1,10,-1
 200 200 l 1,11,-1
 600 200 l 1,12,-1
 600 600 l 1,13,-1
 800 600 l 1,14,-1
 800 800 l 1,15,-1
 600 800 l 1,16,-1
 600 1200 l 1,17,-1
 200 1200 l 1,18,-1
 200 1400 l 1,19,-1
 800 1400 l 1,0,-1
EndSplineSet
EndChar

StartChar: asciitilde
Encoding: 126 126 97
Width: 1600
Flags: W
LayerCount: 2
Fore
SplineSet
1400 1000 m 1,0,-1
 1200 1000 l 1,1,-1
 1200 800 l 1,2,-1
 600 800 l 1,3,-1
 600 1000 l 1,4,-1
 400 1000 l 1,5,-1
 400 800 l 1,6,-1
 200 800 l 1,7,-1
 200 1400 l 1,8,-1
 800 1400 l 1,9,-1
 800 1200 l 1,10,-1
 1200 1200 l 1,11,-1
 1200 1400 l 1,12,-1
 1400 1400 l 1,13,-1
 1400 1000 l 1,0,-1
EndSplineSet
EndChar

StartChar: exclamdown
Encoding: 161 161 98
Width: 1600
Flags: W
LayerCount: 2
Fore
SplineSet
600 1000 m 1,0,-1
 1000 1000 l 1,1,-1
 1000 0 l 1,2,-1
 600 0 l 1,3,-1
 600 1000 l 1,0,-1
600 1400 m 1,4,-1
 1000 1400 l 1,5,-1
 1000 1200 l 1,6,-1
 600 1200 l 1,7,-1
 600 1400 l 1,4,-1
EndSplineSet
EndChar

StartChar: cent
Encoding: 162 162 99
Width: 1600
Flags: W
LayerCount: 2
Fore
SplineSet
200 1000 m 1,0,-1
 400 1000 l 1,1,-1
 400 1200 l 1,2,-1
 600 1200 l 1,3,-1
 600 1400 l 1,4,-1
 800 1400 l 1,5,-1
 800 1200 l 1,6,-1
 1200 1200 l 1,7,-1
 1200 1000 l 1,8,-1
 600 1000 l 1,9,-1
 600 400 l 1,10,-1
 1200 400 l 1,11,-1
 1200 200 l 1,12,-1
 800 200 l 1,13,-1
 800 0 l 1,14,-1
 600 0 l 1,15,-1
 600 200 l 1,16,-1
 400 200 l 1,17,-1
 400 400 l 1,18,-1
 200 400 l 1,19,-1
 200 1000 l 1,0,-1
EndSplineSet
EndChar

StartChar: sterling
Encoding: 163 163 100
Width: 1600
Flags: W
LayerCount: 2
Fore
SplineSet
200 200 m 1,0,-1
 400 200 l 1,1,-1
 400 400 l 1,2,-1
 600 400 l 1,3,-1
 600 600 l 1,4,-1
 400 600 l 1,5,-1
 400 800 l 1,6,-1
 600 800 l 1,7,-1
 600 1000 l 1,8,-1
 800 1000 l 1,9,-1
 800 1200 l 1,10,-1
 1000 1200 l 1,11,-1
 1000 1400 l 1,12,-1
 1400 1400 l 1,13,-1
 1400 1200 l 1,14,-1
 1600 1200 l 1,15,-1
 1600 1000 l 1,16,-1
 1400 1000 l 1,17,-1
 1400 1200 l 1,18,-1
 1000 1200 l 1,19,-1
 1000 800 l 1,20,-1
 1400 800 l 1,21,-1
 1400 600 l 1,22,-1
 1000 600 l 1,23,-1
 1000 400 l 1,24,-1
 800 400 l 1,25,-1
 800 200 l 1,26,-1
 1400 200 l 1,27,-1
 1400 400 l 1,28,-1
 1600 400 l 1,29,-1
 1600 200 l 1,30,-1
 1400 200 l 1,31,-1
 1400 0 l 1,32,-1
 200 0 l 1,33,-1
 200 200 l 1,0,-1
EndSplineSet
EndChar

StartChar: currency
Encoding: 164 164 101
Width: 1600
Flags: W
LayerCount: 2
Fore
SplineSet
400 800 m 1,0,-1
 200 800 l 1,1,-1
 200 1200 l 1,2,-1
 600 1200 l 1,3,-1
 600 1000 l 1,4,-1
 1000 1000 l 1,5,-1
 1000 1200 l 1,6,-1
 1400 1200 l 1,7,-1
 1400 800 l 1,8,-1
 1200 800 l 1,9,-1
 1200 400 l 1,10,-1
 1400 400 l 1,11,-1
 1400 0 l 1,12,-1
 1000 0 l 1,13,-1
 1000 200 l 1,14,-1
 600 200 l 1,15,-1
 600 0 l 1,16,-1
 200 0 l 1,17,-1
 200 400 l 1,18,-1
 400 400 l 1,19,-1
 400 800 l 1,0,-1
600 800 m 1,20,-1
 600 400 l 1,21,-1
 1000 400 l 1,22,-1
 1000 800 l 1,23,-1
 600 800 l 1,20,-1
EndSplineSet
EndChar

StartChar: yen
Encoding: 165 165 102
Width: 1600
Flags: W
LayerCount: 2
Fore
SplineSet
200 1400 m 1,0,-1
 600 1400 l 1,1,-1
 600 1200 l 1,2,-1
 1000 1200 l 1,3,-1
 1000 1400 l 1,4,-1
 1400 1400 l 1,5,-1
 1400 1200 l 1,6,-1
 1200 1200 l 1,7,-1
 1200 1000 l 1,8,-1
 1000 1000 l 1,9,-1
 1000 800 l 1,10,-1
 1400 800 l 1,11,-1
 1400 600 l 1,12,-1
 1000 600 l 1,13,-1
 1000 400 l 1,14,-1
 1400 400 l 1,15,-1
 1400 200 l 1,16,-1
 1000 200 l 1,17,-1
 1000 0 l 1,18,-1
 600 0 l 1,19,-1
 600 200 l 1,20,-1
 200 200 l 1,21,-1
 200 400 l 1,22,-1
 600 400 l 1,23,-1
 600 600 l 1,24,-1
 200 600 l 1,25,-1
 200 800 l 1,26,-1
 600 800 l 1,27,-1
 600 1000 l 1,28,-1
 400 1000 l 1,29,-1
 400 1200 l 1,30,-1
 200 1200 l 1,31,-1
 200 1400 l 1,0,-1
EndSplineSet
EndChar

StartChar: dieresis
Encoding: 168 168 103
Width: 1600
Flags: W
LayerCount: 2
Fore
SplineSet
300 1800 m 1,0,-1
 500 1800 l 1,1,-1
 500 1600 l 1,2,-1
 300 1600 l 1,3,-1
 300 1800 l 1,0,-1
700 1800 m 1,4,-1
 900 1800 l 1,5,-1
 900 1600 l 1,6,-1
 700 1600 l 1,7,-1
 700 1800 l 1,4,-1
EndSplineSet
EndChar

StartChar: copyright
Encoding: 169 169 104
Width: 1600
Flags: W
LayerCount: 2
Fore
SplineSet
400 1000 m 1,0,-1
 800 1000 l 1,1,-1
 800 800 l 1,2,-1
 600 800 l 1,3,-1
 600 600 l 1,4,-1
 800 600 l 1,5,-1
 800 400 l 1,6,-1
 402 400 l 1,7,-1
 400 1000 l 1,0,-1
1200 1400 m 1,8,-1
 1200 0 l 1,9,-1
 0 0 l 1,10,-1
 0 1400 l 1,11,-1
 1200 1400 l 1,8,-1
202 1200 m 1,12,-1
 202 200 l 1,13,-1
 1000 200 l 1,14,-1
 1000 1200 l 1,15,-1
 202 1200 l 1,12,-1
EndSplineSet
EndChar

StartChar: ordfeminine
Encoding: 170 170 105
Width: 1600
Flags: W
LayerCount: 2
Fore
SplineSet
600 1200 m 1,0,-1
 600 1000 l 1,1,-1
 1000 1000 l 1,2,-1
 1000 1200 l 1,3,-1
 600 1200 l 1,0,-1
1400 400 m 1,4,-1
 200 400 l 1,5,-1
 200 600 l 1,6,-1
 1400 600 l 1,7,-1
 1400 400 l 1,4,-1
200 1200 m 1,8,-1
 400 1200 l 1,9,-1
 400 1400 l 1,10,-1
 1000 1400 l 1,11,-1
 1000 1600 l 1,12,-1
 400 1600 l 1,13,-1
 400 1800 l 1,14,-1
 1200 1800 l 1,15,-1
 1200 1600 l 1,16,-1
 1400 1600 l 1,17,-1
 1400 800 l 1,18,-1
 400 800 l 1,19,-1
 400 1000 l 1,20,-1
 200 1000 l 1,21,-1
 200 1200 l 1,8,-1
EndSplineSet
EndChar

StartChar: guillemotleft
Encoding: 171 171 106
Width: 1600
Flags: W
LayerCount: 2
Fore
SplineSet
800 1200 m 1,0,-1
 800 1000 l 1,1,-1
 600 1000 l 1,2,-1
 600 800 l 1,3,-1
 400 800 l 1,4,-1
 400 600 l 1,5,-1
 600 600 l 1,6,-1
 600 400 l 1,7,-1
 800 400 l 1,8,-1
 800 200 l 1,9,-1
 400 200 l 1,10,-1
 400 400 l 1,11,-1
 200 400 l 1,12,-1
 200 600 l 1,13,-1
 0 600 l 1,14,-1
 0 800 l 1,15,-1
 200 800 l 1,16,-1
 200 1000 l 1,17,-1
 400 1000 l 1,18,-1
 400 1200 l 1,19,-1
 800 1200 l 1,0,-1
1600 1200 m 1,20,-1
 1600 1000 l 1,21,-1
 1400 1000 l 1,22,-1
 1400 800 l 1,23,-1
 1200 800 l 1,24,-1
 1200 600 l 1,25,-1
 1400 600 l 1,26,-1
 1400 400 l 1,27,-1
 1600 400 l 1,28,-1
 1600 200 l 1,29,-1
 1200 200 l 1,30,-1
 1200 400 l 1,31,-1
 1000 400 l 1,32,-1
 1000 600 l 1,33,-1
 800 600 l 1,34,-1
 800 800 l 1,35,-1
 1000 800 l 1,36,-1
 1000 1000 l 1,37,-1
 1200 1000 l 1,38,-1
 1200 1200 l 1,39,-1
 1600 1200 l 1,20,-1
EndSplineSet
EndChar

StartChar: logicalnot
Encoding: 172 172 107
Width: 1600
Flags: W
LayerCount: 2
Fore
SplineSet
200 800 m 1,0,-1
 1400 800 l 1,1,-1
 1400 600 l 1,2,-1
 1400 400 l 1,3,-1
 1200 400 l 1,4,-1
 1200 600 l 1,5,-1
 200 600 l 1,6,-1
 200 800 l 1,0,-1
EndSplineSet
EndChar

StartChar: registered
Encoding: 174 174 108
Width: 1600
Flags: W
LayerCount: 2
Fore
SplineSet
400 1000 m 1,0,-1
 800 1000 l 1,1,-1
 800 800 l 1,2,-1
 600 800 l 1,3,-1
 600 800 l 1,4,-1
 600 400 l 1,5,-1
 400 400 l 1,6,-1
 400 1000 l 1,0,-1
200 1200 m 1,7,-1
 200 200 l 1,8,-1
 1000 200 l 1,9,-1
 1000 1200 l 1,10,-1
 200 1200 l 1,7,-1
1200 1400 m 1,11,-1
 1200 0 l 1,12,-1
 0 0 l 1,13,-1
 0 1400 l 1,14,-1
 1200 1400 l 1,11,-1
EndSplineSet
EndChar

StartChar: degree
Encoding: 176 176 109
Width: 1600
Flags: W
LayerCount: 2
Fore
SplineSet
1200 1400 m 1,0,-1
 1200 600 l 1,1,-1
 400 600 l 1,2,-1
 400 1400 l 1,3,-1
 1200 1400 l 1,0,-1
600 1200 m 1,4,-1
 600 800 l 1,5,-1
 1000 800 l 1,6,-1
 1000 1200 l 1,7,-1
 600 1200 l 1,4,-1
EndSplineSet
EndChar

StartChar: acute
Encoding: 180 180 110
Width: 1600
Flags: W
LayerCount: 2
Fore
SplineSet
800 1600 m 1,0,-1
 600 1600 l 1,1,-1
 800 1800 l 1,2,-1
 1000 1800 l 1,3,-1
 800 1600 l 1,0,-1
EndSplineSet
EndChar

StartChar: paragraph
Encoding: 182 182 111
Width: 1600
Flags: W
LayerCount: 2
Fore
SplineSet
200 1400 m 1,0,-1
 1400 1400 l 1,1,-1
 1400 1200 l 1,2,-1
 1200 1200 l 1,3,-1
 1200 0 l 1,4,-1
 1000 0 l 1,5,-1
 1000 1200 l 1,6,-1
 800 1200 l 1,7,-1
 800 0 l 1,8,-1
 600 0 l 1,9,-1
 600 800 l 1,10,-1
 200 800 l 1,11,-1
 200 1400 l 1,0,-1
400 1200 m 1,12,-1
 400 1000 l 1,13,-1
 600 1000 l 1,14,-1
 600 1200 l 1,15,-1
 400 1200 l 1,12,-1
EndSplineSet
EndChar

StartChar: cedilla
Encoding: 184 184 112
Width: 1600
Flags: W
LayerCount: 2
Fore
SplineSet
600 -200 m 1,0,-1
 200 -200 l 1,1,-1
 400 0 l 1,2,-1
 800 0 l 1,3,-1
 600 -200 l 1,0,-1
EndSplineSet
EndChar

StartChar: ordmasculine
Encoding: 186 186 113
Width: 1600
Flags: W
LayerCount: 2
Fore
SplineSet
200 1600 m 1,0,-1
 400 1600 l 1,1,-1
 400 1800 l 1,2,-1
 1200 1800 l 1,3,-1
 1200 1600 l 1,4,-1
 1400 1600 l 1,5,-1
 1400 1000 l 1,6,-1
 1200 1000 l 1,7,-1
 1200 800 l 1,8,-1
 400 800 l 1,9,-1
 400 1000 l 1,10,-1
 200 1000 l 1,11,-1
 200 1600 l 1,0,-1
600 1600 m 1,12,-1
 600 1000 l 1,13,-1
 1000 1000 l 1,14,-1
 1000 1600 l 1,15,-1
 600 1600 l 1,12,-1
200 600 m 1,16,-1
 1400 600 l 1,17,-1
 1400 400 l 1,18,-1
 200 400 l 1,19,-1
 200 600 l 1,16,-1
EndSplineSet
EndChar

StartChar: guillemotright
Encoding: 187 187 114
Width: 1600
Flags: W
LayerCount: 2
Fore
SplineSet
1200 1200 m 1,0,-1
 1200 1000 l 1,1,-1
 1400 1000 l 1,2,-1
 1400 800 l 1,3,-1
 1600 800 l 1,4,-1
 1600 600 l 1,5,-1
 1400 600 l 1,6,-1
 1400 400 l 1,7,-1
 1200 400 l 1,8,-1
 1200 200 l 1,9,-1
 800 200 l 1,10,-1
 800 400 l 1,11,-1
 1000 400 l 1,12,-1
 1000 600 l 1,13,-1
 1200 600 l 1,14,-1
 1200 800 l 1,15,-1
 1000 800 l 1,16,-1
 1000 1000 l 1,17,-1
 800 1000 l 1,18,-1
 800 1200 l 1,19,-1
 1200 1200 l 1,0,-1
400 1200 m 1,20,-1
 400 1000 l 1,21,-1
 600 1000 l 1,22,-1
 600 800 l 1,23,-1
 800 800 l 1,24,-1
 800 600 l 1,25,-1
 600 600 l 1,26,-1
 600 400 l 1,27,-1
 400 400 l 1,28,-1
 400 200 l 1,29,-1
 0 200 l 1,30,-1
 0 400 l 1,31,-1
 200 400 l 1,32,-1
 200 600 l 1,33,-1
 400 600 l 1,34,-1
 400 800 l 1,35,-1
 200 800 l 1,36,-1
 200 1000 l 1,37,-1
 0 1000 l 1,38,-1
 0 1200 l 1,39,-1
 400 1200 l 1,20,-1
EndSplineSet
EndChar

StartChar: questiondown
Encoding: 191 191 115
Width: 1600
Flags: W
LayerCount: 2
Fore
SplineSet
1000 1200 m 1,0,-1
 600 1200 l 1,1,-1
 600 1400 l 1,2,-1
 1000 1400 l 1,3,-1
 1000 1200 l 1,0,-1
1400 200 m 1,4,-1
 1200 200 l 1,5,-1
 1200 0 l 1,6,-1
 400 0 l 1,7,-1
 400 200 l 1,8,-1
 200 200 l 1,9,-1
 200 600 l 1,10,-1
 400 600 l 1,11,-1
 400 800 l 1,12,-1
 600 800 l 1,13,-1
 600 1000 l 1,14,-1
 1000 1000 l 1,15,-1
 1000 800 l 1,16,-1
 800 800 l 1,17,-1
 800 600 l 1,18,-1
 600 600 l 1,19,-1
 600 200 l 1,20,-1
 1000 200 l 1,21,-1
 1000 400 l 1,22,-1
 1400 400 l 1,23,-1
 1400 200 l 1,4,-1
EndSplineSet
EndChar

StartChar: Agrave
Encoding: 192 192 116
Width: 1600
Flags: W
LayerCount: 2
Fore
SplineSet
600 1800 m 1,0,-1
 800 1800 l 1,1,-1
 1000 1600 l 1,2,-1
 800 1600 l 1,3,-1
 600 1800 l 1,0,-1
600 1000 m 1,4,-1
 600 800 l 1,5,-1
 1000 800 l 1,6,-1
 1000 1000 l 1,7,-1
 600 1000 l 1,4,-1
200 1000 m 1,8,-1
 400 1000 l 1,9,-1
 400 1200 l 1,10,-1
 600 1200 l 1,11,-1
 600 1400 l 1,12,-1
 1000 1400 l 1,13,-1
 1000 1200 l 1,14,-1
 1200 1200 l 1,15,-1
 1200 1000 l 1,16,-1
 1400 1000 l 1,17,-1
 1400 0 l 1,18,-1
 1000 0 l 1,19,-1
 1000 600 l 1,20,-1
 600 600 l 1,21,-1
 600 0 l 1,22,-1
 200 0 l 1,23,-1
 200 1000 l 1,8,-1
EndSplineSet
EndChar

StartChar: Aacute
Encoding: 193 193 117
Width: 1600
Flags: W
LayerCount: 2
Fore
SplineSet
800 1600 m 1,0,-1
 600 1600 l 1,1,-1
 800 1800 l 1,2,-1
 1000 1800 l 1,3,-1
 800 1600 l 1,0,-1
600 1000 m 1,4,-1
 600 800 l 1,5,-1
 1000 800 l 1,6,-1
 1000 1000 l 1,7,-1
 600 1000 l 1,4,-1
200 1000 m 1,8,-1
 400 1000 l 1,9,-1
 400 1200 l 1,10,-1
 600 1200 l 1,11,-1
 600 1400 l 1,12,-1
 1000 1400 l 1,13,-1
 1000 1200 l 1,14,-1
 1200 1200 l 1,15,-1
 1200 1000 l 1,16,-1
 1400 1000 l 1,17,-1
 1400 0 l 1,18,-1
 1000 0 l 1,19,-1
 1000 600 l 1,20,-1
 600 600 l 1,21,-1
 600 0 l 1,22,-1
 200 0 l 1,23,-1
 200 1000 l 1,8,-1
EndSplineSet
EndChar

StartChar: Acircumflex
Encoding: 194 194 118
Width: 1600
Flags: W
LayerCount: 2
Fore
SplineSet
900 1600 m 1,0,-1
 800 1700 l 1,1,-1
 700 1600 l 1,2,-1
 500 1600 l 1,3,-1
 700 1800 l 1,4,-1
 900 1800 l 1,5,-1
 1100 1600 l 1,6,-1
 900 1600 l 1,0,-1
600 1000 m 1,7,-1
 600 800 l 1,8,-1
 1000 800 l 1,9,-1
 1000 1000 l 1,10,-1
 600 1000 l 1,7,-1
200 1000 m 1,11,-1
 400 1000 l 1,12,-1
 400 1200 l 1,13,-1
 600 1200 l 1,14,-1
 600 1400 l 1,15,-1
 1000 1400 l 1,16,-1
 1000 1200 l 1,17,-1
 1200 1200 l 1,18,-1
 1200 1000 l 1,19,-1
 1400 1000 l 1,20,-1
 1400 0 l 1,21,-1
 1000 0 l 1,22,-1
 1000 600 l 1,23,-1
 600 600 l 1,24,-1
 600 0 l 1,25,-1
 200 0 l 1,26,-1
 200 1000 l 1,11,-1
EndSplineSet
EndChar

StartChar: Atilde
Encoding: 195 195 119
Width: 1600
Flags: W
LayerCount: 2
Fore
SplineSet
600 1000 m 1,0,-1
 600 800 l 1,1,-1
 1000 800 l 1,2,-1
 1000 1000 l 1,3,-1
 600 1000 l 1,0,-1
1000 1800 m 1,4,-1
 1200 1600 l 1,5,-1
 1000 1600 l 1,6,-1
 900 1700 l 1,7,-1
 800 1600 l 1,8,-1
 600 1600 l 1,9,-1
 400 1800 l 1,10,-1
 600 1800 l 1,11,-1
 700 1700 l 1,12,-1
 800 1800 l 1,13,-1
 1000 1800 l 1,4,-1
200 1000 m 1,14,-1
 400 1000 l 1,15,-1
 400 1200 l 1,16,-1
 600 1200 l 1,17,-1
 600 1400 l 1,18,-1
 1000 1400 l 1,19,-1
 1000 1200 l 1,20,-1
 1200 1200 l 1,21,-1
 1200 1000 l 1,22,-1
 1400 1000 l 1,23,-1
 1400 0 l 1,24,-1
 1000 0 l 1,25,-1
 1000 600 l 1,26,-1
 600 600 l 1,27,-1
 600 0 l 1,28,-1
 200 0 l 1,29,-1
 200 1000 l 1,14,-1
EndSplineSet
EndChar

StartChar: Adieresis
Encoding: 196 196 120
Width: 1600
Flags: W
LayerCount: 2
Fore
SplineSet
500 1800 m 1,0,-1
 700 1800 l 1,1,-1
 700 1600 l 1,2,-1
 500 1600 l 1,3,-1
 500 1800 l 1,0,-1
900 1800 m 1,4,-1
 1100 1800 l 1,5,-1
 1100 1600 l 1,6,-1
 900 1600 l 1,7,-1
 900 1800 l 1,4,-1
600 1000 m 1,8,-1
 600 800 l 1,9,-1
 1000 800 l 1,10,-1
 1000 1000 l 1,11,-1
 600 1000 l 1,8,-1
200 1000 m 1,12,-1
 400 1000 l 1,13,-1
 400 1200 l 1,14,-1
 600 1200 l 1,15,-1
 600 1400 l 1,16,-1
 1000 1400 l 1,17,-1
 1000 1200 l 1,18,-1
 1200 1200 l 1,19,-1
 1200 1000 l 1,20,-1
 1400 1000 l 1,21,-1
 1400 0 l 1,22,-1
 1000 0 l 1,23,-1
 1000 600 l 1,24,-1
 600 600 l 1,25,-1
 600 0 l 1,26,-1
 200 0 l 1,27,-1
 200 1000 l 1,12,-1
EndSplineSet
EndChar

StartChar: Aring
Encoding: 197 197 121
Width: 1600
Flags: W
LayerCount: 2
Fore
SplineSet
700 1800 m 1,0,-1
 900 1800 l 1,1,-1
 900 1600 l 1,2,-1
 700 1600 l 1,3,-1
 700 1800 l 1,0,-1
600 1000 m 1,4,-1
 600 800 l 1,5,-1
 1000 800 l 1,6,-1
 1000 1000 l 1,7,-1
 600 1000 l 1,4,-1
200 1000 m 1,8,-1
 400 1000 l 1,9,-1
 400 1200 l 1,10,-1
 600 1200 l 1,11,-1
 600 1400 l 1,12,-1
 1000 1400 l 1,13,-1
 1000 1200 l 1,14,-1
 1200 1200 l 1,15,-1
 1200 1000 l 1,16,-1
 1400 1000 l 1,17,-1
 1400 0 l 1,18,-1
 1000 0 l 1,19,-1
 1000 600 l 1,20,-1
 600 600 l 1,21,-1
 600 0 l 1,22,-1
 200 0 l 1,23,-1
 200 1000 l 1,8,-1
EndSplineSet
EndChar

StartChar: AE
Encoding: 198 198 122
Width: 1600
Flags: W
LayerCount: 2
Fore
SplineSet
200 1200 m 1,0,-1
 400 1200 l 1,1,-1
 400 1400 l 1,2,-1
 1400 1400 l 1,3,-1
 1400 1200 l 1,4,-1
 1200 1200 l 1,5,-1
 1200 800 l 1,6,-1
 1400 800 l 1,7,-1
 1400 600 l 1,8,-1
 1200 600 l 1,9,-1
 1200 200 l 1,10,-1
 1400 200 l 1,11,-1
 1400 0 l 1,12,-1
 800 0 l 1,13,-1
 800 600 l 1,14,-1
 600 600 l 1,15,-1
 600 0 l 1,16,-1
 200 0 l 1,17,-1
 200 1200 l 1,0,-1
600 1200 m 1,18,-1
 600 1000 l 1,19,-1
 600 800 l 1,20,-1
 800 800 l 1,21,-1
 800 1200 l 1,22,-1
 600 1200 l 1,18,-1
EndSplineSet
EndChar

StartChar: Ccedilla
Encoding: 199 199 123
Width: 1600
Flags: W
LayerCount: 2
Fore
SplineSet
800 -200 m 1,0,-1
 400 -200 l 1,1,-1
 600 0 l 1,2,-1
 1000 0 l 1,3,-1
 800 -200 l 1,0,-1
200 1200 m 1,4,-1
 400 1200 l 1,5,-1
 400 1400 l 1,6,-1
 1200 1400 l 1,7,-1
 1200 1200 l 1,8,-1
 1400 1200 l 1,9,-1
 1400 1000 l 1,10,-1
 1000 1000 l 1,11,-1
 1000 1200 l 1,12,-1
 600 1200 l 1,13,-1
 600 200 l 1,14,-1
 1000 200 l 1,15,-1
 1000 400 l 1,16,-1
 1400 400 l 1,17,-1
 1400 200 l 1,18,-1
 1200 200 l 1,19,-1
 1200 0 l 1,20,-1
 400 0 l 1,21,-1
 400 200 l 1,22,-1
 200 200 l 1,23,-1
 200 1200 l 1,4,-1
EndSplineSet
EndChar

StartChar: Egrave
Encoding: 200 200 124
Width: 1600
Flags: W
LayerCount: 2
Fore
SplineSet
600 1800 m 1,0,-1
 800 1800 l 1,1,-1
 1000 1600 l 1,2,-1
 800 1600 l 1,3,-1
 600 1800 l 1,0,-1
200 1400 m 1,4,-1
 1400 1400 l 1,5,-1
 1400 1200 l 1,6,-1
 600 1200 l 1,7,-1
 600 800 l 1,8,-1
 1000 800 l 1,9,-1
 1000 600 l 1,10,-1
 600 600 l 1,11,-1
 600 200 l 1,12,-1
 1400 200 l 1,13,-1
 1400 0 l 1,14,-1
 200 0 l 1,15,-1
 200 1400 l 1,4,-1
EndSplineSet
EndChar

StartChar: Eacute
Encoding: 201 201 125
Width: 1600
Flags: W
LayerCount: 2
Fore
SplineSet
800 1600 m 1,0,-1
 600 1600 l 1,1,-1
 800 1800 l 1,2,-1
 1000 1800 l 1,3,-1
 800 1600 l 1,0,-1
200 1400 m 1,4,-1
 1400 1400 l 1,5,-1
 1400 1200 l 1,6,-1
 600 1200 l 1,7,-1
 600 800 l 1,8,-1
 1000 800 l 1,9,-1
 1000 600 l 1,10,-1
 600 600 l 1,11,-1
 600 200 l 1,12,-1
 1400 200 l 1,13,-1
 1400 0 l 1,14,-1
 200 0 l 1,15,-1
 200 1400 l 1,4,-1
EndSplineSet
EndChar

StartChar: Ecircumflex
Encoding: 202 202 126
Width: 1600
Flags: W
LayerCount: 2
Fore
SplineSet
900 1600 m 1,0,-1
 800 1700 l 1,1,-1
 700 1600 l 1,2,-1
 500 1600 l 1,3,-1
 700 1800 l 1,4,-1
 900 1800 l 1,5,-1
 1100 1600 l 1,6,-1
 900 1600 l 1,0,-1
200 1400 m 1,7,-1
 1400 1400 l 1,8,-1
 1400 1200 l 1,9,-1
 600 1200 l 1,10,-1
 600 800 l 1,11,-1
 1000 800 l 1,12,-1
 1000 600 l 1,13,-1
 600 600 l 1,14,-1
 600 200 l 1,15,-1
 1400 200 l 1,16,-1
 1400 0 l 1,17,-1
 200 0 l 1,18,-1
 200 1400 l 1,7,-1
EndSplineSet
EndChar

StartChar: Edieresis
Encoding: 203 203 127
Width: 1600
Flags: W
LayerCount: 2
Fore
SplineSet
404 1796 m 1,0,-1
 600 1796 l 1,1,-1
 600 1600 l 1,2,-1
 404 1600 l 1,3,-1
 404 1796 l 1,0,-1
1004 1796 m 1,4,-1
 1200 1796 l 1,5,-1
 1200 1600 l 1,6,-1
 1004 1600 l 1,7,-1
 1004 1796 l 1,4,-1
200 1400 m 1,8,-1
 1400 1400 l 1,9,-1
 1400 1200 l 1,10,-1
 600 1200 l 1,11,-1
 600 800 l 1,12,-1
 1000 800 l 1,13,-1
 1000 600 l 1,14,-1
 600 600 l 1,15,-1
 600 200 l 1,16,-1
 1400 200 l 1,17,-1
 1400 0 l 1,18,-1
 200 0 l 1,19,-1
 200 1400 l 1,8,-1
EndSplineSet
EndChar

StartChar: Igrave
Encoding: 204 204 128
Width: 1600
Flags: W
LayerCount: 2
Fore
SplineSet
600 1200 m 1,0,-1
 400 1200 l 1,1,-1
 400 1400 l 1,2,-1
 1200 1400 l 1,3,-1
 1200 1200 l 1,4,-1
 1000 1200 l 1,5,-1
 1000 200 l 1,6,-1
 1200 200 l 1,7,-1
 1200 0 l 1,8,-1
 400 0 l 1,9,-1
 400 200 l 1,10,-1
 600 200 l 1,11,-1
 600 1200 l 1,0,-1
600 1800 m 1,12,-1
 800 1800 l 1,13,-1
 1000 1600 l 1,14,-1
 800 1600 l 1,15,-1
 600 1800 l 1,12,-1
EndSplineSet
EndChar

StartChar: Iacute
Encoding: 205 205 129
Width: 1600
Flags: W
LayerCount: 2
Fore
SplineSet
600 1200 m 1,0,-1
 400 1200 l 1,1,-1
 400 1400 l 1,2,-1
 1200 1400 l 1,3,-1
 1200 1200 l 1,4,-1
 1000 1200 l 1,5,-1
 1000 200 l 1,6,-1
 1200 200 l 1,7,-1
 1200 0 l 1,8,-1
 400 0 l 1,9,-1
 400 200 l 1,10,-1
 600 200 l 1,11,-1
 600 1200 l 1,0,-1
800 1600 m 1,12,-1
 600 1600 l 1,13,-1
 800 1800 l 1,14,-1
 1000 1800 l 1,15,-1
 800 1600 l 1,12,-1
EndSplineSet
EndChar

StartChar: Icircumflex
Encoding: 206 206 130
Width: 1600
Flags: W
LayerCount: 2
Fore
SplineSet
900 1600 m 1,0,-1
 800 1700 l 1,1,-1
 700 1600 l 1,2,-1
 500 1600 l 1,3,-1
 700 1800 l 1,4,-1
 900 1800 l 1,5,-1
 1100 1600 l 1,6,-1
 900 1600 l 1,0,-1
600 1200 m 1,7,-1
 400 1200 l 1,8,-1
 400 1400 l 1,9,-1
 1200 1400 l 1,10,-1
 1200 1200 l 1,11,-1
 1000 1200 l 1,12,-1
 1000 200 l 1,13,-1
 1200 200 l 1,14,-1
 1200 0 l 1,15,-1
 400 0 l 1,16,-1
 400 200 l 1,17,-1
 600 200 l 1,18,-1
 600 1200 l 1,7,-1
EndSplineSet
EndChar

StartChar: Idieresis
Encoding: 207 207 131
Width: 1600
Flags: W
LayerCount: 2
Fore
SplineSet
508 1796 m 1,0,-1
 704 1796 l 1,1,-1
 704 1600 l 1,2,-1
 508 1600 l 1,3,-1
 508 1796 l 1,0,-1
904 1800 m 1,4,-1
 1100 1800 l 1,5,-1
 1100 1604 l 1,6,-1
 904 1604 l 1,7,-1
 904 1800 l 1,4,-1
600 1200 m 1,8,-1
 400 1200 l 1,9,-1
 400 1400 l 1,10,-1
 1200 1400 l 1,11,-1
 1200 1200 l 1,12,-1
 1000 1200 l 1,13,-1
 1000 200 l 1,14,-1
 1200 200 l 1,15,-1
 1200 0 l 1,16,-1
 400 0 l 1,17,-1
 400 200 l 1,18,-1
 600 200 l 1,19,-1
 600 1200 l 1,8,-1
EndSplineSet
EndChar

StartChar: Eth
Encoding: 208 208 132
Width: 1600
Flags: W
LayerCount: 2
Fore
SplineSet
200 1400 m 1,0,-1
 1000 1400 l 1,1,-1
 1000 1200 l 1,2,-1
 1200 1200 l 1,3,-1
 1200 800 l 1,4,-1
 1400 800 l 1,5,-1
 1400 600 l 1,6,-1
 1200 600 l 1,7,-1
 1200 400 l 1,8,-1
 1200 200 l 1,9,-1
 1000 200 l 1,10,-1
 1000 0 l 1,11,-1
 200 0 l 1,12,-1
 200 1400 l 1,0,-1
600 1200 m 1,13,-1
 600 200 l 1,14,-1
 800 200 l 1,15,-1
 800 400 l 1,16,-1
 1000 400 l 1,17,-1
 1000 600 l 1,18,-1
 800 600 l 1,19,-1
 800 800 l 1,20,-1
 1000 800 l 1,21,-1
 1000 1000 l 1,22,-1
 800 1000 l 1,23,-1
 800 1200 l 1,24,-1
 600 1200 l 1,13,-1
EndSplineSet
EndChar

StartChar: Ntilde
Encoding: 209 209 133
Width: 1600
Flags: W
LayerCount: 2
Fore
SplineSet
1000 1800 m 1,0,-1
 1200 1600 l 1,1,-1
 1000 1600 l 1,2,-1
 900 1700 l 1,3,-1
 800 1600 l 1,4,-1
 600 1600 l 1,5,-1
 400 1800 l 1,6,-1
 600 1800 l 1,7,-1
 700 1700 l 1,8,-1
 800 1800 l 1,9,-1
 1000 1800 l 1,0,-1
200 1400 m 1,10,-1
 600 1400 l 1,11,-1
 600 1200 l 1,12,-1
 800 1200 l 1,13,-1
 800 1000 l 1,14,-1
 1000 1000 l 1,15,-1
 1000 1400 l 1,16,-1
 1400 1400 l 1,17,-1
 1400 0 l 1,18,-1
 1000 0 l 1,19,-1
 1000 400 l 1,20,-1
 800 400 l 1,21,-1
 800 600 l 1,22,-1
 600 600 l 1,23,-1
 600 0 l 1,24,-1
 200 0 l 1,25,-1
 200 1400 l 1,10,-1
EndSplineSet
EndChar

StartChar: Ograve
Encoding: 210 210 134
Width: 1600
Flags: W
LayerCount: 2
Fore
SplineSet
600 1800 m 1,0,-1
 800 1800 l 1,1,-1
 1000 1600 l 1,2,-1
 800 1600 l 1,3,-1
 600 1800 l 1,0,-1
600 1200 m 1,4,-1
 600 200 l 1,5,-1
 1000 200 l 1,6,-1
 1000 1200 l 1,7,-1
 600 1200 l 1,4,-1
200 1200 m 1,8,-1
 400 1200 l 1,9,-1
 400 1400 l 1,10,-1
 1200 1400 l 1,11,-1
 1200 1200 l 1,12,-1
 1400 1200 l 1,13,-1
 1400 200 l 1,14,-1
 1200 200 l 1,15,-1
 1200 0 l 1,16,-1
 400 0 l 1,17,-1
 400 200 l 1,18,-1
 200 200 l 1,19,-1
 200 1200 l 1,8,-1
EndSplineSet
EndChar

StartChar: Oacute
Encoding: 211 211 135
Width: 1600
Flags: W
LayerCount: 2
Fore
SplineSet
800 1600 m 1,0,-1
 600 1600 l 1,1,-1
 800 1800 l 1,2,-1
 1000 1800 l 1,3,-1
 800 1600 l 1,0,-1
600 1200 m 1,4,-1
 600 200 l 1,5,-1
 1000 200 l 1,6,-1
 1000 1200 l 1,7,-1
 600 1200 l 1,4,-1
200 1200 m 1,8,-1
 400 1200 l 1,9,-1
 400 1400 l 1,10,-1
 1200 1400 l 1,11,-1
 1200 1200 l 1,12,-1
 1400 1200 l 1,13,-1
 1400 200 l 1,14,-1
 1200 200 l 1,15,-1
 1200 0 l 1,16,-1
 400 0 l 1,17,-1
 400 200 l 1,18,-1
 200 200 l 1,19,-1
 200 1200 l 1,8,-1
EndSplineSet
EndChar

StartChar: Ocircumflex
Encoding: 212 212 136
Width: 1600
Flags: W
LayerCount: 2
Fore
SplineSet
900 1600 m 1,0,-1
 800 1700 l 1,1,-1
 700 1600 l 1,2,-1
 500 1600 l 1,3,-1
 700 1800 l 1,4,-1
 900 1800 l 1,5,-1
 1100 1600 l 1,6,-1
 900 1600 l 1,0,-1
600 1200 m 1,7,-1
 600 200 l 1,8,-1
 1000 200 l 1,9,-1
 1000 1200 l 1,10,-1
 600 1200 l 1,7,-1
200 1200 m 1,11,-1
 400 1200 l 1,12,-1
 400 1400 l 1,13,-1
 1200 1400 l 1,14,-1
 1200 1200 l 1,15,-1
 1400 1200 l 1,16,-1
 1400 200 l 1,17,-1
 1200 200 l 1,18,-1
 1200 0 l 1,19,-1
 400 0 l 1,20,-1
 400 200 l 1,21,-1
 200 200 l 1,22,-1
 200 1200 l 1,11,-1
EndSplineSet
EndChar

StartChar: Otilde
Encoding: 213 213 137
Width: 1600
Flags: W
LayerCount: 2
Fore
SplineSet
600 1200 m 1,0,-1
 600 200 l 1,1,-1
 1000 200 l 1,2,-1
 1000 1200 l 1,3,-1
 600 1200 l 1,0,-1
1000 1800 m 1,4,-1
 1200 1600 l 1,5,-1
 1000 1600 l 1,6,-1
 900 1700 l 1,7,-1
 800 1600 l 1,8,-1
 600 1600 l 1,9,-1
 400 1800 l 1,10,-1
 600 1800 l 1,11,-1
 700 1700 l 1,12,-1
 800 1800 l 1,13,-1
 1000 1800 l 1,4,-1
200 1200 m 1,14,-1
 400 1200 l 1,15,-1
 400 1400 l 1,16,-1
 1200 1400 l 1,17,-1
 1200 1200 l 1,18,-1
 1400 1200 l 1,19,-1
 1400 200 l 1,20,-1
 1200 200 l 1,21,-1
 1200 0 l 1,22,-1
 400 0 l 1,23,-1
 400 200 l 1,24,-1
 200 200 l 1,25,-1
 200 1200 l 1,14,-1
EndSplineSet
EndChar

StartChar: Odieresis
Encoding: 214 214 138
Width: 1600
Flags: W
LayerCount: 2
Fore
SplineSet
504 1796 m 1,0,-1
 700 1796 l 1,1,-1
 700 1600 l 1,2,-1
 504 1600 l 1,3,-1
 504 1796 l 1,0,-1
904 1796 m 1,4,-1
 1100 1796 l 1,5,-1
 1100 1600 l 1,6,-1
 904 1600 l 1,7,-1
 904 1796 l 1,4,-1
600 1200 m 1,8,-1
 600 200 l 1,9,-1
 1000 200 l 1,10,-1
 1000 1200 l 1,11,-1
 600 1200 l 1,8,-1
200 1200 m 1,12,-1
 400 1200 l 1,13,-1
 400 1400 l 1,14,-1
 1200 1400 l 1,15,-1
 1200 1200 l 1,16,-1
 1400 1200 l 1,17,-1
 1400 200 l 1,18,-1
 1200 200 l 1,19,-1
 1200 0 l 1,20,-1
 400 0 l 1,21,-1
 400 200 l 1,22,-1
 200 200 l 1,23,-1
 200 1200 l 1,12,-1
EndSplineSet
EndChar

StartChar: multiply
Encoding: 215 215 139
Width: 1598
Flags: W
LayerCount: 2
Fore
SplineSet
398 900 m 1,0,-1
 198 900 l 1,1,-1
 198 1100 l 1,2,-1
 598 1100 l 1,3,-1
 598 900 l 1,4,-1
 798 900 l 1,5,-1
 798 1100 l 1,6,-1
 1198 1100 l 1,7,-1
 1198 900 l 1,8,-1
 998 900 l 1,9,-1
 998 700 l 1,10,-1
 798 700 l 1,11,-1
 798 500 l 1,12,-1
 998 500 l 1,13,-1
 998 300 l 1,14,-1
 1198 300 l 1,15,-1
 1198 100 l 1,16,-1
 798 100 l 1,17,-1
 798 300 l 1,18,-1
 598 300 l 1,19,-1
 598 100 l 1,20,-1
 198 100 l 1,21,-1
 198 300 l 1,22,-1
 398 300 l 1,23,-1
 398 500 l 1,24,-1
 598 500 l 1,25,-1
 598 700 l 1,26,-1
 398 700 l 1,27,-1
 398 900 l 1,0,-1
EndSplineSet
EndChar

StartChar: Oslash
Encoding: 216 216 140
Width: 1600
Flags: W
LayerCount: 2
Fore
SplineSet
200 1200 m 1,0,-1
 400 1200 l 1,1,-1
 400 1400 l 1,2,-1
 1200 1400 l 1,3,-1
 1200 1200 l 1,4,-1
 1400 1200 l 1,5,-1
 1400 200 l 1,6,-1
 1200 200 l 1,7,-1
 1200 0 l 1,8,-1
 400 0 l 1,9,-1
 400 200 l 1,10,-1
 200 200 l 1,11,-1
 200 1200 l 1,0,-1
595 792 m 1,12,-1
 1000 1200 l 1,13,-1
 595 1200 l 1,14,-1
 595 792 l 1,12,-1
1000 200 m 1,15,-1
 1000 800 l 1,16,-1
 600 400 l 1,17,-1
 600 200 l 1,18,-1
 1000 200 l 1,15,-1
EndSplineSet
EndChar

StartChar: Ugrave
Encoding: 217 217 141
Width: 1600
Flags: W
LayerCount: 2
Fore
SplineSet
600 1800 m 1,0,-1
 800 1800 l 1,1,-1
 1000 1600 l 1,2,-1
 800 1600 l 1,3,-1
 600 1800 l 1,0,-1
200 1400 m 1,4,-1
 600 1400 l 1,5,-1
 600 200 l 1,6,-1
 1000 200 l 1,7,-1
 1000 1400 l 1,8,-1
 1400 1400 l 1,9,-1
 1400 200 l 1,10,-1
 1200 200 l 1,11,-1
 1200 0 l 1,12,-1
 400 0 l 1,13,-1
 400 200 l 1,14,-1
 200 200 l 1,15,-1
 200 1400 l 1,4,-1
EndSplineSet
EndChar

StartChar: Uacute
Encoding: 218 218 142
Width: 1600
Flags: W
LayerCount: 2
Fore
SplineSet
800 1600 m 1,0,-1
 600 1600 l 1,1,-1
 800 1800 l 1,2,-1
 1000 1800 l 1,3,-1
 800 1600 l 1,0,-1
200 1400 m 1,4,-1
 600 1400 l 1,5,-1
 600 200 l 1,6,-1
 1000 200 l 1,7,-1
 1000 1400 l 1,8,-1
 1400 1400 l 1,9,-1
 1400 200 l 1,10,-1
 1200 200 l 1,11,-1
 1200 0 l 1,12,-1
 400 0 l 1,13,-1
 400 200 l 1,14,-1
 200 200 l 1,15,-1
 200 1400 l 1,4,-1
EndSplineSet
EndChar

StartChar: Ucircumflex
Encoding: 219 219 143
Width: 1600
Flags: W
LayerCount: 2
Fore
SplineSet
900 1600 m 1,0,-1
 800 1700 l 1,1,-1
 700 1600 l 1,2,-1
 500 1600 l 1,3,-1
 700 1800 l 1,4,-1
 900 1800 l 1,5,-1
 1100 1600 l 1,6,-1
 900 1600 l 1,0,-1
200 1400 m 1,7,-1
 600 1400 l 1,8,-1
 600 200 l 1,9,-1
 1000 200 l 1,10,-1
 1000 1400 l 1,11,-1
 1400 1400 l 1,12,-1
 1400 200 l 1,13,-1
 1200 200 l 1,14,-1
 1200 0 l 1,15,-1
 400 0 l 1,16,-1
 400 200 l 1,17,-1
 200 200 l 1,18,-1
 200 1400 l 1,7,-1
EndSplineSet
EndChar

StartChar: Udieresis
Encoding: 220 220 144
Width: 1600
Flags: W
LayerCount: 2
Fore
SplineSet
508 1796 m 1,0,-1
 704 1796 l 1,1,-1
 704 1600 l 1,2,-1
 508 1600 l 1,3,-1
 508 1796 l 1,0,-1
904 1802 m 1,4,-1
 1100 1802 l 1,5,-1
 1100 1606 l 1,6,-1
 904 1606 l 1,7,-1
 904 1802 l 1,4,-1
200 1400 m 1,8,-1
 600 1400 l 1,9,-1
 600 200 l 1,10,-1
 1000 200 l 1,11,-1
 1000 1400 l 1,12,-1
 1400 1400 l 1,13,-1
 1400 200 l 1,14,-1
 1200 200 l 1,15,-1
 1200 0 l 1,16,-1
 400 0 l 1,17,-1
 400 200 l 1,18,-1
 200 200 l 1,19,-1
 200 1400 l 1,8,-1
EndSplineSet
EndChar

StartChar: germandbls
Encoding: 223 223 145
Width: 1274
Flags: W
LayerCount: 2
Fore
SplineSet
355 1128 m 1,0,-1
 360 1143 l 1,1,-1
 343 1141 l 2,2,3
 333 1141 333 1141 314 1080 c 1,4,5
 311 1029 311 1029 297 993 c 1,6,-1
 297 982 l 1,7,-1
 307 970 l 1,8,9
 405 930 405 930 410 916 c 2,10,-1
 418 892 l 1,11,-1
 414 864 l 1,12,-1
 410 860 l 1,13,-1
 398 860 l 1,14,-1
 398 870 l 1,15,16
 409 875 409 875 405 883 c 1,17,18
 398 883 398 883 400 903 c 1,19,-1
 395 900 l 1,20,-1
 392 890 l 1,21,-1
 372 894 l 1,22,23
 360 886 360 886 352 892 c 1,24,-1
 352 885 l 1,25,26
 338 889 338 889 324 883 c 1,27,-1
 324 873 l 1,28,-1
 316 873 l 1,29,-1
 316 862 l 1,30,-1
 311 860 l 1,31,-1
 311 862 l 2,32,33
 311 807 311 807 302 788 c 1,34,-1
 302 751 l 1,35,-1
 314 712 l 1,36,37
 324 700 324 700 328 681 c 1,38,39
 360 632 360 632 381 588 c 1,40,-1
 400 538 l 1,41,-1
 405 492 l 1,42,-1
 409 486 l 1,43,44
 407 476 407 476 414 460 c 1,45,-1
 438 438 l 2,46,47
 449 430 449 430 505 418 c 1,48,49
 540 417 540 417 560 430 c 2,50,-1
 571 440 l 1,51,52
 591 442 591 442 717 522 c 1,53,54
 777 575 777 575 788 583 c 1,55,-1
 808 611 l 1,56,-1
 837 688 l 1,57,-1
 837 708 l 1,58,-1
 846 710 l 1,59,-1
 854 719 l 1,60,-1
 854 723 l 1,61,-1
 843 723 l 1,62,-1
 841 739 l 1,63,-1
 846 744 l 1,64,-1
 850 783 l 1,65,-1
 849 825 l 1,66,-1
 860 837 l 1,67,-1
 870 836 l 1,68,-1
 872 807 l 1,69,70
 866 783 866 783 866 754 c 1,71,-1
 859 727 l 1,72,-1
 867 731 l 1,73,74
 886 727 886 727 913 740 c 1,75,76
 963 782 963 782 963 794 c 2,77,-1
 985 864 l 1,78,-1
 990 868 l 1,79,-1
 985 924 l 2,80,81
 980 938 980 938 963 947 c 1,82,-1
 934 941 l 1,83,84
 924 930 924 930 920 933 c 1,85,-1
 916 924 l 1,86,87
 905 926 905 926 903 920 c 2,88,-1
 893 901 l 1,89,-1
 886 900 l 1,90,91
 891 896 891 896 885 890 c 1,92,-1
 867 896 l 1,93,-1
 881 909 l 1,94,95
 881 918 881 918 889 920 c 1,96,-1
 886 930 l 1,97,-1
 867 948 l 1,98,99
 870 938 870 938 854 933 c 1,100,-1
 837 936 l 1,101,-1
 829 945 l 1,102,-1
 832 947 l 1,103,-1
 816 959 l 1,104,-1
 802 982 l 1,105,-1
 765 1013 l 1,106,-1
 766 1024 l 1,107,-1
 763 1027 l 1,108,-1
 761 1076 l 1,109,-1
 753 1086 l 1,110,111
 744 1116 744 1116 742 1154 c 1,112,-1
 735 1150 l 1,113,-1
 715 1168 l 1,114,-1
 691 1172 l 1,115,-1
 682 1166 l 1,116,-1
 672 1166 l 1,117,118
 674 1159 674 1159 664 1159 c 1,119,120
 653 1166 653 1166 489 1154 c 1,121,-1
 472 1148 l 1,122,123
 452 1150 452 1150 441 1144 c 1,124,-1
 440 1141 l 1,125,-1
 422 1139 l 1,126,-1
 402 1129 l 1,127,-1
 381 1109 l 1,128,-1
 369 1110 l 1,129,130
 368 1118 368 1118 392 1144 c 1,131,-1
 380 1141 l 1,132,-1
 369 1126 l 1,133,-1
 355 1128 l 1,0,-1
398 852 m 1,134,-1
 407 852 l 1,135,-1
 398 827 l 1,136,137
 402 824 402 824 398 809 c 2,138,-1
 392 798 l 1,139,-1
 392 789 l 1,140,-1
 377 751 l 1,141,-1
 377 744 l 1,142,-1
 369 733 l 1,143,-1
 364 719 l 1,144,-1
 387 699 l 1,145,-1
 422 688 l 1,146,147
 441 692 441 692 448 688 c 2,148,-1
 469 675 l 1,149,-1
 464 666 l 1,150,-1
 449 666 l 1,151,-1
 433 673 l 1,152,-1
 412 672 l 1,153,154
 395 684 395 684 386 680 c 1,155,-1
 395 666 l 1,156,-1
 410 657 l 1,157,-1
 441 649 l 1,158,-1
 445 643 l 1,159,160
 491 651 491 651 512 645 c 1,161,-1
 563 645 l 1,162,-1
 613 653 l 1,163,164
 622 649 622 649 624 643 c 0,165,166
 627 634 627 634 621 632 c 2,167,-1
 611 632 l 1,168,169
 606 620 606 620 584 607 c 1,170,-1
 576 609 l 1,171,-1
 567 596 l 1,172,-1
 550 596 l 1,173,-1
 529 584 l 1,174,175
 512 586 512 586 486 580 c 1,176,177
 440 584 440 584 423 599 c 1,178,-1
 425 592 l 1,179,-1
 433 581 l 1,180,-1
 469 560 l 1,181,-1
 469 550 l 1,182,-1
 454 550 l 1,183,184
 454 556 454 556 435 556 c 1,185,-1
 429 561 l 1,186,-1
 425 561 l 1,187,-1
 425 552 l 1,188,189
 435 552 435 552 440 541 c 1,190,-1
 440 530 l 1,191,-1
 435 527 l 1,192,193
 423 526 423 526 418 531 c 1,194,-1
 417 542 l 1,195,-1
 409 553 l 1,196,197
 412 567 412 567 398 611 c 1,198,-1
 398 620 l 1,199,-1
 407 628 l 1,200,-1
 402 642 l 1,201,-1
 387 654 l 1,202,-1
 355 672 l 1,203,204
 352 684 352 684 360 688 c 1,205,-1
 369 688 l 1,206,207
 374 677 374 677 381 681 c 1,208,209
 369 703 369 703 349 703 c 1,210,-1
 347 712 l 1,211,-1
 360 721 l 1,212,213
 350 729 350 729 357 744 c 1,214,215
 364 749 364 749 372 773 c 2,216,-1
 377 798 l 1,217,-1
 383 809 l 1,218,219
 380 814 380 814 392 836 c 1,220,-1
 391 843 l 1,221,-1
 398 852 l 1,134,-1
435 712 m 1,222,223
 444 706 444 706 452 708 c 2,224,-1
 501 710 l 1,225,-1
 516 721 l 1,226,-1
 517 733 l 1,227,-1
 529 733 l 1,228,-1
 530 727 l 1,229,-1
 530 718 l 1,230,-1
 501 688 l 1,231,232
 489 685 489 685 493 680 c 1,233,234
 480 677 480 677 479 684 c 2,235,-1
 479 688 l 1,236,-1
 489 699 l 1,237,238
 455 691 455 691 440 699 c 1,239,-1
 423 692 l 1,240,-1
 417 695 l 1,241,-1
 417 706 l 1,242,-1
 435 712 l 1,222,223
565 727 m 1,243,-1
 576 725 l 1,244,245
 591 714 591 714 617 685 c 1,246,247
 647 670 647 670 655 647 c 1,248,-1
 653 627 l 1,249,-1
 643 627 l 1,250,-1
 642 632 l 1,251,-1
 643 639 l 1,252,-1
 635 658 l 1,253,254
 613 670 613 670 614 672 c 2,255,-1
 604 675 l 1,256,-1
 565 716 l 2,257,258
 561 721 561 721 565 727 c 1,243,-1
483 594 m 1,259,-1
 501 594 l 1,260,-1
 503 599 l 1,261,262
 510 602 510 602 522 594 c 1,263,264
 538 596 538 596 543 605 c 1,265,-1
 560 605 l 1,266,-1
 563 614 l 1,267,-1
 590 627 l 1,268,-1
 590 634 l 1,269,-1
 569 629 l 1,270,-1
 567 627 l 1,271,-1
 565 629 l 1,272,-1
 543 628 l 1,273,-1
 545 624 l 1,274,-1
 543 627 l 1,275,-1
 534 624 l 1,276,277
 529 629 529 629 519 629 c 1,278,-1
 505 620 l 1,279,-1
 491 628 l 1,280,281
 475 619 475 619 464 623 c 1,282,283
 466 628 466 628 440 627 c 1,284,-1
 429 634 l 1,285,-1
 425 632 l 1,286,287
 433 627 433 627 433 614 c 1,288,-1
 445 599 l 1,289,-1
 483 594 l 1,259,-1
479 568 m 1,290,-1
 489 568 l 1,291,-1
 495 565 l 1,292,293
 503 567 503 567 514 565 c 1,294,295
 512 552 512 552 491 550 c 2,296,-1
 476 550 l 1,297,-1
 479 568 l 1,290,-1
553 890 m 2,298,-1
 553 886 l 1,299,-1
 591 877 l 2,300,301
 600 871 600 871 594 866 c 1,302,-1
 576 870 l 1,303,-1
 561 868 l 1,304,305
 540 881 540 881 545 886 c 1,306,-1
 536 886 l 1,307,-1
 534 879 l 1,308,-1
 526 881 l 1,309,310
 519 898 519 898 574 915 c 1,311,-1
 614 911 l 1,312,-1
 672 885 l 1,313,314
 674 875 674 875 666 873 c 2,315,-1
 651 873 l 1,316,-1
 646 879 l 1,317,-1
 633 883 l 1,318,-1
 621 879 l 1,319,-1
 594 879 l 1,320,-1
 579 900 l 1,321,322
 555 896 555 896 553 890 c 2,298,-1
596 968 m 1,323,324
 614 963 614 963 622 968 c 1,325,326
 631 960 631 960 642 960 c 2,327,-1
 666 967 l 1,328,-1
 674 963 l 1,329,330
 679 951 679 951 658 947 c 1,331,332
 621 947 621 947 617 957 c 1,333,-1
 545 932 l 1,334,335
 532 932 532 932 512 923 c 1,336,-1
 491 923 l 1,337,338
 479 914 479 914 475 926 c 1,339,-1
 476 933 l 1,340,341
 485 932 485 932 495 945 c 1,342,-1
 545 953 l 1,343,344
 548 959 548 959 569 957 c 1,345,346
 574 967 574 967 596 968 c 1,323,324
448 932 m 0,347,348
 458 932 458 932 469 923 c 1,349,350
 470 911 470 911 462 909 c 2,351,-1
 455 909 l 1,352,-1
 441 920 l 1,353,354
 440 930 440 930 448 932 c 0,347,348
302 933 m 1,355,356
 320 938 320 938 330 933 c 1,357,-1
 330 926 l 1,358,-1
 321 923 l 1,359,-1
 324 920 l 1,360,361
 337 929 337 929 368 920 c 1,362,-1
 377 909 l 1,363,-1
 383 915 l 1,364,365
 376 918 376 918 368 924 c 1,366,-1
 352 926 l 1,367,-1
 343 936 l 1,368,-1
 320 944 l 1,369,-1
 310 953 l 2,370,371
 302 955 302 955 297 947 c 1,372,-1
 302 933 l 1,355,356
347 894 m 1,373,-1
 350 894 l 1,374,-1
 347 909 l 1,375,376
 334 914 334 914 328 901 c 1,377,-1
 347 894 l 1,373,-1
951 940 m 1,378,379
 977 940 977 940 977 930 c 2,380,-1
 977 923 l 1,381,-1
 959 929 l 1,382,-1
 920 894 l 1,383,384
 920 879 920 879 913 877 c 1,385,-1
 912 860 l 1,386,-1
 901 843 l 1,387,-1
 903 812 l 1,388,-1
 891 788 l 1,389,-1
 912 794 l 1,390,-1
 924 794 l 1,391,-1
 930 809 l 1,392,393
 939 812 939 812 939 807 c 2,394,-1
 932 794 l 1,395,-1
 925 794 l 1,396,-1
 917 782 l 1,397,398
 889 779 889 779 885 769 c 1,399,400
 872 767 872 767 870 774 c 1,401,-1
 886 812 l 1,402,-1
 886 847 l 1,403,-1
 895 854 l 1,404,405
 891 858 891 858 895 871 c 1,406,-1
 903 881 l 1,407,408
 899 890 899 890 912 907 c 1,409,-1
 951 940 l 1,378,379
922 870 m 0,410,411
 934 870 934 870 936 862 c 0,412,413
 939 848 939 848 932 843 c 1,414,-1
 924 844 l 1,415,-1
 916 860 l 2,416,417
 913 870 913 870 922 870 c 0,410,411
954 915 m 1,418,419
 967 916 967 916 969 903 c 2,420,-1
 977 858 l 1,421,-1
 963 803 l 1,422,-1
 956 801 l 1,423,-1
 953 807 l 1,424,425
 966 858 966 858 961 864 c 0,426,427
 951 903 951 903 954 915 c 1,418,419
628 282 m 1,428,429
 759 286 759 286 802 334 c 1,430,-1
 815 336 l 1,431,-1
 829 349 l 1,432,-1
 833 349 l 1,433,-1
 824 355 l 1,434,-1
 837 375 l 1,435,-1
 848 406 l 1,436,-1
 854 411 l 1,437,438
 867 453 867 453 874 457 c 1,439,-1
 889 497 l 1,440,-1
 903 514 l 1,441,-1
 895 519 l 1,442,-1
 891 537 l 1,443,-1
 878 550 l 1,444,-1
 878 552 l 2,445,446
 877 488 877 488 870 476 c 2,447,-1
 859 445 l 1,448,-1
 848 445 l 1,449,-1
 848 463 l 1,450,-1
 854 472 l 1,451,-1
 860 495 l 1,452,-1
 855 499 l 1,453,454
 850 545 850 545 855 575 c 1,455,-1
 848 628 l 1,456,-1
 841 627 l 1,457,-1
 812 575 l 1,458,-1
 780 552 l 1,459,-1
 731 508 l 1,460,-1
 722 507 l 1,461,-1
 717 499 l 1,462,-1
 672 474 l 1,463,-1
 650 457 l 1,464,-1
 594 427 l 1,465,-1
 581 425 l 1,466,467
 561 406 561 406 529 402 c 1,468,-1
 529 399 l 1,469,-1
 538 391 l 1,470,471
 538 377 538 377 548 364 c 1,472,-1
 567 356 l 1,473,-1
 567 351 l 1,474,-1
 519 351 l 1,475,476
 524 377 524 377 519 387 c 1,477,-1
 503 391 l 1,478,-1
 483 391 l 1,479,-1
 441 340 l 1,480,-1
 438 340 l 1,481,-1
 448 338 l 1,482,483
 452 323 452 323 458 323 c 1,484,485
 470 282 470 282 628 282 c 1,428,429
400 1313 m 1,486,-1
 409 1309 l 1,487,-1
 429 1331 l 1,488,-1
 449 1337 l 1,489,-1
 466 1354 l 1,490,-1
 483 1357 l 1,491,-1
 483 1361 l 1,492,493
 495 1359 495 1359 517 1374 c 1,494,-1
 560 1384 l 1,495,496
 600 1384 600 1384 627 1392 c 1,497,-1
 637 1392 l 2,498,499
 659 1392 659 1392 686 1385 c 1,500,-1
 730 1361 l 1,501,-1
 742 1357 l 1,502,-1
 765 1340 l 1,503,-1
 789 1333 l 1,504,-1
 801 1322 l 1,505,-1
 811 1318 l 1,506,-1
 815 1309 l 1,507,-1
 829 1298 l 1,508,-1
 832 1291 l 1,509,-1
 846 1279 l 1,510,511
 849 1266 849 1266 864 1248 c 1,512,-1
 885 1244 l 1,513,-1
 893 1233 l 1,514,515
 913 1229 913 1229 917 1205 c 1,516,-1
 916 1203 l 1,517,-1
 917 1194 l 1,518,-1
 928 1188 l 1,519,-1
 928 1177 l 1,520,521
 936 1175 936 1175 953 1141 c 1,522,-1
 967 1098 l 1,523,-1
 967 1042 l 1,524,-1
 961 1024 l 1,525,-1
 963 998 l 1,526,-1
 967 994 l 1,527,-1
 966 963 l 1,528,-1
 992 941 l 1,529,-1
 1000 923 l 1,530,-1
 1000 892 l 1,531,532
 1006 886 1006 886 1004 871 c 1,533,-1
 1000 866 l 1,534,-1
 1000 856 l 1,535,-1
 997 851 l 1,536,-1
 997 840 l 1,537,-1
 985 820 l 1,538,-1
 977 788 l 1,539,-1
 956 761 l 2,540,541
 936 739 936 739 922 731 c 1,542,-1
 917 723 l 1,543,-1
 913 723 l 1,544,-1
 893 708 l 1,545,-1
 886 675 l 2,546,547
 881 668 881 668 881 651 c 1,548,549
 895 654 895 654 901 649 c 2,550,-1
 908 643 l 1,551,-1
 922 638 l 1,552,-1
 947 614 l 1,553,-1
 953 602 l 1,554,-1
 961 596 l 1,555,-1
 975 567 l 1,556,-1
 982 565 l 1,557,-1
 990 552 l 1,558,-1
 1000 545 l 1,559,-1
 1013 526 l 1,560,-1
 1041 499 l 1,561,-1
 1047 488 l 1,562,-1
 1058 479 l 1,563,-1
 1072 461 l 1,564,-1
 1107 430 l 1,565,-1
 1121 389 l 1,566,-1
 1123 359 l 1,567,-1
 1130 349 l 1,568,569
 1133 326 1133 326 1136 325 c 2,570,-1
 1135 275 l 1,571,-1
 970 275 l 1,572,-1
 124 277 l 1,573,-1
 147 328 l 1,574,-1
 168 351 l 1,575,-1
 174 360 l 1,576,-1
 208 387 l 1,577,-1
 223 408 l 1,578,579
 252 425 252 425 249 430 c 1,580,-1
 283 445 l 1,581,-1
 290 460 l 1,582,-1
 320 471 l 1,583,-1
 324 478 l 1,584,-1
 337 482 l 1,585,-1
 341 489 l 1,586,-1
 381 514 l 1,587,-1
 386 514 l 1,588,-1
 386 530 l 1,589,590
 380 531 380 531 380 556 c 1,591,592
 369 561 369 561 368 575 c 0,593,594
 369 580 369 580 360 590 c 1,595,-1
 360 602 l 1,596,-1
 355 603 l 1,597,598
 357 607 357 607 341 628 c 1,599,-1
 337 643 l 1,600,-1
 328 651 l 1,601,-1
 303 696 l 1,602,-1
 303 706 l 1,603,-1
 294 712 l 1,604,-1
 283 759 l 1,605,-1
 283 794 l 1,606,-1
 287 803 l 1,607,608
 290 825 290 825 287 840 c 1,609,-1
 290 848 l 1,610,-1
 292 883 l 1,611,612
 285 892 285 892 290 911 c 1,613,-1
 285 936 l 1,614,-1
 268 955 l 1,615,-1
 266 978 l 1,616,617
 280 1001 280 1001 279 1006 c 1,618,-1
 283 1008 l 1,619,620
 287 1016 287 1016 283 1040 c 1,621,-1
 287 1048 l 1,622,623
 285 1065 285 1065 290 1075 c 1,624,625
 287 1113 287 1113 302 1132 c 2,626,-1
 307 1139 l 1,627,-1
 314 1158 l 1,628,-1
 316 1181 l 1,629,-1
 341 1218 l 1,630,-1
 347 1221 l 1,631,-1
 360 1261 l 1,632,-1
 369 1279 l 1,633,634
 400 1303 400 1303 400 1313 c 1,486,-1
691 963 m 1,635,-1
 715 951 l 1,636,-1
 730 936 l 1,637,-1
 727 924 l 1,638,-1
 734 923 l 1,639,-1
 742 909 l 1,640,-1
 742 898 l 1,641,-1
 730 900 l 1,642,-1
 724 918 l 1,643,-1
 700 938 l 1,644,645
 693 936 693 936 682 951 c 1,646,647
 682 963 682 963 691 963 c 1,635,-1
577 933 m 1,648,-1
 617 930 l 1,649,-1
 637 923 l 1,650,651
 639 914 639 914 633 914 c 2,652,-1
 604 918 l 1,653,-1
 594 916 l 1,654,-1
 557 923 l 1,655,-1
 538 914 l 1,656,657
 529 916 529 916 526 911 c 1,658,659
 534 907 534 907 526 896 c 1,660,-1
 510 894 l 1,661,-1
 503 896 l 1,662,663
 501 905 501 905 507 905 c 2,664,-1
 516 905 l 1,665,-1
 519 909 l 1,666,667
 516 916 516 916 519 918 c 2,668,-1
 529 918 l 1,669,670
 532 930 532 930 577 933 c 1,648,-1
429 1168 m 1,671,-1
 429 1166 l 1,672,-1
 440 1168 l 1,673,-1
 454 1162 l 1,674,675
 476 1162 476 1162 495 1172 c 1,676,677
 517 1168 517 1168 534 1173 c 1,678,-1
 534 1175 l 1,679,680
 462 1169 462 1169 445 1179 c 1,681,-1
 448 1188 l 1,682,-1
 464 1192 l 1,683,684
 501 1188 501 1188 505 1192 c 1,685,-1
 517 1188 l 1,686,-1
 512 1194 l 2,687,688
 510 1202 510 1202 516 1202 c 2,689,-1
 555 1198 l 1,690,-1
 560 1194 l 1,691,-1
 581 1188 l 1,692,-1
 579 1194 l 1,693,-1
 553 1218 l 1,694,695
 512 1222 512 1222 510 1230 c 1,696,697
 491 1233 491 1233 480 1226 c 1,698,-1
 470 1233 l 1,699,-1
 466 1222 l 1,700,-1
 458 1221 l 1,701,-1
 458 1215 l 1,702,-1
 486 1221 l 1,703,-1
 501 1218 l 1,704,705
 497 1203 497 1203 501 1200 c 1,706,-1
 495 1196 l 1,707,708
 475 1200 475 1200 445 1196 c 1,709,-1
 438 1187 l 1,710,711
 440 1169 440 1169 429 1168 c 1,671,-1
611 1221 m 1,712,-1
 619 1221 l 1,713,714
 611 1241 611 1241 543 1249 c 1,715,-1
 512 1248 l 1,716,-1
 514 1244 l 1,717,718
 577 1241 577 1241 611 1221 c 1,712,-1
550 1264 m 1,719,720
 563 1268 563 1268 591 1263 c 1,721,-1
 619 1251 l 1,722,-1
 635 1249 l 1,723,-1
 635 1253 l 1,724,-1
 571 1274 l 2,725,726
 565 1279 565 1279 567 1285 c 1,727,-1
 574 1288 l 1,728,729
 597 1285 597 1285 629 1274 c 2,730,-1
 677 1253 l 1,731,-1
 691 1244 l 1,732,-1
 696 1244 l 1,733,-1
 693 1249 l 1,734,735
 664 1263 664 1263 668 1268 c 1,736,-1
 684 1266 l 1,737,738
 684 1272 684 1272 643 1289 c 1,739,-1
 637 1289 l 1,740,-1
 642 1283 l 1,741,-1
 662 1274 l 1,742,-1
 662 1266 l 1,743,744
 646 1263 646 1263 614 1289 c 1,745,746
 591 1294 591 1294 567 1294 c 1,747,748
 560 1283 560 1283 538 1288 c 2,749,-1
 560 1281 l 1,750,-1
 560 1272 l 1,751,-1
 555 1270 l 1,752,-1
 538 1274 l 1,753,-1
 505 1276 l 1,754,-1
 550 1264 l 1,719,720
633 1303 m 1,755,-1
 639 1303 l 1,756,-1
 635 1309 l 1,757,-1
 621 1309 l 1,758,-1
 608 1327 l 1,759,-1
 600 1313 l 1,760,-1
 600 1309 l 1,761,762
 621 1312 621 1312 633 1303 c 1,755,-1
629 1334 m 1,763,-1
 635 1334 l 1,764,-1
 639 1346 l 1,765,-1
 674 1334 l 1,766,-1
 674 1331 l 1,767,-1
 682 1331 l 1,768,-1
 682 1334 l 1,769,-1
 646 1348 l 1,770,-1
 600 1348 l 1,771,-1
 600 1342 l 1,772,-1
 629 1334 l 1,763,-1
712 1303 m 1,773,-1
 722 1303 l 1,774,775
 719 1309 719 1309 691 1318 c 1,776,-1
 693 1324 l 1,777,-1
 691 1328 l 1,778,-1
 684 1328 l 1,779,-1
 684 1324 l 1,780,-1
 653 1328 l 1,781,-1
 651 1324 l 1,782,-1
 655 1322 l 1,783,-1
 668 1324 l 1,784,-1
 696 1313 l 1,785,-1
 712 1303 l 1,773,-1
452 847 m 1,786,-1
 467 839 l 1,787,788
 453 821 453 821 448 792 c 1,789,-1
 440 797 l 1,790,-1
 452 847 l 1,786,-1
781 1046 m 1,791,-1
 785 1048 l 1,792,793
 785 1075 785 1075 777 1090 c 1,794,-1
 775 1090 l 1,795,-1
 781 1046 l 1,791,-1
100 251 m 1,796,-1
 167 251 l 1,797,-1
 167 239 l 1,798,-1
 123 239 l 1,799,-1
 123 219 l 1,800,-1
 142 219 l 1,801,-1
 142 208 l 1,802,-1
 123 207 l 1,803,-1
 123 174 l 1,804,-1
 100 174 l 1,805,-1
 100 251 l 1,796,-1
385 241 m 1,806,-1
 406 241 l 1,807,-1
 406 229 l 1,808,-1
 429 229 l 1,809,-1
 428 219 l 1,810,-1
 406 219 l 1,811,-1
 406 185 l 1,812,-1
 428 185 l 1,813,-1
 428 174 l 1,814,-1
 395 174 l 1,815,-1
 395 185 l 1,816,-1
 385 185 l 1,817,-1
 385 219 l 1,818,-1
 363 219 l 1,819,-1
 363 229 l 1,820,-1
 385 229 l 1,821,-1
 385 241 l 1,806,-1
888 241 m 1,822,-1
 909 241 l 1,823,-1
 909 229 l 1,824,-1
 932 229 l 1,825,-1
 932 219 l 1,826,-1
 909 219 l 1,827,-1
 909 185 l 1,828,-1
 932 185 l 1,829,-1
 932 174 l 1,830,-1
 898 174 l 1,831,-1
 898 185 l 1,832,-1
 888 185 l 1,833,-1
 888 219 l 1,834,-1
 865 219 l 1,835,-1
 865 229 l 1,836,-1
 888 229 l 1,837,-1
 888 241 l 1,822,-1
1084 241 m 1,838,-1
 1106 241 l 1,839,-1
 1106 174 l 1,840,-1
 1050 174 l 1,841,-1
 1050 185 l 1,842,-1
 1040 185 l 1,843,-1
 1040 207 l 1,844,-1
 1050 207 l 1,845,-1
 1050 219 l 1,846,-1
 1084 219 l 1,847,-1
 1084 241 l 1,838,-1
198 229 m 1,848,-1
 244 229 l 1,849,-1
 244 219 l 1,850,-1
 254 219 l 1,851,-1
 254 185 l 1,852,-1
 244 185 l 1,853,-1
 244 174 l 1,854,-1
 198 174 l 1,855,-1
 198 185 l 1,856,-1
 188 185 l 1,857,-1
 188 219 l 1,858,-1
 198 219 l 1,859,-1
 198 229 l 1,848,-1
275 229 m 1,860,-1
 331 229 l 1,861,-1
 331 219 l 1,862,-1
 341 219 l 1,863,-1
 341 174 l 1,864,-1
 319 174 l 1,865,-1
 319 219 l 1,866,-1
 298 218 l 1,867,-1
 298 174 l 1,868,-1
 275 174 l 1,869,-1
 275 229 l 1,860,-1
527 229 m 1,870,-1
 572 229 l 1,871,-1
 572 219 l 1,872,-1
 539 219 l 1,873,-1
 539 185 l 1,874,-1
 572 185 l 1,875,-1
 572 174 l 1,876,-1
 527 174 l 1,877,-1
 527 185 l 1,878,-1
 516 185 l 1,879,-1
 516 219 l 1,880,-1
 527 219 l 1,881,-1
 527 229 l 1,870,-1
604 229 m 1,882,-1
 659 229 l 1,883,-1
 659 219 l 1,884,-1
 669 219 l 1,885,-1
 669 207 l 1,886,-1
 647 207 l 1,887,-1
 647 219 l 1,888,-1
 626 219 l 1,889,-1
 626 174 l 1,890,-1
 604 174 l 1,891,-1
 604 229 l 1,882,-1
701 229 m 1,892,-1
 746 229 l 1,893,-1
 746 219 l 1,894,-1
 757 219 l 1,895,-1
 757 195 l 1,896,-1
 713 195 l 1,897,-1
 713 185 l 1,898,-1
 746 185 l 1,899,-1
 746 174 l 1,900,-1
 703 174 l 1,901,-1
 703 185 l 1,902,-1
 691 185 l 1,903,-1
 691 219 l 1,904,-1
 701 219 l 1,905,-1
 701 229 l 1,892,-1
788 229 m 1,906,-1
 833 229 l 1,907,-1
 833 219 l 1,908,-1
 844 219 l 1,909,-1
 844 174 l 1,910,-1
 788 174 l 1,911,-1
 788 185 l 1,912,-1
 778 185 l 1,913,-1
 778 197 l 1,914,-1
 788 197 l 1,915,-1
 788 207 l 1,916,-1
 821 207 l 1,917,-1
 821 219 l 1,918,-1
 788 219 l 1,919,-1
 788 229 l 1,906,-1
963 229 m 1,920,-1
 1008 229 l 1,921,-1
 1008 219 l 1,922,-1
 1019 219 l 1,923,-1
 1019 195 l 1,924,-1
 976 195 l 1,925,-1
 975 185 l 1,926,-1
 1008 185 l 1,927,-1
 1008 174 l 1,928,-1
 965 174 l 1,929,-1
 965 185 l 1,930,-1
 953 185 l 1,931,-1
 953 219 l 1,932,-1
 963 219 l 1,933,-1
 963 229 l 1,920,-1
211 219 m 1,934,-1
 211 185 l 1,935,-1
 231 185 l 1,936,-1
 231 219 l 1,937,-1
 211 219 l 1,934,-1
713 219 m 1,938,-1
 713 207 l 1,939,-1
 734 207 l 1,940,-1
 734 219 l 1,941,-1
 713 219 l 1,938,-1
975 219 m 1,942,-1
 975 207 l 1,943,-1
 996 207 l 1,944,-1
 996 219 l 1,945,-1
 975 219 l 1,942,-1
1062 207 m 1,946,-1
 1062 185 l 1,947,-1
 1084 185 l 1,948,-1
 1084 207 l 1,949,-1
 1062 207 l 1,946,-1
801 195 m 1,950,-1
 801 185 l 1,951,-1
 821 185 l 1,952,-1
 821 195 l 1,953,-1
 801 195 l 1,950,-1
341 164 m 1,954,-1
 385 164 l 1,955,-1
 385 154 l 1,956,-1
 397 154 l 1,957,-1
 397 142 l 1,958,-1
 408 142 l 1,959,-1
 408 108 l 1,960,-1
 397 108 l 1,961,-1
 397 98 l 1,962,-1
 385 98 l 1,963,-1
 385 87 l 1,964,-1
 341 87 l 1,965,-1
 341 164 l 1,954,-1
626 164 m 1,966,-1
 647 164 l 1,967,-1
 647 152 l 1,968,-1
 626 152 l 1,969,-1
 626 164 l 1,966,-1
855 164 m 1,970,-1
 900 164 l 1,971,-1
 900 154 l 1,972,-1
 910 154 l 1,973,-1
 910 142 l 1,974,-1
 888 142 l 1,975,-1
 888 152 l 1,976,-1
 867 152 l 1,977,-1
 867 98 l 1,978,-1
 888 98 l 1,979,-1
 888 110 l 1,980,-1
 910 110 l 1,981,-1
 910 98 l 1,982,-1
 900 98 l 1,983,-1
 900 87 l 1,984,-1
 855 87 l 1,985,-1
 855 98 l 1,986,-1
 845 98 l 1,987,-1
 844 154 l 1,988,-1
 855 154 l 1,989,-1
 855 164 l 1,970,-1
1106 164 m 1,990,-1
 1129 164 l 1,991,-1
 1129 120 l 1,992,-1
 1139 120 l 1,993,-1
 1139 131 l 1,994,-1
 1162 131 l 1,995,-1
 1162 121 l 1,996,-1
 1150 120 l 1,997,-1
 1150 110 l 1,998,-1
 1162 110 l 1,999,-1
 1162 98 l 1,1000,-1
 1172 98 l 1,1001,-1
 1173 87 l 1,1002,-1
 1150 87 l 1,1003,-1
 1150 98 l 1,1004,-1
 1139 98 l 1,1005,-1
 1139 108 l 1,1006,-1
 1129 108 l 1,1007,-1
 1129 87 l 1,1008,-1
 1106 87 l 1,1009,-1
 1106 164 l 1,990,-1
100 154 m 1,1010,-1
 123 154 l 1,1011,-1
 123 131 l 1,1012,-1
 156 131 l 1,1013,-1
 156 120 l 1,1014,-1
 167 120 l 1,1015,-1
 167 98 l 1,1016,-1
 156 98 l 1,1017,-1
 156 87 l 1,1018,-1
 100 87 l 1,1019,-1
 100 154 l 1,1010,-1
364 152 m 1,1020,-1
 364 98 l 1,1021,-1
 375 98 l 1,1022,-1
 375 110 l 1,1023,-1
 385 110 l 1,1024,-1
 385 142 l 1,1025,-1
 375 142 l 1,1026,-1
 375 152 l 1,1027,-1
 364 152 l 1,1020,-1
188 142 m 1,1028,-1
 211 142 l 1,1029,-1
 211 110 l 1,1030,-1
 231 110 l 1,1031,-1
 231 142 l 1,1032,-1
 254 142 l 1,1033,-1
 254 99 l 1,1034,-1
 242 99 l 1,1035,-1
 242 87 l 1,1036,-1
 231 87 l 1,1037,-1
 231 77 l 1,1038,-1
 188 77 l 1,1039,-1
 188 87 l 1,1040,-1
 221 87 l 1,1041,-1
 221 98 l 1,1042,-1
 198 98 l 1,1043,-1
 198 108 l 1,1044,-1
 188 108 l 1,1045,-1
 188 142 l 1,1028,-1
440 142 m 1,1046,-1
 485 142 l 1,1047,-1
 485 131 l 1,1048,-1
 495 131 l 1,1049,-1
 495 108 l 1,1050,-1
 451 108 l 1,1051,-1
 452 98 l 1,1052,-1
 485 98 l 1,1053,-1
 485 87 l 1,1054,-1
 440 87 l 1,1055,-1
 440 98 l 1,1056,-1
 428 98 l 1,1057,-1
 428 131 l 1,1058,-1
 440 131 l 1,1059,-1
 440 142 l 1,1046,-1
516 142 m 1,1060,-1
 539 142 l 1,1061,-1
 539 110 l 1,1062,-1
 560 110 l 1,1063,-1
 560 142 l 1,1064,-1
 582 142 l 1,1065,-1
 582 108 l 1,1066,-1
 572 108 l 1,1067,-1
 572 98 l 1,1068,-1
 560 98 l 1,1069,-1
 560 87 l 1,1070,-1
 539 87 l 1,1071,-1
 539 98 l 1,1072,-1
 527 98 l 1,1073,-1
 527 108 l 1,1074,-1
 516 108 l 1,1075,-1
 516 142 l 1,1060,-1
614 142 m 1,1076,-1
 647 142 l 1,1077,-1
 647 98 l 1,1078,-1
 659 98 l 1,1079,-1
 659 87 l 1,1080,-1
 614 87 l 1,1081,-1
 614 98 l 1,1082,-1
 626 98 l 1,1083,-1
 626 131 l 1,1084,-1
 614 131 l 1,1085,-1
 614 142 l 1,1076,-1
691 142 m 1,1086,-1
 746 142 l 1,1087,-1
 746 131 l 1,1088,-1
 757 131 l 1,1089,-1
 757 87 l 1,1090,-1
 734 87 l 1,1091,-1
 734 131 l 1,1092,-1
 713 130 l 1,1093,-1
 713 87 l 1,1094,-1
 691 87 l 1,1095,-1
 691 142 l 1,1086,-1
942 142 m 1,1096,-1
 987 142 l 1,1097,-1
 987 131 l 1,1098,-1
 998 131 l 1,1099,-1
 998 98 l 1,1100,-1
 987 98 l 1,1101,-1
 987 87 l 1,1102,-1
 942 87 l 1,1103,-1
 942 98 l 1,1104,-1
 932 98 l 1,1105,-1
 932 131 l 1,1106,-1
 942 131 l 1,1107,-1
 942 142 l 1,1096,-1
1029 142 m 1,1108,-1
 1075 142 l 1,1109,-1
 1075 131 l 1,1110,-1
 1085 131 l 1,1111,-1
 1085 98 l 1,1112,-1
 1075 98 l 1,1113,-1
 1075 87 l 1,1114,-1
 1029 87 l 1,1115,-1
 1029 98 l 1,1116,-1
 1019 98 l 1,1117,-1
 1019 131 l 1,1118,-1
 1029 131 l 1,1119,-1
 1029 142 l 1,1108,-1
452 131 m 1,1120,-1
 452 120 l 1,1121,-1
 472 120 l 1,1122,-1
 472 131 l 1,1123,-1
 452 131 l 1,1120,-1
954 131 m 1,1124,-1
 954 98 l 1,1125,-1
 975 98 l 1,1126,-1
 975 131 l 1,1127,-1
 954 131 l 1,1124,-1
1042 131 m 1,1128,-1
 1042 98 l 1,1129,-1
 1062 98 l 1,1130,-1
 1062 131 l 1,1131,-1
 1042 131 l 1,1128,-1
123 120 m 1,1132,-1
 123 98 l 1,1133,-1
 144 98 l 1,1134,-1
 144 120 l 1,1135,-1
 123 120 l 1,1132,-1
354 56 m 1,1136,-1
 386 56 l 1,1137,-1
 386 48 l 1,1138,-1
 395 48 l 1,1139,-1
 395 39 l 1,1140,-1
 403 39 l 1,1141,-1
 403 15 l 1,1142,-1
 395 15 l 1,1143,-1
 395 8 l 1,1144,-1
 386 8 l 1,1145,-1
 386 0 l 1,1146,-1
 354 0 l 1,1147,-1
 354 56 l 1,1136,-1
561 56 m 1,1148,-1
 576 56 l 1,1149,-1
 576 47 l 1,1150,-1
 561 47 l 1,1151,-1
 561 56 l 1,1148,-1
680 56 m 1,1152,-1
 712 56 l 1,1153,-1
 712 48 l 1,1154,-1
 719 48 l 1,1155,-1
 719 39 l 1,1156,-1
 703 39 l 1,1157,-1
 703 47 l 1,1158,-1
 688 47 l 1,1159,-1
 688 8 l 1,1160,-1
 703 8 l 1,1161,-1
 703 17 l 1,1162,-1
 720 17 l 1,1163,-1
 720 8 l 1,1164,-1
 712 8 l 1,1165,-1
 712 0 l 1,1166,-1
 680 0 l 1,1167,-1
 680 8 l 1,1168,-1
 672 8 l 1,1169,-1
 672 48 l 1,1170,-1
 680 48 l 1,1171,-1
 680 56 l 1,1152,-1
863 56 m 1,1172,-1
 878 56 l 1,1173,-1
 878 24 l 1,1174,-1
 886 24 l 1,1175,-1
 886 32 l 1,1176,-1
 903 32 l 1,1177,-1
 903 24 l 1,1178,-1
 893 24 l 1,1179,-1
 893 17 l 1,1180,-1
 903 17 l 1,1181,-1
 903 8 l 1,1182,-1
 910 8 l 1,1183,-1
 910 0 l 1,1184,-1
 893 0 l 1,1185,-1
 893 8 l 1,1186,-1
 886 8 l 1,1187,-1
 886 15 l 1,1188,-1
 878 15 l 1,1189,-1
 878 0 l 1,1190,-1
 863 0 l 1,1191,-1
 863 56 l 1,1172,-1
371 47 m 1,1192,-1
 371 8 l 1,1193,-1
 379 8 l 1,1194,-1
 379 17 l 1,1195,-1
 386 17 l 1,1196,-1
 386 39 l 1,1197,-1
 379 39 l 1,1198,-1
 379 47 l 1,1199,-1
 371 47 l 1,1192,-1
100 39 m 1,1200,-1
 117 39 l 1,1201,-1
 117 24 l 1,1202,-1
 124 24 l 1,1203,-1
 124 32 l 1,1204,-1
 132 32 l 1,1205,-1
 132 24 l 1,1206,-1
 139 24 l 1,1207,-1
 139 39 l 1,1208,-1
 156 39 l 1,1209,-1
 156 15 l 1,1210,-1
 149 15 l 1,1211,-1
 149 0 l 1,1212,-1
 132 0 l 1,1213,-1
 132 8 l 1,1214,-1
 124 8 l 1,1215,-1
 124 0 l 1,1216,-1
 108 0 l 1,1217,-1
 108 15 l 1,1218,-1
 100 15 l 1,1219,-1
 100 39 l 1,1200,-1
164 39 m 1,1220,-1
 181 39 l 1,1221,-1
 181 24 l 1,1222,-1
 188 24 l 1,1223,-1
 188 32 l 1,1224,-1
 196 32 l 1,1225,-1
 196 24 l 1,1226,-1
 203 24 l 1,1227,-1
 203 39 l 1,1228,-1
 220 39 l 1,1229,-1
 220 15 l 1,1230,-1
 213 15 l 1,1231,-1
 213 0 l 1,1232,-1
 196 0 l 1,1233,-1
 196 8 l 1,1234,-1
 188 8 l 1,1235,-1
 188 0 l 1,1236,-1
 171 0 l 1,1237,-1
 171 15 l 1,1238,-1
 164 15 l 1,1239,-1
 164 39 l 1,1220,-1
228 39 m 1,1240,-1
 244 39 l 1,1241,-1
 244 24 l 1,1242,-1
 252 24 l 1,1243,-1
 252 32 l 1,1244,-1
 259 32 l 1,1245,-1
 259 24 l 1,1246,-1
 267 24 l 1,1247,-1
 267 39 l 1,1248,-1
 283 39 l 1,1249,-1
 283 15 l 1,1250,-1
 275 15 l 1,1251,-1
 275 0 l 1,1252,-1
 259 0 l 1,1253,-1
 259 8 l 1,1254,-1
 252 8 l 1,1255,-1
 252 0 l 1,1256,-1
 235 0 l 1,1257,-1
 235 15 l 1,1258,-1
 228 15 l 1,1259,-1
 228 39 l 1,1240,-1
425 39 m 1,1260,-1
 458 39 l 1,1261,-1
 458 32 l 1,1262,-1
 466 32 l 1,1263,-1
 466 15 l 1,1264,-1
 434 15 l 1,1265,-1
 434 8 l 1,1266,-1
 458 8 l 1,1267,-1
 458 0 l 1,1268,-1
 426 0 l 1,1269,-1
 426 8 l 1,1270,-1
 418 8 l 1,1271,-1
 418 32 l 1,1272,-1
 425 32 l 1,1273,-1
 425 39 l 1,1260,-1
482 39 m 1,1274,-1
 498 39 l 1,1275,-1
 498 17 l 1,1276,-1
 513 17 l 1,1277,-1
 513 39 l 1,1278,-1
 530 39 l 1,1279,-1
 530 15 l 1,1280,-1
 522 15 l 1,1281,-1
 522 8 l 1,1282,-1
 513 8 l 1,1283,-1
 513 0 l 1,1284,-1
 498 0 l 1,1285,-1
 498 8 l 1,1286,-1
 489 8 l 1,1287,-1
 489 15 l 1,1288,-1
 482 15 l 1,1289,-1
 482 39 l 1,1274,-1
552 39 m 1,1290,-1
 576 39 l 1,1291,-1
 576 8 l 1,1292,-1
 586 8 l 1,1293,-1
 586 0 l 1,1294,-1
 552 0 l 1,1295,-1
 552 8 l 1,1296,-1
 561 8 l 1,1297,-1
 561 32 l 1,1298,-1
 552 32 l 1,1299,-1
 552 39 l 1,1290,-1
608 39 m 1,1300,-1
 649 39 l 1,1301,-1
 649 32 l 1,1302,-1
 656 32 l 1,1303,-1
 657 0 l 1,1304,-1
 640 0 l 1,1305,-1
 640 32 l 1,1306,-1
 625 32 l 1,1307,-1
 625 0 l 1,1308,-1
 608 0 l 1,1309,-1
 608 39 l 1,1300,-1
742 39 m 1,1310,-1
 776 39 l 1,1311,-1
 776 32 l 1,1312,-1
 784 32 l 1,1313,-1
 784 8 l 1,1314,-1
 776 8 l 1,1315,-1
 776 0 l 1,1316,-1
 742 0 l 1,1317,-1
 742 8 l 1,1318,-1
 735 8 l 1,1319,-1
 735 32 l 1,1320,-1
 742 32 l 1,1321,-1
 742 39 l 1,1310,-1
806 39 m 1,1322,-1
 839 39 l 1,1323,-1
 839 32 l 1,1324,-1
 847 32 l 1,1325,-1
 847 8 l 1,1326,-1
 839 8 l 1,1327,-1
 839 0 l 1,1328,-1
 806 0 l 1,1329,-1
 806 8 l 1,1330,-1
 799 8 l 1,1331,-1
 799 32 l 1,1332,-1
 806 32 l 1,1333,-1
 806 39 l 1,1322,-1
997 39 m 1,1334,-1
 1029 39 l 1,1335,-1
 1029 32 l 1,1336,-1
 1006 32 l 1,1337,-1
 1006 8 l 1,1338,-1
 1029 8 l 1,1339,-1
 1029 0 l 1,1340,-1
 997 0 l 1,1341,-1
 997 8 l 1,1342,-1
 989 8 l 1,1343,-1
 989 32 l 1,1344,-1
 997 32 l 1,1345,-1
 997 39 l 1,1334,-1
1060 39 m 1,1346,-1
 1093 39 l 1,1347,-1
 1093 32 l 1,1348,-1
 1101 32 l 1,1349,-1
 1101 8 l 1,1350,-1
 1093 8 l 1,1351,-1
 1093 0 l 1,1352,-1
 1060 0 l 1,1353,-1
 1060 8 l 1,1354,-1
 1053 8 l 1,1355,-1
 1053 32 l 1,1356,-1
 1060 32 l 1,1357,-1
 1060 39 l 1,1346,-1
1116 39 m 1,1358,-1
 1133 39 l 1,1359,-1
 1133 32 l 1,1360,-1
 1148 32 l 1,1361,-1
 1148 39 l 1,1362,-1
 1163 39 l 1,1363,-1
 1163 32 l 1,1364,-1
 1171 32 l 1,1365,-1
 1171 0 l 1,1366,-1
 1155 0 l 1,1367,-1
 1155 15 l 1,1368,-1
 1148 15 l 1,1369,-1
 1148 8 l 1,1370,-1
 1140 8 l 1,1371,-1
 1140 15 l 1,1372,-1
 1133 15 l 1,1373,-1
 1133 0 l 1,1374,-1
 1116 0 l 1,1375,-1
 1116 39 l 1,1358,-1
434 32 m 1,1376,-1
 434 24 l 1,1377,-1
 450 24 l 1,1378,-1
 450 32 l 1,1379,-1
 434 32 l 1,1376,-1
752 32 m 1,1380,-1
 752 8 l 1,1381,-1
 767 8 l 1,1382,-1
 767 32 l 1,1383,-1
 752 32 l 1,1380,-1
816 32 m 1,1384,-1
 816 8 l 1,1385,-1
 831 8 l 1,1386,-1
 831 32 l 1,1387,-1
 816 32 l 1,1384,-1
1069 32 m 1,1388,-1
 1069 8 l 1,1389,-1
 1085 8 l 1,1390,-1
 1085 32 l 1,1391,-1
 1069 32 l 1,1388,-1
307 17 m 1,1392,-1
 322 17 l 1,1393,-1
 322 0 l 1,1394,-1
 307 0 l 1,1395,-1
 307 17 l 1,1392,-1
942 17 m 1,1396,-1
 957 17 l 1,1397,-1
 957 0 l 1,1398,-1
 942 0 l 1,1399,-1
 942 17 l 1,1396,-1
EndSplineSet
EndChar

StartChar: agrave
Encoding: 224 224 146
Width: 1600
Flags: W
LayerCount: 2
Fore
SplineSet
600 400 m 1,0,-1
 600 200 l 1,1,-1
 1000 200 l 1,2,-1
 1000 400 l 1,3,-1
 600 400 l 1,0,-1
639 1400 m 1,4,-1
 839 1400 l 1,5,-1
 1039 1200 l 1,6,-1
 839 1200 l 1,7,-1
 639 1400 l 1,4,-1
200 400 m 1,8,-1
 400 400 l 1,9,-1
 400 600 l 1,10,-1
 1000 600 l 1,11,-1
 1000 800 l 1,12,-1
 400 800 l 1,13,-1
 400 1000 l 1,14,-1
 1200 1000 l 1,15,-1
 1200 800 l 1,16,-1
 1400 800 l 1,17,-1
 1400 0 l 1,18,-1
 400 0 l 1,19,-1
 400 200 l 1,20,-1
 200 200 l 1,21,-1
 200 400 l 1,8,-1
EndSplineSet
EndChar

StartChar: aacute
Encoding: 225 225 147
Width: 1600
Flags: W
LayerCount: 2
Fore
SplineSet
600 400 m 1,0,-1
 600 200 l 1,1,-1
 1000 200 l 1,2,-1
 1000 400 l 1,3,-1
 600 400 l 1,0,-1
800 1200 m 1,4,-1
 600 1200 l 1,5,-1
 800 1400 l 1,6,-1
 1000 1400 l 1,7,-1
 800 1200 l 1,4,-1
200 400 m 1,8,-1
 400 400 l 1,9,-1
 400 600 l 1,10,-1
 1000 600 l 1,11,-1
 1000 800 l 1,12,-1
 400 800 l 1,13,-1
 400 1000 l 1,14,-1
 1200 1000 l 1,15,-1
 1200 800 l 1,16,-1
 1400 800 l 1,17,-1
 1400 0 l 1,18,-1
 400 0 l 1,19,-1
 400 200 l 1,20,-1
 200 200 l 1,21,-1
 200 400 l 1,8,-1
EndSplineSet
EndChar

StartChar: acircumflex
Encoding: 226 226 148
Width: 1600
Flags: W
LayerCount: 2
Fore
SplineSet
600 400 m 1,0,-1
 600 200 l 1,1,-1
 1000 200 l 1,2,-1
 1000 400 l 1,3,-1
 600 400 l 1,0,-1
900 1200 m 1,4,-1
 800 1300 l 1,5,-1
 700 1200 l 1,6,-1
 500 1200 l 1,7,-1
 700 1400 l 1,8,-1
 900 1400 l 1,9,-1
 1100 1200 l 1,10,-1
 900 1200 l 1,4,-1
200 400 m 1,11,-1
 400 400 l 1,12,-1
 400 600 l 1,13,-1
 1000 600 l 1,14,-1
 1000 800 l 1,15,-1
 400 800 l 1,16,-1
 400 1000 l 1,17,-1
 1200 1000 l 1,18,-1
 1200 800 l 1,19,-1
 1400 800 l 1,20,-1
 1400 0 l 1,21,-1
 400 0 l 1,22,-1
 400 200 l 1,23,-1
 200 200 l 1,24,-1
 200 400 l 1,11,-1
EndSplineSet
EndChar

StartChar: atilde
Encoding: 227 227 149
Width: 1600
Flags: W
LayerCount: 2
Fore
SplineSet
600 400 m 1,0,-1
 600 200 l 1,1,-1
 1000 200 l 1,2,-1
 1000 400 l 1,3,-1
 600 400 l 1,0,-1
1000 1400 m 1,4,-1
 1200 1200 l 1,5,-1
 1000 1200 l 1,6,-1
 900 1300 l 1,7,-1
 800 1200 l 1,8,-1
 600 1200 l 1,9,-1
 400 1400 l 1,10,-1
 600 1400 l 1,11,-1
 700 1300 l 1,12,-1
 800 1400 l 1,13,-1
 1000 1400 l 1,4,-1
200 400 m 1,14,-1
 400 400 l 1,15,-1
 400 600 l 1,16,-1
 1000 600 l 1,17,-1
 1000 800 l 1,18,-1
 400 800 l 1,19,-1
 400 1000 l 1,20,-1
 1200 1000 l 1,21,-1
 1200 800 l 1,22,-1
 1400 800 l 1,23,-1
 1400 0 l 1,24,-1
 400 0 l 1,25,-1
 400 200 l 1,26,-1
 200 200 l 1,27,-1
 200 400 l 1,14,-1
EndSplineSet
EndChar

StartChar: adieresis
Encoding: 228 228 150
Width: 1600
Flags: W
LayerCount: 2
Fore
SplineSet
600 400 m 1,0,-1
 600 200 l 1,1,-1
 1000 200 l 1,2,-1
 1000 400 l 1,3,-1
 600 400 l 1,0,-1
500 1396 m 1,4,-1
 696 1396 l 1,5,-1
 696 1200 l 1,6,-1
 500 1200 l 1,7,-1
 500 1396 l 1,4,-1
896 1402 m 1,8,-1
 1092 1402 l 1,9,-1
 1092 1206 l 1,10,-1
 896 1206 l 1,11,-1
 896 1402 l 1,8,-1
200 400 m 1,12,-1
 400 400 l 1,13,-1
 400 600 l 1,14,-1
 1000 600 l 1,15,-1
 1000 800 l 1,16,-1
 400 800 l 1,17,-1
 400 1000 l 1,18,-1
 1200 1000 l 1,19,-1
 1200 800 l 1,20,-1
 1400 800 l 1,21,-1
 1400 0 l 1,22,-1
 400 0 l 1,23,-1
 400 200 l 1,24,-1
 200 200 l 1,25,-1
 200 400 l 1,12,-1
EndSplineSet
EndChar

StartChar: aring
Encoding: 229 229 151
Width: 1600
Flags: W
LayerCount: 2
Fore
SplineSet
600 400 m 1,0,-1
 600 200 l 1,1,-1
 1000 200 l 1,2,-1
 1000 400 l 1,3,-1
 600 400 l 1,0,-1
704 1396 m 1,4,-1
 900 1396 l 1,5,-1
 900 1200 l 1,6,-1
 704 1200 l 1,7,-1
 704 1396 l 1,4,-1
200 400 m 1,8,-1
 400 400 l 1,9,-1
 400 600 l 1,10,-1
 1000 600 l 1,11,-1
 1000 800 l 1,12,-1
 400 800 l 1,13,-1
 400 1000 l 1,14,-1
 1200 1000 l 1,15,-1
 1200 800 l 1,16,-1
 1400 800 l 1,17,-1
 1400 0 l 1,18,-1
 400 0 l 1,19,-1
 400 200 l 1,20,-1
 200 200 l 1,21,-1
 200 400 l 1,8,-1
EndSplineSet
EndChar

StartChar: ae
Encoding: 230 230 152
Width: 1600
Flags: W
LayerCount: 2
Fore
SplineSet
400 400 m 1,0,-1
 400 200 l 1,1,-1
 600 200 l 1,2,-1
 600 400 l 1,3,-1
 400 400 l 1,0,-1
1000 800 m 1,4,-1
 1000 600 l 1,5,-1
 1200 600 l 1,6,-1
 1200 800 l 1,7,-1
 1000 800 l 1,4,-1
200 400 m 2,8,9
 200 600 200 600 400 600 c 2,10,-1
 600 600 l 1,11,-1
 600 800 l 1,12,-1
 300 800 l 1,13,14
 300 1000 300 1000 500 1000 c 2,15,-1
 1200 1000 l 2,16,17
 1400 1000 1400 1000 1400 800 c 2,18,-1
 1400 400 l 1,19,-1
 1000 400 l 1,20,-1
 1000 200 l 1,21,-1
 1400 200 l 1,22,-1
 1400 0 l 1,23,-1
 400 0 l 2,24,25
 200 0 200 0 200 200 c 2,26,-1
 200 400 l 2,8,9
EndSplineSet
EndChar

StartChar: ccedilla
Encoding: 231 231 153
Width: 1600
Flags: W
LayerCount: 2
Fore
SplineSet
200 800 m 1,0,-1
 400 800 l 1,1,-1
 400 1000 l 1,2,-1
 1200 1000 l 1,3,-1
 1200 800 l 1,4,-1
 600 800 l 1,5,-1
 600 200 l 1,6,-1
 1200 200 l 1,7,-1
 1200 0 l 1,8,-1
 400 0 l 1,9,-1
 400 200 l 1,10,-1
 200 200 l 1,11,-1
 200 800 l 1,0,-1
800 -200 m 1,12,-1
 400 -200 l 1,13,-1
 600 0 l 1,14,-1
 1000 0 l 1,15,-1
 800 -200 l 1,12,-1
EndSplineSet
EndChar

StartChar: egrave
Encoding: 232 232 154
Width: 1600
Flags: W
LayerCount: 2
Fore
SplineSet
600 800 m 1,0,-1
 600 600 l 1,1,-1
 1000 600 l 1,2,-1
 1000 800 l 1,3,-1
 600 800 l 1,0,-1
600 1400 m 1,4,-1
 800 1400 l 1,5,-1
 1000 1200 l 1,6,-1
 800 1200 l 1,7,-1
 600 1400 l 1,4,-1
200 800 m 1,8,-1
 400 800 l 1,9,-1
 400 1000 l 1,10,-1
 1200 1000 l 1,11,-1
 1200 800 l 1,12,-1
 1400 800 l 1,13,-1
 1400 400 l 1,14,-1
 600 400 l 1,15,-1
 600 200 l 1,16,-1
 1200 200 l 1,17,-1
 1200 0 l 1,18,-1
 400 0 l 1,19,-1
 400 200 l 1,20,-1
 200 200 l 1,21,-1
 200 800 l 1,8,-1
EndSplineSet
EndChar

StartChar: eacute
Encoding: 233 233 155
Width: 1600
Flags: W
LayerCount: 2
Fore
SplineSet
600 800 m 1,0,-1
 600 600 l 1,1,-1
 1000 600 l 1,2,-1
 1000 800 l 1,3,-1
 600 800 l 1,0,-1
800 1200 m 1,4,-1
 600 1200 l 1,5,-1
 800 1400 l 1,6,-1
 1000 1400 l 1,7,-1
 800 1200 l 1,4,-1
200 800 m 1,8,-1
 400 800 l 1,9,-1
 400 1000 l 1,10,-1
 1200 1000 l 1,11,-1
 1200 800 l 1,12,-1
 1400 800 l 1,13,-1
 1400 400 l 1,14,-1
 600 400 l 1,15,-1
 600 200 l 1,16,-1
 1200 200 l 1,17,-1
 1200 0 l 1,18,-1
 400 0 l 1,19,-1
 400 200 l 1,20,-1
 200 200 l 1,21,-1
 200 800 l 1,8,-1
EndSplineSet
EndChar

StartChar: ecircumflex
Encoding: 234 234 156
Width: 1600
Flags: W
LayerCount: 2
Fore
SplineSet
600 800 m 1,0,-1
 600 600 l 1,1,-1
 1000 600 l 1,2,-1
 1000 800 l 1,3,-1
 600 800 l 1,0,-1
900 1200 m 1,4,-1
 800 1300 l 1,5,-1
 700 1200 l 1,6,-1
 500 1200 l 1,7,-1
 700 1400 l 1,8,-1
 900 1400 l 1,9,-1
 1100 1200 l 1,10,-1
 900 1200 l 1,4,-1
200 800 m 1,11,-1
 400 800 l 1,12,-1
 400 1000 l 1,13,-1
 1200 1000 l 1,14,-1
 1200 800 l 1,15,-1
 1400 800 l 1,16,-1
 1400 400 l 1,17,-1
 600 400 l 1,18,-1
 600 200 l 1,19,-1
 1200 200 l 1,20,-1
 1200 0 l 1,21,-1
 400 0 l 1,22,-1
 400 200 l 1,23,-1
 200 200 l 1,24,-1
 200 800 l 1,11,-1
EndSplineSet
EndChar

StartChar: edieresis
Encoding: 235 235 157
Width: 1600
Flags: W
LayerCount: 2
Fore
SplineSet
600 800 m 1,0,-1
 600 600 l 1,1,-1
 1000 600 l 1,2,-1
 1000 800 l 1,3,-1
 600 800 l 1,0,-1
500 1396 m 1,4,-1
 696 1396 l 1,5,-1
 696 1200 l 1,6,-1
 500 1200 l 1,7,-1
 500 1396 l 1,4,-1
896 1402 m 1,8,-1
 1092 1402 l 1,9,-1
 1092 1206 l 1,10,-1
 896 1206 l 1,11,-1
 896 1402 l 1,8,-1
200 800 m 1,12,-1
 400 800 l 1,13,-1
 400 1000 l 1,14,-1
 1200 1000 l 1,15,-1
 1200 800 l 1,16,-1
 1400 800 l 1,17,-1
 1400 400 l 1,18,-1
 600 400 l 1,19,-1
 600 200 l 1,20,-1
 1200 200 l 1,21,-1
 1200 0 l 1,22,-1
 400 0 l 1,23,-1
 400 200 l 1,24,-1
 200 200 l 1,25,-1
 200 800 l 1,12,-1
EndSplineSet
EndChar

StartChar: igrave
Encoding: 236 236 158
Width: 1600
Flags: W
LayerCount: 2
Fore
SplineSet
600 800 m 1,0,-1
 400 800 l 1,1,-1
 400 1000 l 1,2,-1
 1000 1000 l 1,3,-1
 1000 200 l 1,4,-1
 1200 200 l 1,5,-1
 1200 0 l 1,6,-1
 400 0 l 1,7,-1
 400 200 l 1,8,-1
 600 200 l 1,9,-1
 600 800 l 1,0,-1
600 1400 m 1,10,-1
 800 1400 l 1,11,-1
 1000 1200 l 1,12,-1
 800 1200 l 1,13,-1
 600 1400 l 1,10,-1
EndSplineSet
EndChar

StartChar: iacute
Encoding: 237 237 159
Width: 1600
Flags: W
LayerCount: 2
Fore
SplineSet
600 800 m 1,0,-1
 400 800 l 1,1,-1
 400 1000 l 1,2,-1
 1000 1000 l 1,3,-1
 1000 200 l 1,4,-1
 1200 200 l 1,5,-1
 1200 0 l 1,6,-1
 400 0 l 1,7,-1
 400 200 l 1,8,-1
 600 200 l 1,9,-1
 600 800 l 1,0,-1
800 1200 m 1,10,-1
 600 1200 l 1,11,-1
 800 1400 l 1,12,-1
 1000 1400 l 1,13,-1
 800 1200 l 1,10,-1
EndSplineSet
EndChar

StartChar: icircumflex
Encoding: 238 238 160
Width: 1600
Flags: W
LayerCount: 2
Fore
SplineSet
600 800 m 1,0,-1
 400 800 l 1,1,-1
 400 1000 l 1,2,-1
 1000 1000 l 1,3,-1
 1000 200 l 1,4,-1
 1200 200 l 1,5,-1
 1200 0 l 1,6,-1
 400 0 l 1,7,-1
 400 200 l 1,8,-1
 600 200 l 1,9,-1
 600 800 l 1,0,-1
900 1200 m 1,10,-1
 800 1300 l 1,11,-1
 700 1200 l 1,12,-1
 500 1200 l 1,13,-1
 700 1400 l 1,14,-1
 900 1400 l 1,15,-1
 1100 1200 l 1,16,-1
 900 1200 l 1,10,-1
EndSplineSet
EndChar

StartChar: idieresis
Encoding: 239 239 161
Width: 1600
Flags: W
LayerCount: 2
Fore
SplineSet
600 800 m 1,0,-1
 400 800 l 1,1,-1
 400 1000 l 1,2,-1
 1000 1000 l 1,3,-1
 1000 200 l 1,4,-1
 1200 200 l 1,5,-1
 1200 0 l 1,6,-1
 400 0 l 1,7,-1
 400 200 l 1,8,-1
 600 200 l 1,9,-1
 600 800 l 1,0,-1
508 1396 m 1,10,-1
 704 1396 l 1,11,-1
 704 1200 l 1,12,-1
 508 1200 l 1,13,-1
 508 1396 l 1,10,-1
904 1402 m 1,14,-1
 1100 1402 l 1,15,-1
 1100 1206 l 1,16,-1
 904 1206 l 1,17,-1
 904 1402 l 1,14,-1
EndSplineSet
EndChar

StartChar: ntilde
Encoding: 241 241 162
Width: 1600
Flags: W
LayerCount: 2
Fore
SplineSet
200 1000 m 1,0,-1
 1200 1000 l 2,1,2
 1400 1000 1400 1000 1400 800 c 2,3,-1
 1400 0 l 1,4,-1
 1000 0 l 1,5,-1
 1000 800 l 1,6,-1
 600 800 l 1,7,-1
 600 0 l 1,8,-1
 200 0 l 1,9,-1
 200 1000 l 1,0,-1
900 1400 m 1,10,-1
 1100 1200 l 1,11,-1
 900 1200 l 1,12,-1
 800 1300 l 1,13,-1
 700 1200 l 1,14,-1
 500 1200 l 1,15,-1
 300 1400 l 1,16,-1
 500 1400 l 1,17,-1
 600 1300 l 1,18,-1
 700 1400 l 1,19,-1
 900 1400 l 1,10,-1
EndSplineSet
EndChar

StartChar: ograve
Encoding: 242 242 163
Width: 1600
Flags: W
LayerCount: 2
Fore
SplineSet
600 800 m 1,0,-1
 600 200 l 1,1,-1
 1000 200 l 1,2,-1
 1000 800 l 1,3,-1
 600 800 l 1,0,-1
600 1400 m 1,4,-1
 800 1400 l 1,5,-1
 1000 1200 l 1,6,-1
 800 1200 l 1,7,-1
 600 1400 l 1,4,-1
200 800 m 2,8,9
 200 1000 200 1000 400 1000 c 2,10,-1
 1200 1000 l 2,11,12
 1400 1000 1400 1000 1400 800 c 2,13,-1
 1400 200 l 2,14,15
 1400 0 1400 0 1200 0 c 2,16,-1
 400 0 l 2,17,18
 200 0 200 0 200 200 c 2,19,-1
 200 800 l 2,8,9
EndSplineSet
EndChar

StartChar: oacute
Encoding: 243 243 164
Width: 1600
Flags: W
LayerCount: 2
Fore
SplineSet
600 800 m 1,0,-1
 600 200 l 1,1,-1
 1000 200 l 1,2,-1
 1000 800 l 1,3,-1
 600 800 l 1,0,-1
800 1200 m 1,4,-1
 600 1200 l 1,5,-1
 800 1400 l 1,6,-1
 1000 1400 l 1,7,-1
 800 1200 l 1,4,-1
200 800 m 1,8,-1
 400 800 l 1,9,-1
 400 1000 l 1,10,-1
 1200 1000 l 1,11,-1
 1200 800 l 1,12,-1
 1400 800 l 1,13,-1
 1400 200 l 1,14,-1
 1200 200 l 1,15,-1
 1200 0 l 1,16,-1
 400 0 l 1,17,-1
 400 200 l 1,18,-1
 200 200 l 1,19,-1
 200 800 l 1,8,-1
EndSplineSet
EndChar

StartChar: ocircumflex
Encoding: 244 244 165
Width: 1600
Flags: W
LayerCount: 2
Fore
SplineSet
600 800 m 1,0,-1
 600 200 l 1,1,-1
 1000 200 l 1,2,-1
 1000 800 l 1,3,-1
 600 800 l 1,0,-1
900 1200 m 1,4,-1
 800 1300 l 1,5,-1
 700 1200 l 1,6,-1
 500 1200 l 1,7,-1
 700 1400 l 1,8,-1
 900 1400 l 1,9,-1
 1100 1200 l 1,10,-1
 900 1200 l 1,4,-1
200 800 m 1,11,-1
 400 800 l 1,12,-1
 400 1000 l 1,13,-1
 1200 1000 l 1,14,-1
 1200 800 l 1,15,-1
 1400 800 l 1,16,-1
 1400 200 l 1,17,-1
 1200 200 l 1,18,-1
 1200 0 l 1,19,-1
 400 0 l 1,20,-1
 400 200 l 1,21,-1
 200 200 l 1,22,-1
 200 800 l 1,11,-1
EndSplineSet
EndChar

StartChar: otilde
Encoding: 245 245 166
Width: 1600
Flags: W
LayerCount: 2
Fore
SplineSet
600 800 m 1,0,-1
 600 200 l 1,1,-1
 1000 200 l 1,2,-1
 1000 800 l 1,3,-1
 600 800 l 1,0,-1
1000 1400 m 1,4,-1
 1200 1200 l 1,5,-1
 1000 1200 l 1,6,-1
 900 1300 l 1,7,-1
 800 1200 l 1,8,-1
 600 1200 l 1,9,-1
 400 1400 l 1,10,-1
 600 1400 l 1,11,-1
 700 1300 l 1,12,-1
 800 1400 l 1,13,-1
 1000 1400 l 1,4,-1
200 800 m 1,14,-1
 400 800 l 1,15,-1
 400 1000 l 1,16,-1
 1200 1000 l 1,17,-1
 1200 800 l 1,18,-1
 1400 800 l 1,19,-1
 1400 200 l 1,20,-1
 1200 200 l 1,21,-1
 1200 0 l 1,22,-1
 400 0 l 1,23,-1
 400 200 l 1,24,-1
 200 200 l 1,25,-1
 200 800 l 1,14,-1
EndSplineSet
EndChar

StartChar: odieresis
Encoding: 246 246 167
Width: 1600
Flags: W
LayerCount: 2
Fore
SplineSet
600 800 m 1,0,-1
 600 200 l 1,1,-1
 1000 200 l 1,2,-1
 1000 800 l 1,3,-1
 600 800 l 1,0,-1
500 1396 m 1,4,-1
 696 1396 l 1,5,-1
 696 1200 l 1,6,-1
 500 1200 l 1,7,-1
 500 1396 l 1,4,-1
896 1402 m 1,8,-1
 1092 1402 l 1,9,-1
 1092 1206 l 1,10,-1
 896 1206 l 1,11,-1
 896 1402 l 1,8,-1
200 800 m 1,12,-1
 400 800 l 1,13,-1
 400 1000 l 1,14,-1
 1200 1000 l 1,15,-1
 1200 800 l 1,16,-1
 1400 800 l 1,17,-1
 1400 200 l 1,18,-1
 1200 200 l 1,19,-1
 1200 0 l 1,20,-1
 400 0 l 1,21,-1
 400 200 l 1,22,-1
 200 200 l 1,23,-1
 200 800 l 1,12,-1
EndSplineSet
EndChar

StartChar: divide
Encoding: 247 247 168
Width: 1600
Flags: W
LayerCount: 2
Fore
SplineSet
600 1400 m 1,0,-1
 1000 1400 l 1,1,-1
 1000 1000 l 1,2,-1
 600 1000 l 1,3,-1
 600 1400 l 1,0,-1
600 400 m 1,4,-1
 1000 400 l 1,5,-1
 1000 0 l 1,6,-1
 600 4 l 1,7,-1
 600 400 l 1,4,-1
200 600 m 1,8,-1
 200 800 l 1,9,-1
 1400 800 l 1,10,-1
 1400 600 l 1,11,-1
 200 600 l 1,8,-1
EndSplineSet
EndChar

StartChar: oslash
Encoding: 248 248 169
Width: 1600
Flags: W
LayerCount: 2
Fore
SplineSet
200 800 m 1,0,-1
 400 800 l 1,1,-1
 400 1000 l 1,2,-1
 1200 1000 l 1,3,-1
 1200 800 l 1,4,-1
 1400 800 l 1,5,-1
 1400 200 l 1,6,-1
 1200 200 l 1,7,-1
 1200 0 l 1,8,-1
 400 0 l 1,9,-1
 400 200 l 1,10,-1
 200 200 l 1,11,-1
 200 800 l 1,0,-1
600 200 m 1,12,-1
 1000 200 l 1,13,-1
 1000 500 l 1,14,-1
 600 200 l 1,12,-1
600 800 m 1,15,-1
 600 500 l 1,16,-1
 1000 800 l 1,17,-1
 600 800 l 1,15,-1
EndSplineSet
EndChar

StartChar: ugrave
Encoding: 249 249 170
Width: 1600
Flags: W
LayerCount: 2
Fore
SplineSet
600 1400 m 1,0,-1
 800 1400 l 1,1,-1
 1000 1200 l 1,2,-1
 800 1200 l 1,3,-1
 600 1400 l 1,0,-1
200 1000 m 1,4,-1
 600 1000 l 1,5,-1
 600 200 l 1,6,-1
 1000 200 l 1,7,-1
 1000 1000 l 1,8,-1
 1400 1000 l 1,9,-1
 1400 0 l 1,10,-1
 400 0 l 1,11,-1
 400 200 l 1,12,-1
 200 200 l 1,13,-1
 200 1000 l 1,4,-1
EndSplineSet
EndChar

StartChar: uacute
Encoding: 250 250 171
Width: 1600
Flags: W
LayerCount: 2
Fore
SplineSet
800 1200 m 1,0,-1
 600 1200 l 1,1,-1
 800 1400 l 1,2,-1
 1000 1400 l 1,3,-1
 800 1200 l 1,0,-1
200 1000 m 1,4,-1
 600 1000 l 1,5,-1
 600 200 l 1,6,-1
 1000 200 l 1,7,-1
 1000 1000 l 1,8,-1
 1400 1000 l 1,9,-1
 1400 0 l 1,10,-1
 400 0 l 1,11,-1
 400 200 l 1,12,-1
 200 200 l 1,13,-1
 200 1000 l 1,4,-1
EndSplineSet
EndChar

StartChar: ucircumflex
Encoding: 251 251 172
Width: 1600
Flags: W
LayerCount: 2
Fore
SplineSet
900 1200 m 1,0,-1
 800 1300 l 1,1,-1
 700 1200 l 1,2,-1
 500 1200 l 1,3,-1
 700 1400 l 1,4,-1
 900 1400 l 1,5,-1
 1100 1200 l 1,6,-1
 900 1200 l 1,0,-1
200 1000 m 1,7,-1
 600 1000 l 1,8,-1
 600 200 l 1,9,-1
 1000 200 l 1,10,-1
 1000 1000 l 1,11,-1
 1400 1000 l 1,12,-1
 1400 0 l 1,13,-1
 400 0 l 1,14,-1
 400 200 l 1,15,-1
 200 200 l 1,16,-1
 200 1000 l 1,7,-1
EndSplineSet
EndChar

StartChar: udieresis
Encoding: 252 252 173
Width: 1600
Flags: W
LayerCount: 2
Fore
SplineSet
500 1396 m 1,0,-1
 696 1396 l 1,1,-1
 696 1200 l 1,2,-1
 500 1200 l 1,3,-1
 500 1396 l 1,0,-1
896 1402 m 1,4,-1
 1092 1402 l 1,5,-1
 1092 1206 l 1,6,-1
 896 1206 l 1,7,-1
 896 1402 l 1,4,-1
200 1000 m 1,8,-1
 600 1000 l 1,9,-1
 600 200 l 1,10,-1
 1000 200 l 1,11,-1
 1000 1000 l 1,12,-1
 1400 1000 l 1,13,-1
 1400 0 l 1,14,-1
 400 0 l 1,15,-1
 400 200 l 1,16,-1
 200 200 l 1,17,-1
 200 1000 l 1,8,-1
EndSplineSet
EndChar

StartChar: ydieresis
Encoding: 255 255 174
Width: 1600
Flags: W
LayerCount: 2
Fore
SplineSet
500 1396 m 1,0,-1
 696 1396 l 1,1,-1
 696 1200 l 1,2,-1
 500 1200 l 1,3,-1
 500 1396 l 1,0,-1
896 1402 m 1,4,-1
 1092 1402 l 1,5,-1
 1092 1206 l 1,6,-1
 896 1206 l 1,7,-1
 896 1402 l 1,4,-1
200 0 m 1,8,-1
 800 0 l 1,9,-1
 800 200 l 1,10,-1
 400 200 l 1,11,-1
 400 400 l 1,12,-1
 200 400 l 1,13,-1
 200 1000 l 1,14,-1
 600 1000 l 1,15,-1
 600 400 l 1,16,-1
 1000 400 l 1,17,-1
 1000 1000 l 1,18,-1
 1400 1000 l 1,19,-1
 1400 200 l 1,20,-1
 1200 200 l 1,21,-1
 1200 0 l 1,22,-1
 1000 0 l 1,23,-1
 1000 -200 l 1,24,-1
 200 -200 l 1,25,-1
 200 0 l 1,8,-1
EndSplineSet
EndChar

StartChar: dotlessi
Encoding: 305 305 175
Width: 1600
Flags: W
LayerCount: 2
Fore
SplineSet
600 1400 m 1,0,-1
 400 1400 l 1,1,-1
 400 1600 l 1,2,-1
 600 1600 l 1,3,-1
 600 1800 l 1,4,-1
 1000 1800 l 1,5,-1
 1000 1200 l 1,6,-1
 1200 1200 l 1,7,-1
 1200 1000 l 1,8,-1
 400 1000 l 1,9,-1
 400 1200 l 1,10,-1
 600 1200 l 1,11,-1
 600 1400 l 1,0,-1
EndSplineSet
EndChar

StartChar: OE
Encoding: 338 338 176
Width: 1600
Flags: W
LayerCount: 2
Fore
SplineSet
0 1200 m 1,0,-1
 200 1200 l 1,1,-1
 200 1400 l 1,2,-1
 1400 1400 l 1,3,-1
 1400 1200 l 1,4,-1
 1000 1200 l 1,5,-1
 1000 800 l 1,6,-1
 1400 800 l 1,7,-1
 1400 600 l 1,8,-1
 1000 600 l 1,9,-1
 1000 200 l 1,10,-1
 1400 200 l 1,11,-1
 1400 0 l 1,12,-1
 200 0 l 1,13,-1
 200 200 l 1,14,-1
 0 200 l 1,15,-1
 0 1200 l 1,0,-1
400 1200 m 1,16,-1
 400 200 l 1,17,-1
 600 200 l 1,18,-1
 600 1200 l 1,19,-1
 400 1200 l 1,16,-1
EndSplineSet
EndChar

StartChar: oe
Encoding: 339 339 177
Width: 1600
Flags: W
LayerCount: 2
Fore
SplineSet
400 800 m 1,0,-1
 400 200 l 1,1,-1
 600 200 l 1,2,-1
 600 800 l 1,3,-1
 400 800 l 1,0,-1
1000 800 m 1,4,-1
 1000 600 l 1,5,-1
 1200 600 l 1,6,-1
 1200 800 l 1,7,-1
 1000 800 l 1,4,-1
200 1000 m 1,8,-1
 1400 1000 l 1,9,-1
 1400 800 l 1,10,-1
 1400 400 l 1,11,-1
 1000 400 l 1,12,-1
 1000 200 l 1,13,-1
 1400 200 l 1,14,-1
 1400 0 l 1,15,-1
 200 0 l 1,16,-1
 200 1000 l 1,8,-1
EndSplineSet
EndChar

StartChar: Ydieresis
Encoding: 376 376 178
Width: 1600
Flags: W
LayerCount: 2
Fore
SplineSet
200 1400 m 1,0,-1
 600 1400 l 1,1,-1
 600 800 l 1,2,-1
 1000 800 l 1,3,-1
 1000 1400 l 1,4,-1
 1400 1400 l 1,5,-1
 1400 800 l 2,6,7
 1400 600 1400 600 1200 600 c 2,8,-1
 1000 600 l 1,9,-1
 1000 0 l 1,10,-1
 600 0 l 1,11,-1
 600 600 l 1,12,-1
 400 600 l 2,13,14
 200 600 200 600 200 800 c 2,15,-1
 200 1400 l 1,0,-1
504 1796 m 1,16,-1
 700 1796 l 1,17,-1
 700 1600 l 1,18,-1
 504 1600 l 1,19,-1
 504 1796 l 1,16,-1
904 1796 m 1,20,-1
 1100 1796 l 1,21,-1
 1100 1600 l 1,22,-1
 904 1600 l 1,23,-1
 904 1796 l 1,20,-1
EndSplineSet
EndChar

StartChar: florin
Encoding: 402 402 179
Width: 1600
Flags: W
LayerCount: 2
Fore
SplineSet
600 1200 m 1,0,-1
 600 1400 l 1,1,-1
 1200 1400 l 1,2,-1
 1200 1200 l 1,3,-1
 1400 1200 l 1,4,-1
 1400 1000 l 1,5,-1
 1000 1000 l 1,6,-1
 1000 1200 l 1,7,-1
 800 1200 l 1,8,-1
 800 800 l 1,9,-1
 1200 800 l 1,10,-1
 1200 600 l 1,11,-1
 800 600 l 1,12,-1
 800 0 l 1,13,-1
 400 0 l 1,14,-1
 400 600 l 1,15,-1
 200 600 l 1,16,-1
 200 800 l 1,17,-1
 400 800 l 1,18,-1
 400 1200 l 1,19,-1
 600 1200 l 1,0,-1
EndSplineSet
EndChar

StartChar: circumflex
Encoding: 710 710 180
Width: 1600
Flags: W
LayerCount: 2
Fore
SplineSet
1000 1500 m 1,0,-1
 800 1700 l 1,1,-1
 600 1500 l 1,2,-1
 400 1500 l 1,3,-1
 700 1800 l 1,4,-1
 900 1800 l 1,5,-1
 1200 1500 l 1,6,-1
 1000 1500 l 1,0,-1
EndSplineSet
EndChar

StartChar: caron
Encoding: 711 711 181
Width: 1600
Flags: W
LayerCount: 2
Fore
SplineSet
1200 1800 m 1,0,-1
 900 1500 l 1,1,-1
 700 1500 l 1,2,-1
 400 1800 l 1,3,-1
 600 1800 l 1,4,-1
 800 1600 l 1,5,-1
 1000 1800 l 1,6,-1
 1200 1800 l 1,0,-1
EndSplineSet
EndChar

StartChar: macron
Encoding: 175 175 182
AltUni2: 0002c9.ffffffff.0
Width: 1600
Flags: W
LayerCount: 2
Fore
SplineSet
200 1800 m 1,0,-1
 1400 1800 l 1,1,-1
 1400 1600 l 1,2,-1
 200 1600 l 1,3,-1
 200 1800 l 1,0,-1
EndSplineSet
EndChar

StartChar: breve
Encoding: 728 728 183
Width: 1600
Flags: W
LayerCount: 2
Fore
SplineSet
1000 1800 m 1,0,-1
 1000 1600 l 2,1,2
 1000 1500 1000 1500 900 1500 c 2,3,-1
 500 1500 l 2,4,5
 400 1500 400 1500 400 1600 c 2,6,-1
 400 1800 l 1,7,-1
 600 1800 l 1,8,-1
 600 1600 l 1,9,-1
 800 1600 l 1,10,-1
 800 1800 l 1,11,-1
 1000 1800 l 1,0,-1
EndSplineSet
EndChar

StartChar: ogonek
Encoding: 731 731 184
Width: 1600
Flags: W
LayerCount: 2
Fore
SplineSet
200 0 m 1,0,-1
 600 0 l 1,1,-1
 800 -200 l 1,2,-1
 400 -200 l 1,3,-1
 200 0 l 1,0,-1
EndSplineSet
EndChar

StartChar: endash
Encoding: 8211 8211 185
Width: 1600
Flags: W
LayerCount: 2
Fore
SplineSet
200 600 m 1,0,-1
 1000 600 l 1,1,-1
 1000 400 l 1,2,-1
 200 400 l 1,3,-1
 200 600 l 1,0,-1
EndSplineSet
EndChar

StartChar: emdash
Encoding: 8212 8212 186
Width: 1600
Flags: W
LayerCount: 2
Fore
SplineSet
200 600 m 1,0,-1
 1400 600 l 1,1,-1
 1400 400 l 1,2,-1
 200 400 l 1,3,-1
 200 600 l 1,0,-1
EndSplineSet
EndChar

StartChar: quoteleft
Encoding: 8216 8216 187
Width: 1600
Flags: W
LayerCount: 2
Fore
SplineSet
1200 800 m 1,0,-1
 800 800 l 1,1,-1
 800 1200 l 1,2,-1
 1000 1200 l 1,3,-1
 1000 1400 l 1,4,-1
 1400 1400 l 1,5,-1
 1400 1200 l 1,6,-1
 1200 1200 l 1,7,-1
 1200 800 l 1,0,-1
EndSplineSet
EndChar

StartChar: quoteright
Encoding: 8217 8217 188
Width: 1600
Flags: W
LayerCount: 2
Fore
SplineSet
400 1400 m 1,0,-1
 800 1400 l 1,1,-1
 800 1000 l 1,2,-1
 600 1000 l 1,3,-1
 600 800 l 1,4,-1
 200 800 l 1,5,-1
 200 1000 l 1,6,-1
 400 1000 l 1,7,-1
 400 1400 l 1,0,-1
EndSplineSet
EndChar

StartChar: quotedblleft
Encoding: 8220 8220 189
Width: 1600
Flags: W
LayerCount: 2
Fore
SplineSet
600 800 m 1,0,-1
 200 800 l 1,1,-1
 200 1200 l 1,2,-1
 400 1200 l 1,3,-1
 400 1400 l 1,4,-1
 800 1400 l 1,5,-1
 800 1200 l 1,6,-1
 600 1200 l 1,7,-1
 600 800 l 1,0,-1
1400 800 m 1,8,-1
 1000 800 l 1,9,-1
 1000 1200 l 1,10,-1
 1200 1200 l 1,11,-1
 1200 1400 l 1,12,-1
 1600 1400 l 1,13,-1
 1600 1200 l 1,14,-1
 1400 1200 l 1,15,-1
 1400 800 l 1,8,-1
EndSplineSet
EndChar

StartChar: quotedblright
Encoding: 8221 8221 190
Width: 1600
Flags: W
LayerCount: 2
Fore
SplineSet
1000 1400 m 1,0,-1
 1400 1400 l 1,1,-1
 1400 1000 l 1,2,-1
 1200 1000 l 1,3,-1
 1200 800 l 1,4,-1
 800 800 l 1,5,-1
 800 1000 l 1,6,-1
 1000 1000 l 1,7,-1
 1000 1400 l 1,0,-1
200 1400 m 1,8,-1
 600 1400 l 1,9,-1
 600 1000 l 1,10,-1
 400 1000 l 1,11,-1
 400 800 l 1,12,-1
 0 800 l 1,13,-1
 0 1000 l 1,14,-1
 200 1000 l 1,15,-1
 200 1400 l 1,8,-1
EndSplineSet
EndChar

StartChar: quotedblbase
Encoding: 8222 8222 191
Width: 1600
Flags: W
LayerCount: 2
Fore
SplineSet
1000 400 m 1,0,-1
 1400 400 l 1,1,-1
 1400 0 l 1,2,-1
 1200 0 l 1,3,-1
 1200 -200 l 1,4,-1
 800 -200 l 1,5,-1
 800 0 l 1,6,-1
 1000 0 l 1,7,-1
 1000 400 l 1,0,-1
200 400 m 1,8,-1
 600 400 l 1,9,-1
 600 0 l 1,10,-1
 400 0 l 1,11,-1
 400 -200 l 1,12,-1
 0 -200 l 1,13,-1
 0 0 l 1,14,-1
 200 0 l 1,15,-1
 200 400 l 1,8,-1
EndSplineSet
EndChar

StartChar: dagger
Encoding: 8224 8224 192
Width: 1600
Flags: W
LayerCount: 2
Fore
SplineSet
200 1200 m 1,0,-1
 600 1200 l 1,1,-1
 600 1400 l 1,2,-1
 1000 1400 l 1,3,-1
 1000 1200 l 1,4,-1
 1400 1200 l 1,5,-1
 1400 1000 l 1,6,-1
 1000 1000 l 1,7,-1
 1000 200 l 1,8,-1
 600 200 l 1,9,-1
 600 1000 l 1,10,-1
 200 1000 l 1,11,-1
 200 1200 l 1,0,-1
EndSplineSet
EndChar

StartChar: daggerdbl
Encoding: 8225 8225 193
Width: 1600
Flags: W
LayerCount: 2
Fore
SplineSet
200 1200 m 1,0,-1
 600 1200 l 1,1,-1
 600 1400 l 1,2,-1
 1000 1400 l 1,3,-1
 1000 1200 l 1,4,-1
 1400 1200 l 1,5,-1
 1400 1000 l 1,6,-1
 1000 1000 l 1,7,-1
 1000 800 l 1,8,-1
 1400 800 l 1,9,-1
 1400 600 l 1,10,-1
 1000 600 l 1,11,-1
 1000 200 l 1,12,-1
 600 200 l 1,13,-1
 600 600 l 1,14,-1
 200 600 l 1,15,-1
 200 800 l 1,16,-1
 600 800 l 1,17,-1
 600 1000 l 1,18,-1
 200 1000 l 1,19,-1
 200 1200 l 1,0,-1
EndSplineSet
EndChar

StartChar: bullet
Encoding: 8226 8226 194
Width: 1600
Flags: W
LayerCount: 2
Fore
SplineSet
400 800 m 1,0,-1
 600 800 l 1,1,-1
 600 1000 l 1,2,-1
 1000 1000 l 1,3,-1
 1000 800 l 1,4,-1
 1200 800 l 1,5,-1
 1200 400 l 1,6,-1
 1000 400 l 1,7,-1
 1000 200 l 1,8,-1
 600 200 l 1,9,-1
 600 400 l 1,10,-1
 400 400 l 1,11,-1
 400 800 l 1,0,-1
EndSplineSet
EndChar

StartChar: ellipsis
Encoding: 8230 8230 195
Width: 1800
Flags: W
LayerCount: 2
Fore
SplineSet
600 400 m 1,0,-1
 1000 400 l 1,1,-1
 1000 0 l 1,2,-1
 600 0 l 1,3,-1
 600 400 l 1,0,-1
1200 400 m 1,4,-1
 1600 400 l 1,5,-1
 1600 0 l 1,6,-1
 1200 0 l 1,7,-1
 1200 400 l 1,4,-1
0 400 m 1,8,-1
 400 400 l 1,9,-1
 400 0 l 1,10,-1
 0 0 l 1,11,-1
 0 400 l 1,8,-1
EndSplineSet
EndChar

StartChar: perthousand
Encoding: 8240 8240 196
Width: 1601
Flags: W
LayerCount: 2
Fore
SplineSet
2 400 m 1,0,-1
 1002 1400 l 1,1,-1
 1402 1400 l 1,2,-1
 454 457 l 1,3,-1
 2 0 l 1,4,-1
 2 400 l 1,0,-1
2 1400 m 1,5,-1
 402 1400 l 1,6,-1
 402 1000 l 1,7,-1
 2 1000 l 1,8,-1
 2 1400 l 1,5,-1
602 400 m 1,9,-1
 1002 400 l 1,10,-1
 1002 0 l 1,11,-1
 602 0 l 1,12,-1
 602 400 l 1,9,-1
1202 400 m 1,13,-1
 1599 400 l 1,14,-1
 1599 0 l 1,15,-1
 1202 0 l 1,16,-1
 1202 400 l 1,13,-1
EndSplineSet
EndChar

StartChar: Scaron
Encoding: 352 352 197
Width: 1600
Flags: W
LayerCount: 2
Fore
SplineSet
1100 1800 m 1,0,-1
 900 1600 l 1,1,-1
 700 1600 l 1,2,-1
 500 1800 l 1,3,-1
 700 1800 l 1,4,-1
 800 1700 l 1,5,-1
 900 1800 l 1,6,-1
 1100 1800 l 1,0,-1
200 400 m 1,7,-1
 600 400 l 1,8,-1
 600 200 l 1,9,-1
 1000 200 l 1,10,-1
 1000 600 l 1,11,-1
 400 600 l 1,12,-1
 400 800 l 1,13,-1
 200 800 l 1,14,-1
 200 1200 l 1,15,-1
 400 1200 l 1,16,-1
 400 1400 l 1,17,-1
 1200 1400 l 1,18,-1
 1200 1200 l 1,19,-1
 1400 1200 l 1,20,-1
 1400 1000 l 1,21,-1
 1000 1000 l 1,22,-1
 1000 1200 l 1,23,-1
 600 1200 l 1,24,-1
 600 800 l 1,25,-1
 1200 800 l 1,26,-1
 1200 600 l 1,27,-1
 1400 600 l 1,28,-1
 1400 200 l 1,29,-1
 1200 200 l 1,30,-1
 1200 0 l 1,31,-1
 400 0 l 1,32,-1
 400 200 l 1,33,-1
 200 200 l 1,34,-1
 200 400 l 1,7,-1
EndSplineSet
EndChar

StartChar: guilsinglleft
Encoding: 8249 8249 198
Width: 1600
Flags: W
LayerCount: 2
Fore
SplineSet
1200 1400 m 1,0,-1
 1200 1000 l 1,1,-1
 1000 1000 l 1,2,-1
 1000 800 l 1,3,-1
 800 800 l 1,4,-1
 800 600 l 1,5,-1
 1000 600 l 1,6,-1
 1000 400 l 1,7,-1
 1200 400 l 1,8,-1
 1200 0 l 1,9,-1
 1000 0 l 1,10,-1
 1000 200 l 1,11,-1
 800 200 l 1,12,-1
 800 400 l 1,13,-1
 600 400 l 1,14,-1
 600 600 l 1,15,-1
 400 600 l 1,16,-1
 400 800 l 1,17,-1
 600 800 l 1,18,-1
 600 1000 l 1,19,-1
 800 1000 l 1,20,-1
 800 1200 l 1,21,-1
 1000 1200 l 1,22,-1
 1000 1400 l 1,23,-1
 1200 1400 l 1,0,-1
EndSplineSet
EndChar

StartChar: guilsinglright
Encoding: 8250 8250 199
Width: 1600
Flags: W
LayerCount: 2
Fore
SplineSet
600 1400 m 1,0,-1
 600 1200 l 1,1,-1
 800 1200 l 1,2,-1
 800 1000 l 1,3,-1
 1000 1000 l 1,4,-1
 1000 800 l 1,5,-1
 1200 800 l 1,6,-1
 1200 600 l 1,7,-1
 1000 600 l 1,8,-1
 1000 400 l 1,9,-1
 800 400 l 1,10,-1
 800 200 l 1,11,-1
 600 200 l 1,12,-1
 600 0 l 1,13,-1
 400 0 l 1,14,-1
 400 400 l 1,15,-1
 600 400 l 1,16,-1
 600 600 l 1,17,-1
 800 600 l 1,18,-1
 800 800 l 1,19,-1
 600 800 l 1,20,-1
 600 1000 l 1,21,-1
 400 1000 l 1,22,-1
 400 1400 l 1,23,-1
 600 1400 l 1,0,-1
EndSplineSet
EndChar

StartChar: trademark
Encoding: 8482 8482 200
Width: 1599
Flags: W
LayerCount: 2
Fore
SplineSet
-2 1600 m 1,0,-1
 -2 1800 l 1,1,-1
 598 1800 l 1,2,-1
 598 1600 l 1,3,-1
 398 1600 l 1,4,-1
 398 800 l 1,5,-1
 198 800 l 1,6,-1
 198 1600 l 1,7,-1
 -2 1600 l 1,0,-1
798 1800 m 1,8,-1
 998 1800 l 1,9,-1
 998 1700 l 1,10,-1
 1098 1500 l 1,11,-1
 1198 1700 l 1,12,-1
 1198 1800 l 1,13,-1
 1398 1800 l 1,14,-1
 1398 1600 l 1,15,-1
 1398 800 l 1,16,-1
 1198 800 l 1,17,-1
 1198 1400 l 1,18,-1
 1098 1200 l 1,19,-1
 998 1400 l 1,20,-1
 998 800 l 1,21,-1
 798 800 l 1,22,-1
 798 1800 l 1,8,-1
EndSplineSet
EndChar

StartChar: scaron
Encoding: 353 353 201
Width: 1600
Flags: W
LayerCount: 2
Fore
SplineSet
1100 1400 m 1,0,-1
 900 1200 l 1,1,-1
 700 1200 l 1,2,-1
 500 1400 l 1,3,-1
 700 1400 l 1,4,-1
 800 1300 l 1,5,-1
 900 1400 l 1,6,-1
 1100 1400 l 1,0,-1
200 200 m 1,7,-1
 1000 200 l 1,8,-1
 1000 400 l 1,9,-1
 400 400 l 1,10,-1
 400 600 l 1,11,-1
 200 600 l 1,12,-1
 200 800 l 1,13,-1
 400 800 l 1,14,-1
 400 1000 l 1,15,-1
 1400 1000 l 1,16,-1
 1400 800 l 1,17,-1
 600 800 l 1,18,-1
 600 600 l 1,19,-1
 1200 600 l 1,20,-1
 1200 400 l 1,21,-1
 1400 400 l 1,22,-1
 1400 200 l 1,23,-1
 1200 200 l 1,24,-1
 1200 0 l 1,25,-1
 200 0 l 1,26,-1
 200 200 l 1,7,-1
EndSplineSet
EndChar

StartChar: periodcentered
Encoding: 183 183 202
AltUni2: 002219.ffffffff.0
Width: 1600
Flags: W
LayerCount: 2
Fore
SplineSet
600 800 m 1,0,-1
 1000 800 l 1,1,-1
 1000 400 l 1,2,-1
 600 400 l 1,3,-1
 600 800 l 1,0,-1
EndSplineSet
EndChar

StartChar: uni20AC
Encoding: 8364 8364 203
Width: 1600
Flags: W
LayerCount: 2
Fore
SplineSet
400 1200 m 1,0,-1
 600 1200 l 1,1,-1
 600 1400 l 1,2,-1
 1200 1400 l 1,3,-1
 1200 1200 l 1,4,-1
 1400 1200 l 1,5,-1
 1400 1000 l 1,6,-1
 1000 1000 l 1,7,-1
 1000 1200 l 1,8,-1
 800 1200 l 1,9,-1
 800 800 l 1,10,-1
 1200 800 l 1,11,-1
 1200 600 l 1,12,-1
 800 600 l 1,13,-1
 800 200 l 1,14,-1
 1000 200 l 1,15,-1
 1000 400 l 1,16,-1
 1400 400 l 1,17,-1
 1400 200 l 1,18,-1
 1200 200 l 1,19,-1
 1200 0 l 1,20,-1
 600 0 l 1,21,-1
 600 200 l 1,22,-1
 400 200 l 1,23,-1
 400 600 l 1,24,-1
 200 600 l 1,25,-1
 200 800 l 1,26,-1
 400 800 l 1,27,-1
 400 1200 l 1,0,-1
EndSplineSet
EndChar

StartChar: gbreve
Encoding: 287 287 204
Width: 1600
Flags: W
LayerCount: 2
Fore
SplineSet
409 1455 m 5,0,-1
 1471 1455 l 5,1,-1
 1471 1185 l 1,2,-1
 409 1185 l 1,3,-1
 409 1455 l 5,0,-1
251 11 m 1,4,-1
 1051 11 l 1,5,-1
 1051 211 l 1,6,-1
 451 211 l 1,7,-1
 451 411 l 1,8,-1
 251 411 l 1,9,-1
 251 811 l 1,10,-1
 451 811 l 1,11,-1
 451 1011 l 1,12,-1
 1451 1011 l 1,13,-1
 1451 11 l 1,14,-1
 1251 11 l 1,15,-1
 1251 -189 l 1,16,-1
 251 -189 l 1,17,-1
 251 11 l 1,4,-1
651 811 m 1,18,-1
 651 411 l 1,19,-1
 1051 411 l 1,20,-1
 1051 811 l 1,21,-1
 651 811 l 1,18,-1
EndSplineSet
EndChar
